<svg width="65" height="65" viewBox="0 0 65 65" fill="none" xmlns="http://www.w3.org/2000/svg">
<g id="Search results for Winner - Flaticon-12 1">
<g id="Group">
<path id="Vector" d="M32.5008 0C22.0466 0 13.5425 8.50417 13.5425 18.9583C13.5425 29.4125 22.0466 37.9167 32.5008 37.9167C42.955 37.9167 51.4591 29.4125 51.4591 18.9583C51.4591 8.50417 42.955 0 32.5008 0ZM42.7573 18.3002L39.0712 22.0783L39.946 27.4354C40.0067 27.8114 39.9604 28.1969 39.8125 28.5479C39.6646 28.8988 39.421 29.2011 39.1095 29.4203C38.798 29.6394 38.4312 29.7666 38.0509 29.7872C37.6706 29.8079 37.2921 29.7212 36.9587 29.5371L32.5008 27.0752L28.0429 29.5398C27.7093 29.7261 27.33 29.8143 26.9484 29.7945C26.5669 29.7746 26.1988 29.6474 25.8863 29.4276C25.5739 29.2077 25.3299 28.904 25.1825 28.5516C25.035 28.1992 24.9901 27.8123 25.0529 27.4354L25.9277 22.0783L22.2443 18.3002C21.9837 18.0328 21.8017 17.6988 21.7185 17.3347C21.6354 16.9707 21.6541 16.5908 21.7728 16.2367C21.8915 15.8826 22.1055 15.5681 22.3912 15.3278C22.677 15.0874 23.0235 14.9304 23.3927 14.8742L28.4058 14.1077L30.6645 9.295C31.3308 7.86771 33.6735 7.86771 34.3398 9.295L36.5985 14.1077L41.6116 14.8742C41.9817 14.929 42.3293 15.0853 42.6159 15.3256C42.9026 15.5659 43.1171 15.8809 43.2358 16.2356C43.3544 16.5904 43.3725 16.9711 43.288 17.3355C43.2036 17.6999 43.0198 18.0338 42.7573 18.3002ZM16.1425 35.1542L5.66122 53.9771C5.30913 54.6271 5.33622 55.4396 5.74247 56.0625C6.14872 56.6854 6.85288 57.0646 7.61122 56.9833L15.9529 56.3604L19.6362 63.8625C19.9883 64.5396 20.6654 64.9729 21.3966 65H21.4508C22.182 65 22.8862 64.5938 23.2383 63.9708L30.0633 51.8375L23.4279 40.1104C20.7048 38.9394 18.2316 37.257 16.1425 35.1542ZM59.3133 53.9771L48.7508 35.2625C45.2375 38.7775 40.6731 41.0502 35.7508 41.7354C34.6945 41.8979 33.6112 41.9792 32.5008 41.9792C31.3091 41.9792 30.1445 41.8979 29.007 41.7083L32.3925 47.6937L41.5737 63.9708C41.9258 64.5938 42.6029 65 43.3341 65H43.3883C44.1466 64.9729 44.8237 64.5396 45.1758 63.8625L48.8862 56.3604L57.3904 57.0104C58.1487 57.0646 58.8529 56.7125 59.2591 56.0625C59.6654 55.4396 59.6925 54.6271 59.3133 53.9771Z" fill="white"/>
</g>
</g>
</svg>
