<svg width="99" height="99" viewBox="0 0 99 99" fill="none" xmlns="http://www.w3.org/2000/svg">
<g id="030-apple" opacity="0.1" clip-path="url(#clip0_5629_45845)">
<g id="Group">
<path id="Vector" d="M30.9254 27.438C28.6813 29.4048 27.0797 32.0092 26.4159 34.7711C26.1636 35.8207 26.81 36.8764 27.8597 37.1285C28.0133 37.1657 28.167 37.1831 28.3182 37.1831C29.2011 37.1831 30.0018 36.581 30.2172 35.6847C30.6938 33.7016 31.8605 31.8172 33.5023 30.3782C34.3143 29.6666 34.3955 28.4316 33.6839 27.6197C32.9722 26.8076 31.7374 26.7262 30.9254 27.438Z" fill="white"/>
<path id="Vector_2" d="M38.7585 23.7406C38.1758 23.8359 37.5895 23.9665 37.0162 24.1289C35.9775 24.423 35.374 25.5037 35.6683 26.5424C35.9121 27.4032 36.6956 27.9649 37.5479 27.9649C37.7243 27.9649 37.9037 27.941 38.0818 27.8903C38.5124 27.7683 38.9521 27.6704 39.3887 27.5989C40.4541 27.4249 41.1769 26.4202 41.0027 25.3546C40.8288 24.2892 39.8243 23.567 38.7585 23.7406Z" fill="white"/>
<path id="Vector_3" d="M54.6309 52.3907C55.2787 52.3907 55.8038 51.8655 55.8038 51.2178V48.8526C55.8038 48.2049 55.2787 47.6797 54.6309 47.6797C53.9832 47.6797 53.458 48.2049 53.458 48.8526V51.2178C53.458 51.8655 53.9832 52.3907 54.6309 52.3907Z" fill="white"/>
<path id="Vector_4" d="M66.3741 45.3399C67.0218 45.3399 67.547 44.8147 67.547 44.167V41.8018C67.547 41.1541 67.0218 40.6289 66.3741 40.6289C65.7263 40.6289 65.2012 41.1541 65.2012 41.8018V44.167C65.2012 44.8147 65.7263 45.3399 66.3741 45.3399Z" fill="white"/>
<path id="Vector_5" d="M62.1143 56.9924C62.7621 56.9924 63.2872 56.4673 63.2872 55.8195V53.4542C63.2872 52.8064 62.7621 52.2812 62.1143 52.2812C61.4666 52.2812 60.9414 52.8064 60.9414 53.4542V55.8195C60.9414 56.4675 61.4666 56.9924 62.1143 56.9924Z" fill="white"/>
<path id="Vector_6" d="M80.671 68.5827H65.1233C72.593 63.728 78.8256 54.2105 81.0113 44.6829C82.9781 36.1099 81.4754 28.6575 76.7874 23.4211C78.2267 22.3884 79.548 21.1938 80.6979 19.8637C83.3732 16.769 84.5772 13.6 83.9188 11.3862C83.2605 9.17264 80.5204 7.17639 76.5886 6.0466C72.4936 4.86962 67.9926 4.88973 63.9148 6.10228C59.298 7.47533 56.0496 10.1663 54.1742 12.1237L53.3452 6.97994C52.8282 3.77134 49.7969 1.58289 46.5887 2.09878C43.3801 2.61601 41.1905 5.64673 41.7075 8.85533L42.9595 16.6249C40.5764 16.3277 38.105 16.4112 35.6275 16.8852C29.7674 18.0063 24.9067 21.1271 21.9406 25.6726C18.6169 30.7664 17.7505 37.3401 19.435 44.6829C21.6208 54.2105 27.8522 63.7282 35.3213 68.5827H15.4884C12.4018 68.5827 9.89062 71.0938 9.89062 74.1806C9.89062 77.2672 12.4018 79.7784 15.4884 79.7784H18.5997V87.8061H15.4884C12.4018 87.8061 9.89062 90.3174 9.89062 93.404C9.89062 96.4906 12.4018 99.0018 15.4884 99.0018H80.671C89.0576 99.0018 95.8804 92.1789 95.8804 83.7923C95.8806 75.4058 89.0576 68.5827 80.671 68.5827ZM65.0294 9.84959C69.5781 8.49684 73.5476 9.24089 75.5091 9.80395C78.73 10.7296 80.0538 12.1045 80.1717 12.5005C80.2895 12.8967 79.9322 14.7716 77.7404 17.3069C76.4059 18.8507 73.4877 21.6426 68.9391 22.9953C67.1876 23.5162 65.4751 23.727 63.8667 23.7268C60.1563 23.7264 57.0073 22.604 55.2523 21.5772C58.519 19.3886 65.7168 15.3493 73.7804 15.8149C74.4305 15.8518 74.9816 15.3578 75.0187 14.7112C75.0558 14.0646 74.5616 13.5103 73.915 13.4731C65.039 12.965 57.3708 17.2889 53.8837 19.6552C54.5073 17.4285 58.2703 11.8598 65.0294 9.84959ZM45.5674 8.2333C45.3933 7.153 46.1304 6.13245 47.2107 5.95862C48.2902 5.78401 49.3114 6.52149 49.4856 7.60178L50.931 16.5717C50.6102 17.2029 50.3652 17.8152 50.1908 18.4021C49.5914 18.3974 48.9931 18.2816 48.4378 18.0534C47.9878 17.8686 47.5305 17.7015 47.0682 17.5486L45.5674 8.2333ZM23.2458 43.8085C21.8043 37.5251 22.4853 31.9925 25.2151 27.809C27.6302 24.1077 31.4848 21.658 36.3623 20.7251C40.0632 20.0174 43.7252 20.3438 46.9524 21.6698C48.0495 22.1206 49.2379 22.335 50.4216 22.3091C51.4414 24.0801 53.9334 25.6753 57.3304 26.6858C58.7707 27.1141 61.0845 27.6296 63.8766 27.6296C65.7585 27.6296 67.8582 27.3952 70.0536 26.7422C71.1778 26.4079 72.2782 25.9769 73.3427 25.4649C77.5707 29.7526 78.9429 36.2161 77.2013 43.8083C75.7129 50.2961 72.0512 56.9682 67.4063 61.6562C62.71 66.396 57.5092 68.6363 53.1389 67.7986C52.9299 67.7588 52.7203 67.7112 52.5148 67.6575C51.0158 67.2657 49.4316 67.2655 47.9323 67.6577C47.7274 67.7112 47.5176 67.7586 47.3088 67.7986C42.9386 68.6355 37.7377 66.396 33.0414 61.6562C28.3959 56.9684 24.7342 50.2963 23.2458 43.8085ZM22.5093 79.7782H80.671C82.8842 79.7782 84.6849 81.579 84.6849 83.7921C84.6849 86.0053 82.8844 87.8059 80.671 87.8059H22.5093V79.7782ZM80.671 95.0921H15.4884C14.5575 95.0921 13.8002 94.3347 13.8002 93.404C13.8002 92.473 14.5575 91.7158 15.4884 91.7158H80.671C85.0401 91.7158 88.5945 88.1613 88.5945 83.7923C88.5945 79.4232 85.0401 75.8687 80.671 75.8687H19.0646V75.8209H15.0968C14.3545 75.6436 13.8004 74.9763 13.8004 74.1804C13.8004 73.2494 14.5577 72.4922 15.4886 72.4922H80.6712C86.902 72.4922 91.9711 77.5613 91.9711 83.7921C91.9709 90.023 86.9018 95.0921 80.671 95.0921Z" fill="white"/>
<path id="Vector_7" d="M13.6779 11.2393L15.3383 15.9079C15.5728 16.5675 16.4023 16.5675 16.6369 15.9079L18.2973 11.2393C18.3684 11.0393 18.5092 10.881 18.6867 10.8009L22.8346 8.93209C23.4207 8.66816 23.4207 7.73423 22.8346 7.47029L18.6867 5.60148C18.509 5.52143 18.3684 5.36306 18.2973 5.16313L16.6371 0.494662C16.4025 -0.164887 15.573 -0.164887 15.3385 0.494662L13.6781 5.16332C13.6069 5.36326 13.4664 5.52162 13.2887 5.60167L9.14073 7.47049C8.55465 7.73442 8.55465 8.66835 9.14073 8.93228L13.2887 10.8011C13.4662 10.881 13.6067 11.0393 13.6779 11.2393Z" fill="white"/>
<path id="Vector_8" d="M5.07568 31.1729C7.07799 31.1729 8.70117 29.5497 8.70117 27.5474C8.70117 25.5451 7.07799 23.9219 5.07568 23.9219C3.07338 23.9219 1.4502 25.5451 1.4502 27.5474C1.4502 29.5497 3.07338 31.1729 5.07568 31.1729Z" fill="white"/>
<path id="Vector_9" d="M97.2226 27.0064L94.1457 25.6202C94.014 25.5609 93.9096 25.4433 93.8568 25.295L92.6251 21.8317C92.4511 21.3425 91.8358 21.3425 91.6618 21.8317L90.4301 25.295C90.3773 25.4433 90.2731 25.5609 90.1412 25.6202L87.0643 27.0064C86.6296 27.2023 86.6296 27.8949 87.0643 28.0908L90.1412 29.4772C90.2729 29.5365 90.3773 29.6539 90.4301 29.8022L91.6618 33.2653C91.8358 33.7545 92.4511 33.7545 92.6251 33.2653L93.8568 29.8022C93.9096 29.6539 94.0138 29.5365 94.1457 29.4772L97.2226 28.0908C97.6573 27.8947 97.6573 27.2021 97.2226 27.0064Z" fill="white"/>
</g>
</g>
<defs>
<clipPath id="clip0_5629_45845">
<rect width="99" height="99" fill="white"/>
</clipPath>
</defs>
</svg>
