<svg width="73" height="73" viewBox="0 0 73 73" fill="none" xmlns="http://www.w3.org/2000/svg">
<g id="010-scissors" opacity="0.1" clip-path="url(#clip0_5629_45879)">
<g id="Group">
<path id="Vector" d="M25.8406 51.8654C24.2434 51.0905 22.4399 50.984 20.7624 51.5652C19.0849 52.1467 17.7343 53.3466 16.9592 54.9439C16.1842 56.5412 16.0777 58.3447 16.6591 60.0221C17.2405 61.6996 18.4405 63.0502 20.0378 63.8253C20.9697 64.2774 21.956 64.4914 22.9284 64.4914C25.3963 64.4914 27.7714 63.1119 28.919 60.7467C29.6939 59.1494 29.8005 57.3459 29.2191 55.6685C28.6377 53.9909 27.4377 52.6403 25.8406 51.8654ZM26.2084 59.4313C25.3337 61.2339 23.1557 61.9888 21.3529 61.1144C20.4796 60.6907 19.8236 59.9524 19.5058 59.0353C19.188 58.1183 19.2462 57.1324 19.6699 56.2591C20.0937 55.3858 20.8319 54.7298 21.749 54.412C22.1389 54.2768 22.5412 54.2096 22.9419 54.2096C23.4839 54.2096 24.0233 54.3325 24.5253 54.5761C25.3986 54.9997 26.0544 55.7381 26.3724 56.6551C26.6903 57.5722 26.632 58.5581 26.2084 59.4313Z" fill="white"/>
<path id="Vector_2" d="M56.8545 43.6965C53.5486 42.5425 50.0231 42.5749 46.7788 43.7655L46.716 43.6386L58.1705 20.5518C60.8526 15.0238 58.5373 8.34427 53.0094 5.66223L52.7825 5.55216C50.2567 4.32656 47.2052 5.38249 45.976 7.90527L37.4715 24.9781L28.9884 7.85409C27.7646 5.32874 24.7156 4.26639 22.1868 5.48658L21.96 5.59608C16.4261 8.26614 14.0962 14.9404 16.772 20.4862L28.1881 43.6222C28.1648 43.6593 28.1265 43.738 28.1067 43.7781C20.9723 41.1515 12.8444 44.3224 9.45702 51.3038C5.85008 58.7381 8.96384 67.7206 16.3979 71.3276C18.4682 72.332 20.6919 72.8385 22.9272 72.8385C24.5801 72.8385 26.2395 72.5616 27.8473 72.0043C31.6292 70.6933 34.6744 67.988 36.4158 64.3986L37.4306 62.3534L38.4191 64.3567C40.1585 67.9617 43.1977 70.6736 46.9767 71.9929C48.5939 72.5575 50.2635 72.8381 51.9273 72.8379C54.1516 72.8379 56.3652 72.3365 58.4276 71.3413C62.0327 69.602 64.7445 66.5628 66.0638 62.7837C67.3831 59.0046 67.1517 54.9379 65.4122 51.3329C63.6728 47.7278 60.6336 45.0158 56.8545 43.6965ZM48.676 9.24208C48.6783 9.23738 48.6807 9.23267 48.6828 9.22797C49.1844 8.19413 50.4335 7.76112 51.4671 8.26271L51.6939 8.37278C55.7273 10.3297 57.4166 15.2031 55.4656 19.2247L45.0354 40.2467L39.1496 28.3659L48.676 9.24208ZM23.2694 8.30948C23.6166 8.1237 24.016 7.98326 24.3985 7.99324C25.1738 7.99324 25.9198 8.42753 26.2787 9.17136C26.281 9.17607 38.1191 33.0723 38.1191 33.0723L28.7356 37.9231L19.4798 19.1651C17.5316 15.1274 19.2316 10.2577 23.2694 8.30948ZM33.711 63.0715C30.8293 69.0111 23.6527 71.499 17.713 68.6169C11.7736 65.7351 9.28592 58.5584 12.1676 52.6191C15.0492 46.6797 22.2259 44.1918 28.1654 47.0736C28.716 47.3408 29.3499 47.2417 29.7912 46.8716L35.7534 58.9547L33.711 63.0715ZM63.2192 61.7907C62.1653 64.8101 59.9985 67.238 57.1183 68.6277C51.1725 71.4961 44.0013 68.993 41.1268 63.0354L30.069 40.6254L39.4567 35.7723L44.7086 46.3736C45.0752 47.1135 45.969 47.4207 46.7131 47.0616C49.5932 45.6721 52.8424 45.487 55.8616 46.5411C58.881 47.595 61.309 49.7618 62.6987 52.642C64.0884 55.5222 64.2732 58.7714 63.2192 61.7907Z" fill="white"/>
<path id="Vector_3" d="M54.1062 51.5662C52.4301 50.981 50.6263 51.0839 49.0275 51.8553C45.7266 53.4479 44.3368 57.4289 45.9294 60.7297C47.0741 63.1024 49.4529 64.4875 51.9261 64.4875C52.8935 64.4875 53.8757 64.2755 54.8039 63.8277C58.1045 62.2351 59.4944 58.254 57.9018 54.9532C57.1303 53.3542 55.7824 52.1512 54.1062 51.5662ZM53.4947 61.1141C51.69 61.9847 49.5135 61.2251 48.6429 59.4206C47.7722 57.616 48.532 55.4394 50.3368 54.5688C50.8369 54.3276 51.3736 54.2059 51.913 54.2059C52.3163 54.2059 52.7214 54.2739 53.1133 54.4108C54.0297 54.7308 54.7667 55.3883 55.1884 56.2625C56.059 58.067 55.2992 60.2434 53.4947 61.1141Z" fill="white"/>
<path id="Vector_4" d="M35.9507 40.5121C34.3075 41.305 33.6157 43.2868 34.4086 44.9301C34.7926 45.7262 35.4637 46.325 36.2981 46.6163C36.6552 46.7409 37.0238 46.803 37.3912 46.803C37.8824 46.803 38.3711 46.6922 38.8265 46.4725C40.4697 45.6796 41.1617 43.6977 40.3688 42.0545C39.5759 40.411 37.594 39.7192 35.9507 40.5121ZM38.806 43.9869C38.6738 44.3654 38.4022 44.67 38.0411 44.8442C37.6799 45.0183 37.2726 45.0415 36.8939 44.9094C36.5153 44.7772 36.2109 44.5056 36.0367 44.1444C35.677 43.3989 35.9909 42.4998 36.7363 42.1401C37.0981 41.9656 37.5058 41.9429 37.8834 42.0748C38.2619 42.207 38.5665 42.4786 38.7407 42.8397C38.9149 43.201 38.9382 43.6083 38.806 43.9869Z" fill="white"/>
<path id="Vector_5" d="M29.7651 31.333C29.9777 31.333 30.1937 31.2878 30.3992 31.1921C31.1537 30.8414 31.4809 29.9455 31.1302 29.191C30.5283 27.8964 29.9512 26.7208 29.3401 25.4763C29.1546 25.0985 28.967 24.7165 28.7763 24.3261C28.4112 23.5784 27.509 23.2685 26.7616 23.6337C26.014 23.9989 25.7041 24.901 26.0692 25.6485C26.2608 26.0407 26.4493 26.4246 26.6357 26.8041C27.2395 28.0338 27.8098 29.1953 28.3982 30.461C28.6533 31.0102 29.1971 31.333 29.7651 31.333Z" fill="white"/>
<path id="Vector_6" d="M26.4243 19.4652L25.5239 17.6046C25.1616 16.8556 24.2607 16.5424 23.5119 16.9045C22.7629 17.2668 22.4495 18.1678 22.8118 18.9166L23.7123 20.7775C23.9724 21.315 24.5098 21.6281 25.0694 21.6281C25.2895 21.6281 25.5131 21.5797 25.7245 21.4773C26.4734 21.1151 26.7868 20.2142 26.4243 19.4652Z" fill="white"/>
<path id="Vector_7" d="M10.892 29.507L7.69537 28.0668C7.55849 28.0052 7.44999 27.883 7.39524 27.729L6.11575 24.1312C5.93496 23.6229 5.29564 23.6229 5.11485 24.1312L3.83535 27.729C3.7806 27.883 3.6721 28.0052 3.53522 28.0668L0.338766 29.507C-0.112922 29.7104 -0.112922 30.43 0.338766 30.6335L3.53537 32.0737C3.67224 32.1353 3.78074 32.2575 3.83549 32.4114L5.11499 36.0093C5.29578 36.5176 5.9351 36.5176 6.11589 36.0093L7.39538 32.4114C7.45013 32.2575 7.55864 32.1353 7.69551 32.0737L10.8921 30.6335C11.3435 30.43 11.3435 29.7104 10.892 29.507Z" fill="white"/>
<path id="Vector_8" d="M70.2061 22.502C71.7491 22.502 73 21.2511 73 19.708C73 18.165 71.7491 16.9141 70.2061 16.9141C68.663 16.9141 67.4121 18.165 67.4121 19.708C67.4121 21.2511 68.663 22.502 70.2061 22.502Z" fill="white"/>
<path id="Vector_9" d="M10.6409 9.56093C10.6534 8.90743 10.1337 8.36761 9.48017 8.35519C8.82668 8.34277 8.28685 8.86247 8.27443 9.51596C8.26202 10.1695 8.78172 10.7093 9.43521 10.7217C10.0887 10.7341 10.6285 10.2144 10.6409 9.56093Z" fill="white"/>
<path id="Vector_10" d="M59.7492 5.27018L62.1204 6.33852C62.222 6.38428 62.3024 6.47482 62.343 6.58903L63.2922 9.2578C63.4262 9.63478 63.9004 9.63478 64.0346 9.2578L64.9837 6.58903C65.0243 6.47482 65.1048 6.38428 65.2063 6.33852L67.5775 5.27018C67.9125 5.11919 67.9125 4.58552 67.5775 4.43453L65.2063 3.36633C65.1048 3.32056 65.0243 3.23003 64.9837 3.11568L64.0346 0.446902C63.9004 0.0697827 63.4262 0.0697827 63.2922 0.446902L62.343 3.11568C62.3024 3.23003 62.222 3.32056 62.1204 3.36633L59.7492 4.43453C59.4143 4.58552 59.4143 5.11919 59.7492 5.27018Z" fill="white"/>
</g>
</g>
<defs>
<clipPath id="clip0_5629_45879">
<rect width="73" height="73" fill="white"/>
</clipPath>
</defs>
</svg>
