<svg width="114" height="100" viewBox="0 0 114 100" fill="none" xmlns="http://www.w3.org/2000/svg">
<g id="Frame" clip-path="url(#clip0_5594_1557)">
<path id="Vector" d="M18.9274 20.2504L15.8699 17.9026C15.7243 17.7559 15.6515 17.5358 15.7971 17.389C15.9427 17.2423 16.1611 17.1689 16.3067 17.3157L17.5443 18.2694L18.5634 16.9488L17.3259 15.995C17.1803 15.8483 17.1075 15.6282 17.2531 15.4815C17.3987 15.3347 17.6171 15.2614 17.7627 15.4081L20.8201 17.7559C20.9657 17.9026 21.0385 18.1227 20.8929 18.2694C20.7473 18.4162 20.5289 18.4895 20.3833 18.3428L19.1458 17.389L18.1266 18.7096L19.3642 19.6634C19.5098 19.8102 19.5826 20.0303 19.437 20.177C19.2914 20.3971 19.073 20.3971 18.9274 20.2504Z" fill="black"/>
<path id="Vector_2" d="M19.1457 20.47C19.0729 20.47 18.9273 20.47 18.8545 20.3966L15.797 18.0488C15.7242 17.9755 15.6514 17.8287 15.5786 17.682C15.5786 17.5353 15.5786 17.3885 15.6514 17.3152C15.797 17.0951 16.161 17.0217 16.3794 17.2418L17.4713 18.1222L18.3449 17.0217L17.2529 16.1413C17.1801 16.0679 17.1073 15.9212 17.0346 15.7744C17.0346 15.6277 17.0346 15.481 17.1073 15.4076C17.1801 15.2609 17.3257 15.2609 17.4713 15.1875C17.6169 15.1875 17.7625 15.1875 17.8353 15.2609L20.8928 17.6086C21.1112 17.7554 21.184 18.1222 20.9656 18.3423C20.82 18.5624 20.456 18.6358 20.2376 18.4157L19.1457 17.6086L18.2721 18.7091L19.3641 19.5896C19.4369 19.6629 19.5096 19.8097 19.5824 19.9564C19.5824 20.1031 19.5824 20.2499 19.5096 20.3232C19.4369 20.47 19.2913 20.47 19.1457 20.47ZM19.0001 20.1765C19.0729 20.2499 19.2185 20.2499 19.2913 20.1031L19.3641 19.9564L19.2913 19.8097L17.9081 18.7825L19.1457 17.1684L20.5288 18.1956C20.6016 18.2689 20.7472 18.2689 20.82 18.1222C20.8928 18.0488 20.8928 17.9021 20.82 17.8287L17.7625 15.481L17.6169 15.4076L17.4713 15.481L17.3985 15.6277L17.4713 15.7744L18.8545 16.8016L17.6169 18.4157L16.2338 17.3885C16.161 17.3152 16.0154 17.3152 15.9426 17.4619L15.8698 17.6086L15.9426 17.7554L19.0001 20.1765Z" fill="black"/>
<path id="Vector_3" d="M21.1839 11.8853C21.0383 11.7386 21.0383 11.5185 21.1839 11.3718C21.3295 11.225 21.5479 11.225 21.6935 11.3718L24.2414 14.2331C24.387 14.3798 24.387 14.5999 24.2414 14.7467C24.0958 14.8934 23.8774 14.8934 23.7318 14.7467L21.1839 11.8853Z" fill="black"/>
<path id="Vector_4" d="M24.0228 15.115C23.8772 15.115 23.7316 15.0417 23.6588 14.9683L21.1109 12.107C21.0381 12.0336 20.9653 11.8869 20.9653 11.7401C20.9653 11.5934 21.0381 11.4467 21.1109 11.3733C21.3293 11.1532 21.6205 11.2266 21.8389 11.3733L24.3868 14.2346C24.6052 14.4547 24.5324 14.7482 24.314 14.9683C24.2412 15.0417 24.0956 15.115 24.0228 15.115ZM21.2565 11.8135L23.8044 14.6748C23.8772 14.7482 24.0228 14.7482 24.0956 14.6748C24.1684 14.6015 24.1684 14.4547 24.0956 14.3814L21.5477 11.52C21.4749 11.4467 21.3293 11.4467 21.2565 11.52L21.1837 11.6668L21.2565 11.8135Z" fill="black"/>
<path id="Vector_5" d="M26.3524 10.1254C25.6972 8.9515 26.0612 7.55751 27.2259 6.82384C27.7355 6.53037 28.2451 6.457 28.7546 6.53037C28.973 6.53037 29.1186 6.75047 29.1186 6.97057C29.1186 7.19068 28.9002 7.33741 28.6819 7.26404C28.3179 7.19068 27.9539 7.26404 27.5899 7.48415C27.1531 7.70425 26.9347 8.07109 26.7891 8.51129C26.6435 8.9515 26.7163 9.3917 26.9347 9.75854C27.1531 10.1254 27.5171 10.4189 27.9539 10.4922C28.3907 10.5656 28.8274 10.5656 29.1914 10.2721C29.4826 10.1254 29.701 9.83191 29.8466 9.61181L29.4098 8.80476L28.6091 9.31834C28.4635 9.3917 28.1723 9.3917 28.0995 9.1716C28.0267 9.02487 28.0267 8.7314 28.2451 8.65803L29.337 7.99772C29.4826 7.92435 29.7738 7.92435 29.8466 8.14446L30.5746 9.3917L30.6474 9.46507C30.6474 9.53844 30.6474 9.61181 30.6474 9.68517C30.429 10.1987 30.1378 10.639 29.6282 10.8591C28.4635 11.5927 27.0075 11.2259 26.3524 10.1254Z" fill="black"/>
<path id="Vector_6" d="M28.3906 11.3732C27.5171 11.3732 26.7163 10.933 26.2795 10.1259C25.5515 8.95205 25.9883 7.33796 27.2259 6.60428C27.7355 6.31081 28.3178 6.16408 28.8274 6.23745C28.973 6.23745 29.1186 6.31081 29.1914 6.45755C29.2642 6.60428 29.337 6.67765 29.337 6.82439C29.337 6.97112 29.2642 7.11786 29.1186 7.19123C28.973 7.26459 28.9002 7.33796 28.7546 7.26459C28.3906 7.19122 28.0994 7.26459 27.8083 7.4847C27.4443 7.7048 27.2259 7.99827 27.0803 8.43847C27.0075 8.80531 27.0075 9.24552 27.2259 9.53899C27.4443 9.90583 27.7355 10.1259 28.0994 10.1993C28.4634 10.2727 28.9002 10.2727 29.2642 10.0526C29.4826 9.90583 29.701 9.75909 29.8466 9.53899L29.4826 8.95205L28.8274 9.39225C28.6818 9.46562 28.609 9.46562 28.4634 9.46562C28.3178 9.46562 28.245 9.31889 28.1722 9.24552C28.0266 9.02541 28.0994 8.65858 28.3906 8.51184L29.4826 7.85153C29.7738 7.7048 30.065 7.77817 30.2106 7.99827L30.9385 9.24552L31.0113 9.31888V9.39225C31.0113 9.53899 31.0113 9.61235 31.0113 9.68572C30.5745 10.2727 30.2106 10.7129 29.701 11.0063C29.2642 11.2998 28.8274 11.3732 28.3906 11.3732ZM26.4251 10.0526C27.0803 11.0797 28.3906 11.4465 29.4826 10.7862C29.9194 10.4928 30.2833 10.1259 30.4289 9.68572V9.53899V9.46562L29.701 8.21837C29.6282 8.145 29.4826 8.07164 29.4098 8.145L28.3178 8.80531C28.245 8.87868 28.1722 9.02541 28.245 9.09878L28.3906 9.17215H28.5362L29.4826 8.58521L30.065 9.53899L29.9922 9.61236C29.8466 9.90583 29.5554 10.1993 29.2642 10.346C28.8274 10.5661 28.3178 10.6395 27.881 10.5661C27.4443 10.4928 27.0075 10.1993 26.7891 9.75909C26.5707 9.31888 26.4979 8.87868 26.6435 8.43847C26.7891 7.99827 27.0803 7.55806 27.4443 7.33796C27.8083 7.11786 28.1722 7.04449 28.609 7.11786L28.7546 7.04449L28.8274 6.89775L28.7546 6.75102L28.609 6.67765C28.0994 6.60428 27.5899 6.75102 27.1531 6.97112C26.2067 7.63143 25.8427 9.02541 26.4251 10.0526Z" fill="black"/>
<path id="Vector_7" d="M34.5784 8.07205L33.268 4.40367C33.1952 4.18357 33.268 4.03683 33.4864 3.96346C33.7048 3.89009 33.8504 3.96346 33.9232 4.18356L34.4328 5.65092L36.0343 5.06398L35.5247 3.59662C35.4519 3.37652 35.5247 3.22979 35.7431 3.15642C35.9615 3.08305 36.1071 3.15642 36.1799 3.37652L37.4902 7.0449C37.563 7.265 37.4902 7.41174 37.2719 7.48511C37.0535 7.55847 36.9079 7.48511 36.8351 7.265L36.3255 5.79765L34.724 6.38459L35.2335 7.85194C35.3063 8.07205 35.2335 8.21878 35.0151 8.29215C34.7968 8.36552 34.6512 8.21878 34.5784 8.07205Z" fill="black"/>
<path id="Vector_8" d="M34.8696 8.43657C34.7968 8.43657 34.724 8.43657 34.6512 8.3632C34.5057 8.28983 34.4329 8.21646 34.3601 8.06973L33.0497 4.40135C32.9769 4.25461 32.9769 4.10788 33.0497 4.03451C33.1225 3.88778 33.1953 3.81441 33.3409 3.74104C33.4865 3.66767 33.6321 3.66767 33.7049 3.74104C33.8505 3.81441 33.9233 3.88778 33.9961 4.03451L34.5057 5.35513L35.816 4.91492L35.452 3.66767C35.3792 3.3742 35.5248 3.08073 35.7432 3.00737C36.0344 2.934 36.3256 3.08073 36.3984 3.30084L37.7087 6.96921C37.7815 7.11595 37.7815 7.26269 37.7087 7.33605C37.6359 7.48279 37.5631 7.55616 37.4175 7.62952C37.1263 7.70289 36.8352 7.55616 36.7624 7.33605L36.2528 6.01544L34.9424 6.38227L35.452 7.70289C35.5248 7.84963 35.5248 7.99636 35.452 8.06973C35.3792 8.21646 35.3064 8.28983 35.1608 8.3632L34.8696 8.43657ZM34.724 7.99636L34.7968 8.1431H34.9424L35.088 7.99636V7.84963L34.5057 6.23554L36.3984 5.57523L36.9807 7.18932C37.0535 7.33605 37.1263 7.33605 37.2719 7.33605L37.4175 7.18932V7.04258L36.1072 3.3742C36.0344 3.22747 35.9616 3.22747 35.816 3.22747C35.7432 3.30084 35.6704 3.44757 35.6704 3.52094L36.2528 5.13503L34.3601 5.79533L33.7777 4.18125L33.6321 4.03451H33.4865L33.3409 4.10788V4.25462L34.724 7.99636Z" fill="black"/>
<path id="Vector_9" d="M46.4444 4.25723C46.5172 4.1105 46.7356 4.03713 46.8812 4.18387C47.1723 4.40397 47.6819 4.62407 48.1915 4.5507C48.4827 4.5507 48.7739 4.40397 48.9923 4.18387C49.1379 4.03713 49.2107 3.81703 49.2107 3.67029C49.2107 3.59693 49.2107 3.52356 49.1379 3.45019C49.0651 3.37682 48.9923 3.30346 48.9195 3.30346C48.7739 3.15672 48.4099 3.08335 48.0459 3.08335C47.7547 3.08335 47.4635 3.00999 47.1723 2.93662C46.8812 2.86325 46.6628 2.71652 46.5172 2.49641C46.3716 2.34968 46.2988 2.20294 46.2988 1.98284C46.226 1.616 46.4444 1.24916 46.7356 0.955693C47.0267 0.735591 47.3907 0.515488 47.8275 0.515488C48.4827 0.44212 48.9195 0.735591 49.2835 0.882326C49.429 0.955693 49.5018 1.1758 49.429 1.32253C49.2835 1.46927 49.1379 1.54263 48.9195 1.46927C48.5555 1.24916 48.1915 1.10243 47.8275 1.1758C47.5363 1.1758 47.3179 1.32253 47.0995 1.46927C46.9539 1.616 46.8812 1.76274 46.8812 1.90947C46.8812 1.98284 46.8812 2.05621 46.954 2.05621C47.0267 2.12957 47.0267 2.12957 47.1723 2.20294C47.3907 2.27631 47.6819 2.34968 48.0459 2.42304C48.4099 2.42304 48.7011 2.49641 48.9923 2.56978C49.2835 2.64315 49.5018 2.78988 49.7202 3.00999C49.8658 3.15672 49.9386 3.37682 49.9386 3.52356C49.9386 4.03713 49.793 4.40397 49.5018 4.69744C49.2107 4.99091 48.7739 5.13764 48.3371 5.21101C47.6091 5.28438 47.0267 4.99091 46.59 4.77081C46.4444 4.62407 46.3716 4.40397 46.4444 4.25723Z" fill="black"/>
<path id="Vector_10" d="M48.1188 5.35519C47.4636 5.35519 46.8812 5.06172 46.5173 4.84162C46.2989 4.69489 46.2261 4.40142 46.3717 4.18131C46.4445 4.10795 46.5173 4.03458 46.6628 3.96121C46.8084 3.96121 46.954 3.96121 47.0268 4.03458C47.318 4.18131 47.8276 4.40142 48.1916 4.32805C48.4828 4.32805 48.7012 4.18131 48.9195 4.03458C49.0651 3.88784 49.1379 3.81448 49.1379 3.66774L49.0651 3.521C48.9923 3.44764 48.9923 3.44764 48.9195 3.37427C48.7012 3.3009 48.41 3.22753 48.046 3.15417C47.682 3.15417 47.3908 3.0808 47.0996 3.00743C46.8084 2.93406 46.5173 2.71396 46.3717 2.49386C46.2261 2.34712 46.1533 2.12702 46.1533 1.90692C46.0805 1.46671 46.2989 1.09987 46.59 0.806405C46.8812 0.512934 47.318 0.366199 47.7548 0.292832C48.41 0.219464 48.9195 0.512934 49.2835 0.659669C49.5747 0.806405 49.6475 1.09987 49.5019 1.31998C49.5019 1.46671 49.3563 1.54008 49.2835 1.61345C49.1379 1.68682 48.9923 1.61345 48.9195 1.61345C48.5556 1.39335 48.2644 1.31998 47.9004 1.31998C47.682 1.31998 47.4636 1.46671 47.2452 1.61345C47.1724 1.68682 47.0996 1.83355 47.0996 1.90692V1.98029C47.0996 1.98029 47.1724 2.05365 47.2452 2.12702C47.4636 2.20039 47.7548 2.20039 48.046 2.27376C48.4828 2.27376 48.774 2.34712 48.9924 2.42049C49.3563 2.56723 49.5747 2.71396 49.7931 2.93406C49.9387 3.0808 50.0115 3.3009 50.0115 3.521C50.0843 3.96121 49.8659 4.40142 49.5019 4.69489C49.2107 4.98836 48.774 5.20846 48.2644 5.20846C48.2644 5.35519 48.1916 5.35519 48.1188 5.35519ZM46.59 4.32805C46.5173 4.40142 46.59 4.54815 46.6628 4.62152C47.0268 4.84162 47.6092 5.13509 48.3372 5.06172C48.774 4.98836 49.1379 4.84162 49.4291 4.62152C49.7203 4.32805 49.8659 4.03458 49.8659 3.66774C49.8659 3.521 49.7931 3.3009 49.6475 3.22753C49.5019 3.0808 49.2835 2.93406 48.9924 2.78733C48.774 2.71396 48.4828 2.64059 48.1188 2.64059C47.7548 2.64059 47.3908 2.56723 47.1724 2.42049C47.0996 2.34712 46.954 2.27376 46.954 2.20039C46.8812 2.12702 46.8812 2.05365 46.8812 1.98029C46.8812 1.83355 46.8812 1.61345 47.0996 1.39335C47.318 1.24661 47.6092 1.09987 47.9004 1.02651C48.3372 0.95314 48.7012 1.17324 49.0651 1.31998H49.2107L49.2835 1.24661C49.3563 1.17324 49.2835 1.02651 49.2107 0.95314C48.8468 0.806405 48.41 0.512934 47.8276 0.586302C47.4636 0.65967 47.0996 0.806405 46.8084 1.02651C46.5173 1.24661 46.3717 1.61345 46.4445 1.90692C46.4445 2.05365 46.5173 2.20039 46.59 2.34712C46.7356 2.49386 46.954 2.64059 47.1724 2.71396C47.3908 2.8607 47.682 2.93406 48.046 2.93406C48.4828 2.93406 48.8468 3.00743 49.0651 3.15417C49.2107 3.22753 49.2835 3.3009 49.3563 3.37427C49.4291 3.44764 49.4291 3.521 49.5019 3.66774C49.5019 3.81448 49.5019 4.03458 49.2107 4.32805C48.9923 4.54815 48.7012 4.69489 48.3372 4.69489C47.8276 4.76825 47.318 4.54815 46.954 4.32805H46.8084H46.59Z" fill="black"/>
<path id="Vector_11" d="M56.6361 0.882113H55.617L55.6898 4.40376C55.6898 4.62386 55.5442 4.77059 55.3258 4.77059C55.1074 4.77059 54.9618 4.62386 54.9618 4.40376L54.889 0.882113H53.8698C53.6515 0.882113 53.5059 0.735378 53.5059 0.515275C53.5059 0.295173 53.6515 0.148438 53.8698 0.148438H56.6361C56.8545 0.148438 57.0001 0.295173 57.0001 0.515275C57.0001 0.735378 56.8545 0.882113 56.6361 0.882113Z" fill="black"/>
<path id="Vector_12" d="M55.3259 4.91563C55.0347 4.91563 54.8163 4.69552 54.8163 4.40205L54.7435 1.02715H53.8699C53.7243 1.02715 53.5787 0.953778 53.5059 0.880411C53.4331 0.807043 53.3604 0.660308 53.3604 0.513573C53.3604 0.366838 53.4331 0.220103 53.5059 0.146735C53.5787 0.0733676 53.7243 0 53.8699 0H56.6362C56.9274 0 57.1458 0.220103 57.1458 0.513573C57.1458 0.807043 56.9274 1.02715 56.6362 1.02715H55.7626L55.8354 4.40205C55.8354 4.69552 55.6171 4.91563 55.3259 4.91563ZM55.0347 0.733676L55.1075 4.40205C55.1075 4.54879 55.1803 4.62216 55.3259 4.62216C55.4715 4.62216 55.5443 4.54879 55.5443 4.40205L55.4715 0.733676H56.6362C56.7818 0.733676 56.8546 0.660308 56.8546 0.513573C56.8546 0.366838 56.7818 0.29347 56.6362 0.29347H53.8699L53.7243 0.366838L53.6515 0.513573L53.7243 0.733676C53.7971 0.733676 53.7971 0.733676 53.8699 0.733676H55.0347Z" fill="black"/>
<path id="Vector_13" d="M62.8966 3.88883L61.295 3.81546L60.931 4.62251C60.8583 4.76924 60.7127 4.84261 60.5671 4.84261H60.4215C60.2031 4.76924 60.1303 4.54914 60.2031 4.32904L61.8774 0.58729C61.9502 0.440555 62.0958 0.367188 62.2414 0.367188C62.387 0.367188 62.5326 0.440555 62.6054 0.58729L63.7701 4.54914C63.8429 4.76924 63.6973 4.91598 63.5517 4.98934H63.4061C63.2606 4.98934 63.115 4.91598 63.115 4.76924L62.8966 3.88883ZM62.6782 3.15516L62.2414 1.6878L61.5862 3.08179L62.6782 3.15516Z" fill="black"/>
<path id="Vector_14" d="M63.5517 5.20774C63.3333 5.20774 63.1149 5.06101 63.0421 4.84091L62.8237 4.03386L61.4406 3.9605L61.0766 4.69417C61.0038 4.91427 60.7854 4.98764 60.567 4.98764H60.4214C60.1303 4.84091 60.0575 4.54744 60.1303 4.32733L61.8774 0.51222C61.9502 0.292118 62.1686 0.21875 62.387 0.21875C62.6054 0.21875 62.751 0.365485 62.8237 0.585588L63.9885 4.54744C64.0613 4.84091 63.9157 5.13438 63.6245 5.20774H63.5517ZM61.2222 3.66703L63.0421 3.81376L63.3333 4.76754C63.3333 4.84091 63.4061 4.91427 63.5517 4.91427H63.6245C63.7701 4.91427 63.7701 4.76754 63.7701 4.6208L62.6054 0.658955C62.6054 0.585588 62.5326 0.51222 62.387 0.51222C62.3142 0.51222 62.1686 0.585588 62.1686 0.658955L60.4214 4.4007C60.3487 4.54744 60.4214 4.6208 60.567 4.69417H60.6398C60.7126 4.69417 60.7854 4.6208 60.8582 4.54744L61.2222 3.66703ZM62.8965 3.30019L61.4406 3.22682L62.3142 1.31926L62.8965 3.30019ZM61.8774 3.00672L62.5326 3.08009L62.2414 2.19967L61.8774 3.00672Z" fill="black"/>
<path id="Vector_15" d="M68.4291 5.28105C68.4291 5.50115 68.2108 5.57452 67.9924 5.57452C67.774 5.57452 67.7012 5.35441 67.7012 5.20768L68.4291 1.39257C68.4291 1.24583 68.5019 1.17246 68.6475 1.09909C68.7931 1.02573 69.0115 1.09909 69.1571 1.24583L70.613 4.54737L71.1226 1.90614C71.1226 1.68604 71.341 1.61267 71.5594 1.61267C71.7778 1.61267 71.8506 1.83277 71.8506 2.05287L71.1954 5.79462C71.1954 6.01472 70.977 6.08809 70.7586 6.08809C70.6858 6.08809 70.5403 6.01472 70.5403 5.94135V5.86799L69.0115 2.63981L68.4291 5.28105Z" fill="black"/>
<path id="Vector_16" d="M70.7587 6.23691H70.6859C70.5403 6.23691 70.3947 6.09018 70.3219 6.01681L70.2491 5.94344L68.9388 3.08211L68.502 5.3565C68.4292 5.64997 68.2108 5.79671 67.9196 5.79671C67.7013 5.72334 67.5557 5.42987 67.5557 5.1364L68.2108 1.39465C68.2108 1.24792 68.3564 1.10118 68.502 1.02782C68.7204 0.88108 69.0844 1.02782 69.1572 1.24792L70.5403 4.10925L70.9771 1.90823C70.9771 1.76149 71.0499 1.68812 71.1955 1.61476C71.2683 1.46802 71.4139 1.46802 71.5595 1.46802C71.7051 1.46802 71.7779 1.54139 71.8507 1.68812C71.9235 1.83486 71.9235 1.90823 71.9235 2.05496L71.2683 5.87007C71.2683 6.01681 71.1955 6.09018 71.0499 6.16354C70.9771 6.23691 70.8315 6.23691 70.7587 6.23691ZM68.866 2.12833L70.6131 5.87007L70.7587 5.94344H70.9043L70.9771 5.79671L71.6323 2.05496V1.90823L71.4867 1.83486H71.3411L71.2683 1.98159L70.6859 5.06303L68.9388 1.39465C68.866 1.32129 68.7932 1.24792 68.6476 1.32129L68.502 1.46802L67.7741 5.20977C67.7741 5.3565 67.8469 5.42987 67.9196 5.42987C68.0652 5.42987 68.138 5.3565 68.138 5.28313L68.866 2.12833Z" fill="black"/>
<path id="Vector_17" d="M75.1995 6.82224L76.437 3.15387C76.5098 2.93376 76.7282 2.8604 76.8738 2.93376L77.6018 3.15387C78.7665 3.59407 79.4217 4.91469 78.9849 6.08857C78.5481 7.26245 77.2378 7.92276 76.073 7.55592L75.345 7.33582C75.1995 7.26245 75.1267 7.04235 75.1995 6.82224ZM76.0002 6.74888L76.3642 6.89561C77.165 7.18908 78.0385 6.74888 78.3297 5.94183C78.6209 5.13479 78.1841 4.25438 77.3834 3.96091L77.0194 3.81417L76.0002 6.74888Z" fill="black"/>
<path id="Vector_18" d="M76.8736 7.85125C76.5824 7.85125 76.364 7.77788 76.0729 7.70451L75.3449 7.48441C75.0537 7.41104 74.9081 7.11757 75.0537 6.8241L76.2913 3.15572C76.364 2.86225 76.6552 2.71552 76.9464 2.86225L77.6744 3.08235C78.2568 3.30246 78.7663 3.74266 79.0575 4.3296C79.3487 4.91654 79.3487 5.57685 79.1303 6.16379C78.8391 7.19094 77.8928 7.85125 76.8736 7.85125ZM75.3449 6.89747C75.2721 7.0442 75.3449 7.11757 75.4905 7.19094L76.2184 7.41104C77.3104 7.77788 78.548 7.19094 78.9119 6.09043C79.1303 5.57685 79.0575 4.98991 78.8391 4.47634C78.6208 3.96277 78.184 3.59593 77.6016 3.37583L76.8736 3.15572H76.728L76.6552 3.30246L75.3449 6.89747ZM76.8736 7.11757C76.6552 7.11757 76.5096 7.11757 76.2913 7.0442L75.7817 6.89747L76.8736 3.6693L77.3832 3.81603C78.2568 4.1095 78.7663 5.13665 78.4024 6.01706C78.2568 6.67737 77.6016 7.11757 76.8736 7.11757ZM76.1457 6.67737L76.364 6.75073C77.092 6.97084 77.8928 6.604 78.184 5.87032C78.4024 5.13665 78.0384 4.3296 77.3104 4.03613L77.092 3.96277L76.1457 6.67737Z" fill="black"/>
<path id="Vector_19" d="M84.2259 10.0502L82.8428 9.24313L82.1148 9.83007C81.9692 9.90344 81.8236 9.90344 81.678 9.83007L81.6052 9.75671C81.4596 9.60997 81.5324 9.38987 81.678 9.24313L84.8083 6.6019C84.9539 6.52853 85.0995 6.52853 85.2451 6.6019C85.3907 6.67527 85.4635 6.822 85.4635 6.96874L84.8083 11.0773C84.8083 11.2974 84.5899 11.4442 84.3715 11.3708L84.2259 11.2974C84.0803 11.2241 84.0075 11.0773 84.0803 10.9306L84.2259 10.0502ZM84.3715 9.3165L84.5899 7.84915L83.4252 8.80293L84.3715 9.3165Z" fill="black"/>
<path id="Vector_20" d="M84.4446 11.5177H84.3718C84.299 11.5177 84.2262 11.4443 84.2262 11.4443C84.0078 11.3709 83.935 11.1508 84.0078 10.9307L84.1534 10.1237L82.9159 9.46336L82.2607 9.97694C82.1151 10.1237 81.8967 10.1237 81.6783 10.0503L81.5327 9.97694C81.3144 9.75683 81.3871 9.46336 81.6055 9.24326L84.7358 6.60203C84.8814 6.45529 85.1726 6.45529 85.3182 6.52866C85.4638 6.60203 85.6094 6.82213 85.6094 7.04223L84.9542 11.1508C84.8814 11.3709 84.663 11.5177 84.4446 11.5177ZM82.8431 9.09653L84.3718 9.97694L84.2262 11.0041C84.2262 11.0775 84.2262 11.1508 84.299 11.2242H84.3718C84.5174 11.2242 84.5902 11.1508 84.663 11.0041L85.3182 6.8955C85.3182 6.82213 85.3182 6.74876 85.1726 6.6754C85.0998 6.60203 84.9542 6.60203 84.8814 6.6754L81.7511 9.31663C81.6783 9.39 81.6783 9.53673 81.7511 9.6101L81.8239 9.68347C81.8967 9.75683 81.9695 9.68347 82.0423 9.68347L82.8431 9.09653ZM84.4446 9.53673L83.1343 8.80306L84.7358 7.48244L84.4446 9.53673ZM83.7167 8.80306L84.299 9.09653L84.4446 8.21611L83.7167 8.80306Z" fill="black"/>
<path id="Vector_21" d="M90.1956 15.3351C90.1228 15.5552 89.9044 15.6286 89.686 15.5552L89.5404 15.4819C89.4676 15.4085 89.3948 15.3351 89.3948 15.2618C89.3948 15.1884 89.3948 15.0417 89.3948 14.9683C89.4676 14.7482 89.5404 14.5281 89.8316 14.308C89.9044 14.2346 89.9772 14.1612 89.9772 14.0145C89.9772 13.9411 89.9772 13.8678 89.9772 13.721C89.9044 13.5743 89.8316 13.4276 89.8316 13.3542L89.2492 12.8406L88.3029 13.9411C88.1573 14.0879 87.9389 14.0879 87.7933 13.9411C87.6477 13.7944 87.6477 13.5743 87.7933 13.4276L90.3412 10.4929C90.4868 10.3461 90.7052 10.3461 90.8508 10.4929L91.7243 11.2999C92.3067 11.8135 92.3795 12.6939 91.8699 13.2808C91.5787 13.5743 91.2147 13.7944 90.778 13.721C90.778 13.7944 90.778 13.9411 90.778 14.0879C90.778 14.308 90.6324 14.5281 90.4868 14.7482C90.3412 14.8949 90.2684 14.9683 90.2684 15.0417C90.1956 15.115 90.2684 15.2618 90.1956 15.3351ZM91.2147 12.7673C91.4331 12.4738 91.4331 12.0336 91.1419 11.8135L90.5596 11.2999L89.686 12.3271L90.2684 12.8406C90.5596 13.0607 90.9963 12.9874 91.2147 12.7673Z" fill="black"/>
<path id="Vector_22" d="M89.8315 15.6994C89.7587 15.6994 89.6859 15.6994 89.6131 15.6261L89.4675 15.5527C89.3947 15.4793 89.3219 15.406 89.2491 15.2592C89.1763 15.1125 89.2491 14.9658 89.2491 14.8924C89.3219 14.6723 89.4675 14.4522 89.6859 14.1587C89.7587 14.0853 89.7587 14.012 89.7587 13.9386C89.7587 13.9386 89.7587 13.8652 89.7587 13.7185C89.7587 13.5718 89.6131 13.425 89.6131 13.425L89.1763 13.0582L88.3028 14.012C88.23 14.0853 88.0844 14.1587 87.9388 14.1587C87.7932 14.1587 87.6476 14.0853 87.5748 14.012C87.502 13.9386 87.4292 13.7919 87.4292 13.6451C87.4292 13.4984 87.502 13.3517 87.5748 13.2783L90.1227 10.3436C90.3411 10.1235 90.6323 10.1235 90.8507 10.2702L91.7242 11.0773C92.3794 11.6642 92.4522 12.618 91.8698 13.2783C91.5786 13.5718 91.2146 13.7919 90.8507 13.7919C90.8507 13.8652 90.8507 13.9386 90.8507 14.012C90.8507 14.3055 90.7051 14.5256 90.4867 14.7457C90.4139 14.819 90.3411 14.8924 90.3411 14.9658C90.4139 15.1125 90.4139 15.1859 90.3411 15.3326C90.2683 15.4793 90.1955 15.5527 90.0499 15.6261L89.8315 15.6994ZM89.1763 12.618L89.8315 13.2049C89.9043 13.2783 89.9771 13.4984 90.0499 13.6451C90.0499 13.7919 90.1227 13.8652 90.0499 14.012C90.0499 14.0853 89.9771 14.2321 89.9043 14.3054C89.6859 14.5256 89.5403 14.7457 89.5403 14.9658C89.5403 15.0391 89.5403 15.1125 89.5403 15.1859C89.5403 15.2592 89.6131 15.3326 89.6131 15.3326L89.6859 15.406H89.8315L89.9771 15.2592V15.0391L89.9043 14.9658L89.9771 14.8924C90.0499 14.7457 90.1227 14.6723 90.2683 14.5256C90.4139 14.3788 90.4867 14.1587 90.5595 13.9386C90.5595 13.8652 90.5595 13.7185 90.5595 13.6451V13.4984H90.7051C91.069 13.4984 91.433 13.3517 91.6514 13.0582C91.8698 12.8381 92.0154 12.4713 91.9426 12.1778C91.9426 11.811 91.797 11.5175 91.5058 11.2974L90.6323 10.4903C90.5595 10.417 90.4139 10.417 90.3411 10.4903L87.7932 13.425L87.7204 13.5718L87.7932 13.7185L87.9388 13.7919L88.0844 13.7185L89.1763 12.618ZM90.7779 13.1316C90.5595 13.1316 90.4139 13.0582 90.2683 12.9115L89.5403 12.2512L90.6323 11.0039L91.3602 11.6642C91.5058 11.811 91.6514 12.0311 91.6514 12.2512C91.6514 12.4713 91.5786 12.6914 91.433 12.8381C91.2146 13.0582 90.9962 13.1316 90.7779 13.1316ZM89.9043 12.2512L90.4139 12.6914C90.6323 12.9115 90.9962 12.8381 91.1418 12.618C91.2146 12.5446 91.2874 12.3979 91.2874 12.2512C91.2874 12.1044 91.2146 11.9577 91.1418 11.8843L90.6323 11.4441L89.9043 12.2512Z" fill="black"/>
<path id="Vector_23" d="M92.7431 18.4169L95.8734 16.1425C96.019 15.9957 96.2374 16.0691 96.383 16.2159L96.8197 16.8762C97.5477 17.9033 97.3293 19.3707 96.3102 20.1043C95.291 20.838 93.8351 20.6179 93.1071 19.5908L92.6703 18.9305C92.5247 18.7837 92.5247 18.5636 92.7431 18.4169ZM93.3983 18.8571L93.6167 19.2239C94.1263 19.9576 95.0726 20.1043 95.8006 19.5908C96.5286 19.0772 96.6742 18.1234 96.1646 17.3897L95.9462 17.0229L93.3983 18.8571Z" fill="black"/>
<path id="Vector_24" d="M94.9273 20.6899C94.7817 20.6899 94.6361 20.6899 94.4905 20.6899C93.8354 20.6165 93.3258 20.2497 92.889 19.6628L92.4522 19.0025C92.3066 18.7823 92.3794 18.4889 92.5978 18.2688L95.7281 15.9944C95.8737 15.921 95.9465 15.8476 96.0921 15.921C96.2377 15.921 96.3104 15.9944 96.3832 16.1411L96.82 16.8014C97.6208 17.9019 97.3296 19.4427 96.2377 20.1763C95.9465 20.5432 95.4369 20.6899 94.9273 20.6899ZM92.8162 18.5622C92.7434 18.6356 92.6706 18.7824 92.7434 18.8557L93.1802 19.516C93.5442 19.9562 93.9809 20.3231 94.5633 20.3964C95.1457 20.4698 95.7281 20.3231 96.1649 20.0296C97.1112 19.3693 97.3296 17.9753 96.6744 17.0215L96.2377 16.3612L96.0921 16.2879L95.9465 16.3612L92.8162 18.5622ZM94.9273 19.9562C94.4177 19.9562 93.9082 19.7361 93.5442 19.2226L93.253 18.7823L96.0193 16.8014L96.3105 17.2416C96.82 17.9753 96.6744 19.0758 95.8737 19.6628C95.5825 19.8829 95.2913 19.9562 94.9273 19.9562ZM93.617 18.8557L93.7626 19.0758C94.1993 19.7361 95.0729 19.8829 95.7281 19.3693C96.3832 18.9291 96.5288 18.0487 96.0921 17.3884L95.9465 17.1683L93.617 18.8557Z" fill="black"/>
<path id="Vector_25" d="M16.5978 84.3732L19.5097 81.8054C19.6553 81.6586 19.8737 81.6586 20.0193 81.8054C20.1648 81.9521 20.1648 82.1722 20.0193 82.3189L18.8545 83.3461L19.9465 84.5933L21.1112 83.5662C21.2568 83.4195 21.4752 83.4195 21.6208 83.5662C21.7664 83.7129 21.7664 83.933 21.6208 84.0798L18.7089 86.6476C18.5633 86.7944 18.3449 86.7944 18.1993 86.6476C18.0537 86.5009 18.0537 86.2808 18.1993 86.1341L19.3641 85.1069L18.2721 83.8597L17.1074 84.8868C16.9618 85.0335 16.7434 85.0335 16.5978 84.8868C16.3794 84.7401 16.4522 84.52 16.5978 84.3732Z" fill="black"/>
<path id="Vector_26" d="M18.4178 86.9418C18.2722 86.9418 18.1266 86.8684 18.0538 86.795C17.981 86.7217 17.9082 86.5749 17.9082 86.4282C17.9082 86.2815 17.981 86.1347 18.0538 86.0614L19.1458 85.1076L18.1994 84.0804L17.1075 85.0342C17.0347 85.1076 16.8891 85.1809 16.7435 85.1809C16.5979 85.1809 16.4523 85.1076 16.3795 85.0342C16.3067 84.9608 16.2339 84.8141 16.2339 84.6674C16.2339 84.5206 16.3067 84.3739 16.3795 84.3005L19.2914 81.7327C19.3642 81.6593 19.5097 81.5859 19.6553 81.5859C19.8009 81.5859 19.9465 81.6593 20.0193 81.7327C20.0921 81.806 20.1649 81.9528 20.1649 82.0995C20.1649 82.2462 20.0921 82.393 20.0193 82.4664L18.9274 83.4201L19.8737 84.4473L20.9657 83.4935C21.0385 83.4201 21.1841 83.3468 21.3297 83.3468C21.4753 83.3468 21.6209 83.4201 21.6937 83.4935C21.912 83.7136 21.8393 84.0071 21.6209 84.2272L18.709 86.795C18.6362 86.9418 18.5634 86.9418 18.4178 86.9418ZM18.2722 83.6402L19.5825 85.1076L18.2722 86.2815L18.1994 86.4282L18.2722 86.5749L18.4178 86.6483L18.5634 86.5749L21.4753 84.0071C21.5481 83.9337 21.5481 83.787 21.4753 83.7136L21.3297 83.6402L21.1841 83.7136L19.8737 84.8875L18.5634 83.4201L19.8737 82.2462L19.9465 82.0995L19.8737 81.9528L19.7281 81.8794L19.5825 81.9528L16.6707 84.5206L16.5979 84.6674L16.6707 84.8141L16.8163 84.8875L16.9619 84.8141L18.2722 83.6402Z" fill="black"/>
<path id="Vector_27" d="M24.2414 86.5752C24.387 86.4285 24.6054 86.3551 24.751 86.5019C24.8966 86.6486 24.9694 86.8687 24.8238 87.0154L22.4215 90.0235C22.2759 90.1702 22.0575 90.1702 21.9119 90.0969C21.7663 89.9501 21.6935 89.73 21.8391 89.5833L24.2414 86.5752Z" fill="black"/>
<path id="Vector_28" d="M22.1301 90.3877C21.9845 90.3877 21.9117 90.3143 21.8389 90.241C21.6205 90.0942 21.5477 89.7274 21.7661 89.5073L24.1684 86.4992C24.314 86.2791 24.678 86.2058 24.8964 86.4259C24.9692 86.4992 25.042 86.646 25.1148 86.7927C25.1148 86.9394 25.1148 87.0862 25.042 87.1595L22.6397 90.1676C22.4213 90.241 22.2757 90.3143 22.1301 90.3877ZM24.314 86.646L21.9117 89.654C21.8389 89.7274 21.8389 89.8741 21.9117 89.9475L22.0573 90.0209L22.2029 89.9475L24.6052 86.9394L24.678 86.7927L24.6052 86.646C24.5324 86.5726 24.4596 86.5726 24.314 86.646Z" fill="black"/>
<path id="Vector_29" d="M26.7165 90.6835C27.2989 89.5096 28.7548 89.0694 29.9196 89.7297C30.4292 90.0232 30.7932 90.3901 31.0116 90.9036C31.0843 91.1237 31.0116 91.3438 30.7932 91.4172C30.5748 91.4906 30.3564 91.4172 30.2836 91.1971C30.138 90.9036 29.9196 90.6102 29.5556 90.39C29.1188 90.1699 28.6821 90.0966 28.3181 90.2433C27.8813 90.3901 27.5901 90.6102 27.3717 91.0504C27.1533 91.4172 27.1533 91.8574 27.2989 92.2976C27.4445 92.7378 27.6629 93.0313 28.0997 93.2514C28.3909 93.3981 28.682 93.4715 28.9732 93.4715L29.41 92.6644L28.6093 92.2242C28.4637 92.1509 28.3909 91.9308 28.4637 91.7107C28.5365 91.4906 28.7548 91.4906 28.9732 91.5639L30.138 92.1509C30.3564 92.2242 30.4292 92.4443 30.2836 92.6644L29.6284 93.9117L29.5556 93.9851C29.4828 94.0584 29.4828 94.0584 29.3372 94.0584C28.8276 94.1318 28.2453 94.0584 27.8085 93.8383C26.4981 93.3248 26.0614 91.8574 26.7165 90.6835Z" fill="black"/>
<path id="Vector_30" d="M28.8276 94.3488C28.3908 94.3488 28.0269 94.2754 27.6629 94.0553C27.0805 93.7618 26.6437 93.1749 26.4253 92.5879C26.2069 91.9276 26.2797 91.2673 26.5709 90.6804C27.2261 89.4331 28.7548 88.9929 29.9924 89.6532C30.502 89.9467 30.9387 90.3869 31.1571 90.9005C31.2299 91.0472 31.2299 91.194 31.1571 91.2673C31.0843 91.4141 31.0115 91.4874 30.8659 91.5608C30.7203 91.6342 30.5747 91.6342 30.4292 91.5608C30.2836 91.4874 30.2108 91.4141 30.138 91.2673C29.9924 90.9739 29.774 90.6804 29.4828 90.5336C29.1188 90.3135 28.682 90.3135 28.318 90.3869C27.9541 90.4603 27.5901 90.7537 27.4445 91.1206C27.2989 91.4874 27.2261 91.8543 27.3717 92.2211C27.5173 92.5879 27.7357 92.9548 28.0997 93.1015C28.318 93.2482 28.6092 93.3216 28.8276 93.3216L29.1188 92.7347L28.3908 92.3678C28.2452 92.2945 28.1724 92.2211 28.1724 92.0744C28.0997 91.9276 28.1724 91.7809 28.2452 91.7075C28.3908 91.4874 28.682 91.3407 28.9732 91.4874L30.138 92.0744C30.4292 92.2211 30.502 92.5146 30.3564 92.808L29.7012 94.0553L29.6284 94.1287L29.5556 94.202C29.4828 94.2754 29.41 94.2754 29.2644 94.3488C29.1188 94.3488 28.9732 94.3488 28.8276 94.3488ZM28.7548 89.5799C27.9541 89.5799 27.2261 90.0201 26.7893 90.7537C26.4981 91.2673 26.4253 91.8543 26.6437 92.4412C26.7893 93.0281 27.2261 93.4684 27.7357 93.7618C28.1724 93.9819 28.682 94.0553 29.1916 93.9819H29.2644L29.9196 92.7347C29.9924 92.5879 29.9196 92.5146 29.8468 92.4412L28.682 91.8543C28.5364 91.7809 28.4636 91.8543 28.3908 91.9276V92.0744L28.4636 92.2211L29.41 92.7347L28.9004 93.7618H28.8276C28.4636 93.7618 28.1724 93.6885 27.8813 93.5417C27.4445 93.3216 27.1533 92.9548 27.0077 92.4412C26.8621 92.001 26.9349 91.4874 27.0805 91.1206C27.2989 90.6804 27.6629 90.3869 28.1724 90.2402C28.6092 90.0934 29.1188 90.1668 29.5556 90.3869C29.9196 90.607 30.2108 90.9005 30.3564 91.2673L30.502 91.4141H30.6475L30.7931 91.2673V91.1206C30.5747 90.6804 30.2108 90.2402 29.774 90.0201C29.4828 89.7266 29.1188 89.5799 28.7548 89.5799Z" fill="black"/>
<path id="Vector_31" d="M33.268 96.0371L34.4328 92.3687C34.5056 92.1486 34.724 92.0752 34.8696 92.1486C35.0879 92.222 35.1607 92.4421 35.0879 92.5888L34.5784 94.0562L36.1799 94.5697L36.6895 93.1024C36.7623 92.8823 36.9807 92.8089 37.1263 92.8823C37.3446 92.9556 37.4174 93.1758 37.3446 93.3225L36.1799 96.9909C36.1071 97.211 35.8887 97.2843 35.7431 97.211C35.5247 97.1376 35.4519 96.9175 35.5247 96.7708L36.0343 95.3034L34.4328 94.7898L33.9232 96.2572C33.8504 96.4773 33.632 96.5507 33.4864 96.4773C33.268 96.4039 33.1952 96.2572 33.268 96.0371Z" fill="black"/>
<path id="Vector_32" d="M35.8887 97.4304H35.7431C35.4519 97.357 35.3063 97.0635 35.4519 96.7701L35.8887 95.3761L34.5783 94.9359L34.1415 96.3299C34.0687 96.4766 33.9959 96.55 33.9231 96.6233C33.7776 96.6967 33.632 96.6967 33.5592 96.6233C33.4136 96.55 33.3408 96.4766 33.268 96.4032C33.1952 96.2565 33.1952 96.1098 33.268 96.0364L34.4327 92.368C34.5055 92.2213 34.5783 92.1479 34.6511 92.0746C34.7967 92.0012 34.9423 92.0012 35.0151 92.0746C35.1607 92.1479 35.2335 92.2213 35.3063 92.2947C35.3791 92.4414 35.3791 92.5881 35.3063 92.6615L34.8695 94.0555L36.1799 94.4957L36.6166 93.1017C36.6894 92.955 36.7622 92.8816 36.835 92.8082C36.9806 92.7349 37.1262 92.7349 37.199 92.8082C37.3446 92.8816 37.4174 92.955 37.4902 93.0283C37.563 93.1751 37.563 93.3218 37.4902 93.3952L36.3254 97.0636C36.2527 97.2103 36.1799 97.2837 36.0343 97.357C36.0343 97.357 35.9615 97.4304 35.8887 97.4304ZM34.3599 94.569L36.2526 95.156L35.6703 96.8434C35.5975 96.9902 35.6703 97.0635 35.8159 97.1369C35.9615 97.2103 36.0343 97.1369 36.1071 96.9902L37.2718 93.3218C37.3446 93.1751 37.2718 93.1017 37.1262 93.0283H36.9806L36.9078 93.1751L36.3982 94.7892L34.5055 94.2022L35.0151 92.5881V92.4414L34.8695 92.368H34.7239L34.6511 92.5148L33.4864 96.1831V96.3299L33.632 96.4032H33.7776L33.8504 96.2565L34.3599 94.569Z" fill="black"/>
<path id="Vector_33" d="M40.5479 98.093L41.2758 94.2778C41.2758 94.0577 41.4942 93.9844 41.7126 93.9844L43.8237 94.3512C44.0421 94.3512 44.1149 94.5713 44.1149 94.7914C44.0421 95.0115 43.8965 95.1583 43.6781 95.0849L41.931 94.7914L41.7126 95.9653L43.2413 96.2588C43.4597 96.2588 43.5325 96.4789 43.5325 96.699C43.4597 96.9191 43.3141 97.0658 43.0957 96.9924L41.567 96.699L41.3486 97.8728L43.0957 98.1663C43.3141 98.1663 43.3869 98.3864 43.3869 98.6065C43.3869 98.8266 43.1685 98.9 42.9501 98.9L40.839 98.5332C40.6206 98.4598 40.5479 98.3131 40.5479 98.093Z" fill="black"/>
<path id="Vector_34" d="M43.0232 99.0459H42.9504L40.8392 98.679H40.7664C40.5481 98.6057 40.3297 98.3856 40.4025 98.0921L41.1304 94.277C41.1304 94.1303 41.2032 94.0569 41.3488 93.9835C41.4216 93.9102 41.5672 93.9102 41.7128 93.9102L43.8239 94.277C43.9695 94.277 44.0423 94.3504 44.1151 94.4971C44.1879 94.6438 44.1879 94.7172 44.1879 94.8639C44.1151 95.1574 43.8967 95.3041 43.6055 95.3041L42.004 95.0107L41.8584 95.8911L43.2415 96.1112C43.5327 96.1846 43.6783 96.4047 43.6783 96.6981C43.6055 96.9916 43.3871 97.1383 43.0959 97.1383L41.7128 96.9182L41.5672 97.7986L43.1687 98.0921C43.3143 98.0921 43.3871 98.1655 43.4599 98.3122C43.5327 98.4589 43.5327 98.5323 43.5327 98.679C43.5327 98.8258 43.4599 98.8991 43.3143 98.9725C43.2415 99.0459 43.0959 99.0459 43.0232 99.0459ZM41.0576 98.3856L43.0232 98.7524H43.1687L43.2415 98.6057L43.1687 98.4589L43.0232 98.3856L41.1304 98.0187L41.4216 96.5514L43.0959 96.8449C43.2415 96.8449 43.3143 96.7715 43.3143 96.6981C43.3143 96.5514 43.2415 96.478 43.1687 96.478L41.4944 96.1846L41.7856 94.7172L43.6783 95.084C43.8239 95.084 43.8967 95.0107 43.8967 94.9373V94.7906L43.7511 94.7172L41.64 94.3504C41.5672 94.3504 41.4944 94.3504 41.4944 94.3504L41.4216 94.4971L40.6937 98.3122C40.6937 98.3856 40.6936 98.5323 40.8392 98.5323L41.0576 98.3856Z" fill="black"/>
<path id="Vector_35" d="M47.1723 98.3126C47.3179 98.1658 47.5363 98.1658 47.6818 98.3126C47.973 98.6061 48.4098 98.8995 48.9194 98.8995C49.2106 98.8995 49.5746 98.8262 49.7202 98.7528C49.9386 98.6061 50.0113 98.4593 50.0113 98.3126C50.0113 98.2392 50.0113 98.1658 49.9386 98.0925C49.9386 98.0191 49.8658 97.9457 49.793 97.8724C49.6474 97.7256 49.2834 97.5789 48.9194 97.5055C48.6282 97.4322 48.337 97.2854 48.1186 97.2121C47.9002 97.0653 47.6818 96.9186 47.5363 96.6251C47.4635 96.4784 47.3907 96.2583 47.4635 96.0382C47.4635 95.6713 47.7546 95.3045 48.0458 95.1578C48.337 94.9377 48.7738 94.8643 49.2106 94.9377C49.8658 95.011 50.3025 95.3045 50.5937 95.598C50.7393 95.7447 50.7393 95.9648 50.6665 96.0382C50.5209 96.1849 50.3753 96.1849 50.2297 96.1116C49.9386 95.8915 49.6474 95.6714 49.2106 95.598C48.9194 95.598 48.6282 95.6713 48.4826 95.7447C48.2642 95.8915 48.1914 95.9648 48.1914 96.1116C48.1914 96.1849 48.1914 96.2583 48.1914 96.3317C48.1914 96.405 48.2642 96.4784 48.337 96.5518C48.4826 96.6985 48.7738 96.8452 49.1378 96.9186C49.429 96.992 49.793 97.1387 50.0113 97.2854C50.3025 97.4322 50.5209 97.6523 50.5937 97.8724C50.6665 98.0191 50.7393 98.2392 50.7393 98.4593C50.7393 98.8995 50.4481 99.193 50.0841 99.4131C49.7202 99.6332 49.2834 99.7066 48.8466 99.7066C48.1186 99.6332 47.6091 99.2664 47.2451 98.8995C47.0267 98.6794 47.0267 98.4593 47.1723 98.3126Z" fill="black"/>
<path id="Vector_36" d="M48.9926 99.7781C48.9198 99.7781 48.847 99.7781 48.7742 99.7781C48.0462 99.7047 47.4638 99.2645 47.0998 98.971C46.8814 98.7509 46.8814 98.4574 47.0998 98.3107C47.3182 98.0906 47.6094 98.0906 47.755 98.3107C47.9734 98.5308 48.483 98.8243 48.847 98.8977C49.1381 98.8977 49.4293 98.8977 49.5749 98.7509C49.7205 98.6776 49.7933 98.5308 49.7933 98.3841V98.2373C49.7933 98.164 49.7205 98.0906 49.6477 98.0906C49.5021 97.9439 49.2109 97.7971 48.847 97.7238C48.483 97.6504 48.1918 97.5037 47.9734 97.3569C47.6822 97.2102 47.4638 96.9901 47.3182 96.77C47.2454 96.5499 47.1726 96.3298 47.1726 96.1097C47.1726 95.6695 47.4638 95.3026 47.8278 95.0825C48.1918 94.8624 48.6286 94.7891 49.0653 94.7891C49.7205 94.8624 50.1573 95.2293 50.5213 95.4494C50.7397 95.6695 50.8125 95.9629 50.5941 96.1097C50.5213 96.183 50.3757 96.2564 50.3029 96.2564C50.1573 96.2564 50.0117 96.2564 49.9389 96.1831C49.6477 95.963 49.3565 95.7428 48.9926 95.7428C48.7742 95.7428 48.483 95.7428 48.3374 95.8896C48.2646 95.9629 48.119 96.0363 48.119 96.1831V96.2564C48.119 96.2564 48.1918 96.3298 48.2646 96.4031C48.4102 96.5499 48.7014 96.6233 48.9926 96.6966C49.3565 96.8434 49.6477 96.9167 49.9389 97.0635C50.2301 97.2836 50.4485 97.5037 50.5941 97.7238C50.6669 97.9439 50.7397 98.164 50.7397 98.3841C50.7397 98.8243 50.4485 99.1911 50.0117 99.4846C49.7933 99.6313 49.3565 99.7781 48.9926 99.7781ZM47.2454 98.3841C47.1726 98.4574 47.1726 98.6042 47.2454 98.6775C47.6094 98.971 48.119 99.3379 48.7742 99.4112C49.2109 99.4112 49.5749 99.3379 49.9389 99.1911C50.3029 98.971 50.5213 98.6775 50.5213 98.3107C50.5213 98.164 50.5213 97.9439 50.4485 97.7971C50.3757 97.577 50.1573 97.4303 49.8661 97.2836C49.6477 97.1368 49.3565 97.0635 48.9926 96.9167C48.6286 96.8434 48.3374 96.6966 48.119 96.5499C48.0462 96.4765 47.9734 96.4032 47.9006 96.3298C47.8278 96.2564 47.8278 96.183 47.8278 96.0363C47.8278 95.8896 47.9006 95.6695 48.1918 95.5227C48.4102 95.376 48.7014 95.3026 48.9926 95.376C49.4293 95.376 49.7205 95.6695 50.0845 95.8896L50.2301 95.9629L50.3757 95.8896C50.4485 95.8162 50.4485 95.6695 50.3757 95.5961C50.0845 95.376 49.6477 95.0092 49.0653 95.0092C48.7014 95.0092 48.2646 95.0825 47.9734 95.2293C47.6822 95.4494 47.4638 95.7428 47.4638 96.0363C47.4638 96.183 47.4638 96.3298 47.5366 96.4765C47.6094 96.6966 47.8278 96.8434 48.0462 96.9901C48.2646 97.1368 48.483 97.2102 48.847 97.2836C49.2837 97.3569 49.5749 97.5037 49.7933 97.7238C49.8661 97.7971 49.9389 97.8705 50.0117 98.0172C50.0845 98.0906 50.0845 98.2373 50.0845 98.3107C50.0845 98.4574 50.0117 98.6775 49.7205 98.8977C49.5021 99.0444 49.1381 99.1178 48.7742 99.1178C48.2646 99.1178 47.755 98.7509 47.4638 98.4574C47.4638 98.3107 47.3182 98.3107 47.2454 98.3841Z" fill="black"/>
<path id="Vector_37" d="M57.0727 96.0384H56.0535V99.56C56.0535 99.7801 55.9079 99.9268 55.6895 99.9268C55.4711 99.9268 55.3255 99.7801 55.3255 99.56V96.0384H54.3064C54.088 96.0384 53.9424 95.8916 53.9424 95.6715C53.9424 95.4514 54.088 95.3047 54.3064 95.3047H57.0727C57.291 95.3047 57.4366 95.4514 57.4366 95.6715C57.4366 95.8183 57.291 96.0384 57.0727 96.0384Z" fill="black"/>
<path id="Vector_38" d="M55.6896 100.002C55.3984 100.002 55.18 99.7815 55.18 99.488V96.1131H54.3065C54.1609 96.1131 54.0153 96.0397 53.9425 95.9663C53.8697 95.893 53.7969 95.7462 53.7969 95.5995C53.7969 95.4528 53.8697 95.306 53.9425 95.2327C54.0153 95.1593 54.1609 95.0859 54.3065 95.0859H57.0727C57.3639 95.0859 57.5823 95.306 57.5823 95.5995C57.5823 95.893 57.3639 96.1131 57.0727 96.1131H56.1992V99.488C56.1992 99.6347 56.1264 99.7815 56.0536 99.8548C55.9808 100.002 55.8352 100.002 55.6896 100.002ZM54.3065 95.4528L54.1609 95.5261L54.0881 95.6729L54.1609 95.8196L54.3065 95.893H55.4712V99.5614C55.4712 99.7081 55.544 99.7815 55.6896 99.7815L55.8352 99.7081L55.908 99.5614V95.893H57.0727C57.2183 95.893 57.2911 95.8196 57.2911 95.6729C57.2911 95.5261 57.2183 95.4528 57.0727 95.4528H54.3065Z" fill="black"/>
<path id="Vector_39" d="M69.0114 98.2387C69.0842 98.3855 69.0114 98.6056 68.8658 98.7523L68.7202 98.8257C68.6474 98.8257 68.5746 98.8257 68.429 98.8257C68.3562 98.7523 68.2834 98.6789 68.2106 98.6056C68.065 98.4588 67.9922 98.2387 67.9922 97.8719C67.9922 97.7252 67.9194 97.6518 67.8466 97.5784C67.7738 97.5051 67.701 97.4317 67.6282 97.4317C67.4827 97.3583 67.3371 97.3583 67.2643 97.3583L66.5363 97.5051L66.7547 98.8991C66.7547 99.1192 66.6819 99.2659 66.4635 99.3392C66.2451 99.3392 66.0995 99.2659 66.0267 99.0458L65.4443 95.2307C65.4443 95.0106 65.5171 94.8638 65.7355 94.7905L66.9003 94.6437C67.701 94.497 68.3562 95.0839 68.5018 95.8176C68.5746 96.2578 68.429 96.6247 68.1378 96.9915C68.2106 97.0649 68.3562 97.1382 68.429 97.2116C68.5746 97.3583 68.7202 97.5784 68.7202 97.8719C68.7202 98.092 68.793 98.1654 68.793 98.2387C68.8658 98.092 68.9386 98.1654 69.0114 98.2387ZM67.701 95.8176C67.6282 95.4508 67.3371 95.1573 66.9003 95.2307L66.0995 95.3774L66.3179 96.698L67.1187 96.5513C67.5554 96.4779 67.7738 96.1845 67.701 95.8176Z" fill="black"/>
<path id="Vector_40" d="M66.318 99.3401C66.0996 99.3401 65.8812 99.1934 65.8084 98.8999L65.226 95.0848C65.1532 94.7913 65.3716 94.5712 65.6628 94.4978L66.8276 94.3511C67.2643 94.2777 67.6283 94.4245 67.9923 94.6446C68.3563 94.8647 68.5747 95.2315 68.5747 95.6717C68.6475 96.0386 68.5747 96.4788 68.2835 96.7722L68.4291 96.919C68.6475 97.1391 68.7203 97.3592 68.7931 97.6527C68.7931 97.726 68.7931 97.8728 68.8659 97.9461C69.0115 98.0195 69.0843 98.0929 69.1571 98.1662C69.2299 98.313 69.2299 98.4597 69.1571 98.5331C69.0843 98.6798 69.0115 98.7532 68.9387 98.8265C68.8659 98.8265 68.8659 98.8999 68.7203 98.8999C68.6475 98.8999 68.5019 98.8999 68.3563 98.8265C68.2107 98.7532 68.1379 98.6798 68.0651 98.6064C67.9195 98.3863 67.8467 98.1662 67.7739 97.7994C67.7739 97.726 67.7011 97.6527 67.7011 97.5793C67.7011 97.5793 67.6283 97.5059 67.5555 97.4326C67.4099 97.3592 67.2643 97.3592 67.1915 97.3592L66.6092 97.4326L66.8276 98.6798C66.8276 98.8265 66.8276 98.9733 66.7548 99.0466C66.682 99.12 66.5364 99.1934 66.3908 99.2667L66.318 99.3401ZM67.0459 94.6446H66.8276L65.6628 94.7913C65.5172 94.7913 65.4444 94.9381 65.4444 95.0114L66.0268 98.8265C66.0268 98.9733 66.1724 99.0466 66.2452 98.9733L66.3908 98.8999L66.4636 98.7532L66.2452 97.2124L67.1187 97.0657C67.2643 97.0657 67.4099 97.0657 67.5555 97.2124C67.7011 97.2858 67.7739 97.3592 67.8467 97.4326C67.9195 97.5059 67.9923 97.6527 67.9923 97.726C68.0651 98.0195 68.1379 98.2396 68.2107 98.4597L68.3563 98.6064C68.4291 98.6064 68.5019 98.6064 68.5747 98.6064H68.7203L68.7931 98.4597V98.313L68.6475 98.1662H68.5747V98.0929C68.5019 97.9461 68.5019 97.8728 68.5019 97.6527C68.5019 97.4326 68.3563 97.2124 68.2107 97.0657C68.1379 96.9923 68.0651 96.919 67.9923 96.919L67.8467 96.8456L67.9923 96.6989C68.2107 96.4054 68.3563 96.0386 68.2835 95.6717C68.2107 95.3049 68.0651 95.0114 67.7739 94.8647C67.5555 94.718 67.3371 94.6446 67.0459 94.6446ZM66.2452 96.8456L66.0268 95.2315L66.9732 95.0848C67.1915 95.0848 67.4099 95.0848 67.5555 95.2315C67.7011 95.3783 67.8467 95.525 67.8467 95.7451C67.9195 96.1853 67.6283 96.6255 67.1915 96.6989L66.2452 96.8456ZM66.318 95.4516L66.4636 96.4788L67.1187 96.4054C67.4099 96.332 67.6283 96.1119 67.5555 95.8185C67.5555 95.6717 67.4827 95.525 67.3371 95.4516C67.1915 95.3783 67.1187 95.3049 66.9732 95.3783L66.318 95.4516Z" fill="black"/>
<path id="Vector_41" d="M74.9809 96.2578L73.4522 96.698L73.3794 97.5784C73.3794 97.7252 73.2338 97.8719 73.0882 97.8719H72.9426C72.7242 97.8719 72.5786 97.6518 72.5786 97.505L72.9426 93.3965C72.9426 93.2497 73.0882 93.103 73.2338 93.103C73.3794 93.0296 73.525 93.103 73.5978 93.2497L76.0001 96.6246C76.1457 96.7714 76.0729 96.9915 75.9273 97.1382L75.7817 97.2116C75.6361 97.285 75.4905 97.2116 75.4177 97.0649L74.9809 96.2578ZM74.5441 95.6709L73.6706 94.4236L73.525 95.9643L74.5441 95.6709Z" fill="black"/>
<path id="Vector_42" d="M73.0154 98.0942C72.7243 98.0942 72.5059 97.8007 72.5059 97.5073L72.8698 93.3987C72.8698 93.1786 73.0882 93.0318 73.2338 92.9585C73.4522 92.8851 73.6706 92.9585 73.7434 93.1052L76.1457 96.4801C76.2913 96.7002 76.2913 97.0671 76.0001 97.2138L75.8545 97.2872C75.6361 97.3605 75.4177 97.2872 75.3449 97.0671L74.8354 96.4067L73.525 96.7736L73.4522 97.5806C73.4522 97.8007 73.3066 97.9475 73.0882 98.0208L73.0154 98.0942ZM73.3794 93.2519C73.2338 93.2519 73.161 93.3987 73.161 93.472L72.797 97.5806C72.797 97.7274 72.8698 97.8007 73.0154 97.8007H73.0882C73.161 97.8007 73.2338 97.7274 73.2338 97.5806L73.3066 96.5535L75.0538 96.0399L75.6361 96.847C75.7089 96.9203 75.7817 96.9203 75.8545 96.9203H75.9273C76.0001 96.847 76.0729 96.7002 76.0001 96.6268L73.5978 93.2519H73.3794ZM73.3794 96.1133L73.5978 93.9856L74.8354 95.6731L73.3794 96.1133ZM73.7434 94.866L73.6706 95.7464L74.253 95.5997L73.7434 94.866Z" fill="black"/>
<path id="Vector_43" d="M80.368 91.2699L79.4216 91.7101L80.8048 94.9382C80.8776 95.1583 80.8048 95.3051 80.5864 95.3784C80.4408 95.4518 80.2224 95.3784 80.1496 95.1583L78.7664 91.9302L77.8201 92.3704C77.6017 92.4437 77.4561 92.3704 77.3105 92.1503C77.2377 91.9302 77.3105 91.7834 77.5289 91.7101L80.0768 90.6095C80.2224 90.5362 80.4408 90.6095 80.5136 90.8296C80.6592 90.9764 80.5136 91.1965 80.368 91.2699Z" fill="black"/>
<path id="Vector_44" d="M80.4408 95.5965C80.2224 95.5965 80.0768 95.4497 80.004 95.303L78.6936 92.2216L77.8929 92.5884C77.7473 92.6618 77.6017 92.6618 77.5289 92.5884C77.3833 92.515 77.3105 92.4417 77.2377 92.295C77.1649 92.1482 77.1649 92.0015 77.2377 91.9281C77.3105 91.7814 77.3833 91.708 77.5289 91.6346L80.0768 90.5341C80.368 90.3874 80.6592 90.5341 80.732 90.8276C80.8048 91.1211 80.732 91.4145 80.4408 91.4879L79.64 91.8547L80.9503 94.9362C81.0231 95.0829 81.0231 95.2296 80.9503 95.303C80.8775 95.4497 80.8048 95.5231 80.6592 95.5965H80.4408ZM78.8392 91.7814L80.2952 95.1563C80.368 95.303 80.4408 95.303 80.5864 95.303L80.732 95.1563V95.0095L79.276 91.6346L80.368 91.1944C80.4408 91.1211 80.5136 91.0477 80.5136 90.901C80.4408 90.7542 80.368 90.7542 80.2224 90.7542L77.6745 91.8547L77.5289 92.0015V92.1482L77.6745 92.295H77.8201L78.8392 91.7814Z" fill="black"/>
<path id="Vector_45" d="M85.6822 92.3701L83.5711 89.1419C83.4255 88.9952 83.4983 88.7751 83.6439 88.6283L85.391 87.4544C85.5366 87.3811 85.755 87.3811 85.9006 87.5278C86.0462 87.6745 85.9734 87.8946 85.8278 88.0414L84.3718 88.9952L85.027 90.0223L86.3373 89.2153C86.4829 89.1419 86.7013 89.1419 86.8469 89.2886C86.9925 89.4354 86.9197 89.6555 86.7741 89.8022L85.4638 90.6092L86.119 91.6364L87.5749 90.6826C87.7205 90.6092 87.9389 90.6093 88.0845 90.8294C88.1573 90.9761 88.1573 91.1962 88.0117 91.3429L86.2645 92.5168C86.0462 92.5902 85.8278 92.5902 85.6822 92.3701Z" fill="black"/>
<path id="Vector_46" d="M86.046 92.7378C85.9004 92.7378 85.7548 92.6644 85.6092 92.5177L83.4981 89.2895C83.3525 89.0694 83.4253 88.7759 83.6437 88.5558L85.4636 87.382C85.6092 87.3086 85.682 87.3086 85.8276 87.3086C85.9732 87.3086 86.046 87.382 86.1188 87.5287C86.1916 87.6754 86.1916 87.7488 86.1916 87.8955C86.1916 88.0423 86.1188 88.1156 85.9732 88.189L84.5901 89.0694L85.0996 89.8031L86.2644 89.0694C86.41 88.996 86.4828 88.9961 86.6284 88.9961C86.774 88.9961 86.8468 89.0694 86.9196 89.2161C86.9924 89.3629 86.9924 89.4363 86.9924 89.583C86.9924 89.7297 86.9196 89.8031 86.774 89.8765L85.6092 90.6101L86.1188 91.3438L87.5019 90.4634C87.7203 90.3167 88.0843 90.39 88.2299 90.6101C88.3755 90.8302 88.3027 91.1971 88.0843 91.3438L86.2644 92.5177L86.1916 92.5911L86.046 92.7378ZM85.8276 92.2976C85.9004 92.371 85.9732 92.4443 86.046 92.371L86.1188 92.1509L86.2644 92.2976L87.9387 91.1971C88.0115 91.1237 88.0843 90.977 88.0115 90.9036C87.9387 90.8302 87.7931 90.7569 87.7203 90.8302L86.1188 91.8574L85.318 90.6101L86.7012 89.6564L86.774 89.5096V89.3629L86.6284 89.2895H86.4828L85.0996 90.2433L84.2989 88.9961L85.9004 87.9689L85.9732 87.8222V87.6754L85.8276 87.6021H85.682L83.9349 88.7759C83.7893 88.8493 83.7893 88.996 83.8621 89.0694L85.8276 92.2976Z" fill="black"/>
<path id="Vector_47" d="M90.7052 87.7475C90.7052 87.5274 90.8507 87.3807 90.9963 87.3807C91.3603 87.3807 91.9427 87.1606 92.2339 86.8671C92.4523 86.647 92.5979 86.3535 92.6707 86.1334C92.7435 85.9133 92.6707 85.6932 92.5251 85.6198C92.4523 85.5465 92.3795 85.5465 92.3067 85.5465C92.2339 85.5465 92.1611 85.5465 92.0155 85.5465C91.7971 85.6198 91.5059 85.7666 91.1419 85.9867C90.8507 86.1334 90.6324 86.2802 90.3412 86.4269C90.05 86.5003 89.8316 86.5736 89.5404 86.5003C89.3948 86.4269 89.1764 86.3535 89.0308 86.2068C88.7396 85.9133 88.6668 85.5465 88.7396 85.1796C88.8124 84.8128 89.0308 84.446 89.322 84.1525C89.7588 83.7123 90.3412 83.6389 90.7052 83.4922C90.8507 83.4922 91.0691 83.5656 91.0691 83.7857C91.1419 83.9324 90.9963 84.1525 90.7779 84.1525C90.414 84.2259 90.05 84.2992 89.7588 84.5927C89.5404 84.8128 89.3948 85.0329 89.3948 85.253C89.3948 85.4731 89.3948 85.6198 89.5404 85.6932L89.686 85.7666C89.7588 85.7666 89.8316 85.7666 89.9044 85.7666C90.1228 85.7666 90.414 85.6198 90.7052 85.3997C90.9963 85.1796 91.2875 85.0329 91.5059 84.9595C91.7971 84.8862 92.0883 84.8128 92.3795 84.8862C92.5251 84.9595 92.7435 85.0329 92.8891 85.1796C93.1802 85.4731 93.253 85.9133 93.1802 86.2802C93.1075 86.647 92.8891 87.0872 92.5979 87.3807C92.0883 87.8942 91.4331 88.041 90.9235 88.1143C90.9235 88.041 90.7052 87.8942 90.7052 87.7475Z" fill="black"/>
<path id="Vector_48" d="M91.0688 88.1891C90.8504 88.1891 90.632 87.969 90.5592 87.7489C90.5592 87.6021 90.5592 87.5288 90.7048 87.382C90.7776 87.3087 90.9232 87.2353 91.0688 87.2353C91.4327 87.2353 91.9423 87.0886 92.2335 86.7951C92.4519 86.575 92.5975 86.3549 92.5975 86.1348C92.5975 85.988 92.5975 85.8413 92.5247 85.6946L92.3791 85.6212C92.3063 85.6212 92.2335 85.6212 92.1607 85.6212C91.9423 85.6946 91.6511 85.7679 91.3599 85.988C91.0688 86.2081 90.7776 86.3549 90.5592 86.4282C90.268 86.5016 89.9768 86.575 89.6856 86.5016C89.4672 86.4282 89.3216 86.3549 89.1032 86.2081C88.8121 85.9147 88.6665 85.4745 88.7393 85.0343C88.8121 84.5941 89.0304 84.2272 89.3216 83.9337C89.7584 83.4935 90.3408 83.3468 90.7776 83.2734C90.9232 83.2734 91.0688 83.2734 91.1415 83.3468C91.2143 83.4202 91.2871 83.5669 91.3599 83.6403C91.3599 83.787 91.3599 83.8604 91.2871 84.0071C91.2143 84.0805 91.1416 84.1539 90.996 84.2272C90.632 84.3006 90.268 84.374 90.0496 84.5941C89.904 84.7408 89.7584 84.9609 89.7584 85.181C89.7584 85.3277 89.7584 85.4745 89.8312 85.5478L89.904 85.6212C89.904 85.6212 89.9768 85.6212 90.1224 85.6212C90.3408 85.6212 90.5592 85.4745 90.8504 85.2544C91.2144 85.0343 91.5055 84.8875 91.7239 84.8142C92.0879 84.6674 92.3791 84.6674 92.6703 84.7408C92.8887 84.8142 93.1071 84.8875 93.2527 85.0343C93.5439 85.3277 93.6894 85.7679 93.6167 86.2815C93.5439 86.7217 93.3255 87.1619 92.9615 87.4554C92.3063 87.969 91.5783 88.1157 91.0688 88.1891ZM90.8504 87.7489C90.8504 87.8222 90.996 87.969 91.0688 87.8956C91.5055 87.8222 92.1607 87.6755 92.5975 87.2353C92.8887 86.9418 93.1071 86.575 93.1799 86.2081C93.2527 85.8413 93.1799 85.4745 92.8887 85.181C92.7431 85.0343 92.5975 84.9609 92.4519 84.9609C92.2335 84.8875 92.0151 84.9609 91.6511 85.0343C91.4327 85.1076 91.1416 85.2544 90.8504 85.4745C90.5592 85.6946 90.1952 85.8413 89.9768 85.8413C89.8312 85.8413 89.7584 85.8413 89.6856 85.8413C89.6128 85.8413 89.54 85.7679 89.4672 85.6946C89.3944 85.6212 89.2488 85.4011 89.3216 85.1076C89.3944 84.8142 89.54 84.5941 89.7584 84.374C90.0496 84.0805 90.4136 84.0071 90.8504 83.8604L90.996 83.787V83.6403L90.9232 83.4935H90.7776C90.4136 83.5669 89.904 83.7136 89.4672 84.0805C89.176 84.374 89.0304 84.6674 88.9576 85.0343C88.8848 85.4011 88.9576 85.7679 89.2488 85.988C89.3944 86.1348 89.54 86.2081 89.6856 86.2081C89.904 86.2815 90.1224 86.2081 90.4136 86.1348C90.632 86.0614 90.8504 85.9147 91.1415 85.7679C91.5055 85.5478 91.7967 85.4011 92.0879 85.3277C92.2335 85.3277 92.3063 85.3277 92.4519 85.3277C92.5247 85.3277 92.5975 85.4011 92.7431 85.4745C92.8159 85.6212 92.9615 85.7679 92.8887 86.1348C92.8159 86.4282 92.6703 86.7217 92.4519 86.9418C92.0879 87.3087 91.5055 87.4554 91.1415 87.5288C90.9232 87.5288 90.8504 87.6021 90.8504 87.7489Z" fill="black"/>
<path id="Vector_49" d="M4.00362 60.3064C4.80438 60.9667 5.60515 61.7004 6.40592 62.3607C7.27948 62.214 8.22584 62.0672 9.0994 61.8471C9.90017 60.8933 10.7009 59.9396 11.5017 59.0591C11.5017 57.5184 11.5017 56.0511 11.5017 54.5104C7.86185 52.5294 4.14921 50.4751 0.509363 48.2741C0.509363 45.7063 0.509363 43.065 0.509363 40.4972C1.9653 38.8831 3.42124 37.3424 4.87718 35.875C6.7699 35.875 8.73542 35.875 10.6281 35.875C12.0841 37.3424 13.54 38.663 14.996 40.0569C14.996 41.5243 14.996 42.9183 14.996 44.3856C13.7584 44.459 12.5209 44.5324 11.2833 44.6057C11.2833 43.5786 11.2833 42.6248 11.2833 41.5977C10.5553 40.864 9.75457 40.1303 9.0266 39.3966C8.15304 39.3966 7.27948 39.47 6.40592 39.47C5.67795 40.2771 4.87718 41.0841 4.14921 41.8911C4.14921 43.2851 4.14921 44.6791 4.14921 46.0731C7.78906 48.3475 11.4289 50.4018 15.1415 52.3827C15.1415 54.8772 15.1415 57.4451 15.1415 59.9396C13.6128 61.627 12.1569 63.3145 10.6281 65.0753C8.66262 65.4421 6.7699 65.8823 4.80438 66.2492C3.34844 65.0019 1.81971 63.7547 0.36377 62.5074C0.36377 60.5999 0.36377 58.7657 0.36377 56.8581C1.60132 56.638 2.83887 56.4913 4.00362 56.2712C4.00362 57.5918 4.00362 58.9858 4.00362 60.3064Z" fill="black"/>
<path id="Vector_50" d="M4.7318 66.6907L4.58621 66.544C3.05747 65.2967 1.52874 64.0495 0.0727969 62.7289L0 62.6555V56.4926L0.291188 56.4193C1.52874 56.1992 2.76628 56.0524 3.93103 55.8323H4.36782V60.161C5.09579 60.748 5.82375 61.4083 6.47893 61.9952C7.27969 61.8485 8.08046 61.7017 8.88123 61.555C9.6092 60.6746 10.41 59.7942 11.1379 58.9871V54.8052C7.27969 52.7509 3.71264 50.6966 0.291188 48.6423L0.145594 48.5689V40.4251L0.218391 40.3518C1.67433 38.8111 3.13027 37.197 4.659 35.7296L4.7318 35.6562H10.7739L10.9195 35.7296C12.3755 37.1236 13.8314 38.5176 15.2874 39.9116L15.433 39.9849V44.8272H15.069C13.8314 44.9006 12.5939 44.9739 11.3563 45.0473H10.9923V41.8191C10.3372 41.1588 9.6092 40.4985 8.95402 39.8382L6.69732 39.9116C6.04215 40.6452 5.31418 41.3789 4.659 42.1126V45.9277C8.00766 47.982 11.5747 50.0363 15.433 52.0906L15.6513 52.164V60.0877L15.433 60.161C13.9042 61.8485 12.3755 63.6093 10.9195 65.2968L10.8467 65.3701H10.7011C8.73563 65.737 6.77011 66.1772 4.87739 66.544L4.7318 66.6907ZM0.727969 62.2887C2.11111 63.4626 3.49425 64.6364 4.95019 65.8103C6.77011 65.4435 8.66284 65.0033 10.4828 64.7098C11.8659 63.0224 13.3946 61.3349 14.8506 59.7208V52.5308C10.9923 50.4031 7.42529 48.4222 4.07663 46.3679L3.85824 46.2212V41.6724L3.93103 41.599C4.659 40.792 5.45977 39.9849 6.18774 39.1779L6.26054 39.1045L9.17241 39.0312L9.31801 39.1045C10.046 39.8382 10.8467 40.5719 11.5747 41.3056L11.7203 41.3789V44.1669C12.7395 44.0935 13.6858 44.0202 14.705 44.0202V40.205C13.3218 38.8844 11.8659 37.5638 10.5556 36.2432H5.09579C3.63985 37.7105 2.25671 39.1779 0.873563 40.6452V48.0554C4.29502 50.1097 7.78927 52.0906 11.6475 54.2182L11.8659 54.2916V59.2072L11.7931 59.2806C10.9923 60.161 10.1916 61.1148 9.3908 62.0686L9.31801 62.1419H9.17241C8.29885 62.2887 7.35249 62.4354 6.47893 62.6555H6.33333L6.18774 62.5822C5.38697 61.9218 4.58621 61.2615 3.78544 60.5279L3.63985 60.4545V56.6394C2.69349 56.7861 1.67433 56.9328 0.727969 57.0796V62.2887Z" fill="black"/>
<path id="Vector_51" d="M31.3025 40.9404C30.5017 40.2801 29.7737 39.6198 28.973 38.9595C28.0994 38.9595 27.2259 38.9595 26.2795 39.0329C25.4787 39.7665 24.7508 40.4268 23.95 41.1605C23.95 46.5897 23.8772 52.0189 23.8772 57.4481C24.678 58.1084 25.4059 58.7687 26.2067 59.429C27.0803 59.3557 27.9538 59.2089 28.8274 59.1356C29.6282 58.3285 30.4289 57.5215 31.2297 56.7144C31.2297 55.7607 31.2297 54.8069 31.2297 53.8531C32.4672 53.7797 33.7048 53.633 35.0151 53.5596C35.0151 54.8803 35.0151 56.2742 35.0151 57.5949C33.4864 59.0622 32.0305 60.6029 30.5017 62.1436C28.5362 62.3637 26.5707 62.5838 24.6052 62.8773C23.1492 61.6301 21.6933 60.3828 20.1646 59.1356C20.1646 52.7526 20.2373 46.3696 20.2373 39.9866C21.7661 38.5927 23.222 37.1987 24.7508 35.8047C26.7163 35.8047 28.609 35.8047 30.5745 35.8047C32.0305 37.1253 33.5592 38.3726 35.0151 39.6932C35.0151 40.9404 35.0151 42.261 35.0151 43.5083C33.7776 43.5083 32.54 43.5817 31.3025 43.655C31.3025 42.7012 31.3025 41.8208 31.3025 40.9404Z" fill="black"/>
<path id="Vector_52" d="M24.4598 63.1704L24.3142 63.0971C22.8583 61.8498 21.4024 60.6026 19.8736 59.3553L19.728 59.2086L19.8008 39.7662L19.9464 39.6928C21.4024 38.2988 22.9311 36.9049 24.4598 35.5109L24.5326 35.4375H30.6476L30.7204 35.5109C32.1763 36.8315 33.705 38.0787 35.161 39.3993L35.3066 39.5461V43.9481H34.9426C33.705 43.9481 32.4675 44.0215 31.2299 44.0949H30.866V41.2335C30.138 40.6466 29.4828 40.0597 28.7548 39.3993L26.3525 39.4727C25.6246 40.133 24.9694 40.7933 24.2414 41.3803V57.2277C24.9694 57.8146 25.6246 58.4016 26.3525 58.9885C27.1533 58.9151 27.8813 58.8418 28.6821 58.7684C29.41 58.0347 30.138 57.2277 30.866 56.494V53.4126H31.2299C32.4675 53.3392 33.705 53.1925 35.0154 53.1191H35.3794V57.6679L35.3066 57.7412C33.7778 59.282 32.2491 60.8227 30.7932 62.29L30.7204 62.3634H30.5748C28.6093 62.5835 26.6437 62.8036 24.6782 63.0971L24.4598 63.1704ZM20.5288 58.8418C21.9119 60.0156 23.2951 61.1895 24.6782 62.3634C26.4981 62.1433 28.3909 61.9232 30.2836 61.7031C31.6667 60.2357 33.1227 58.7684 34.5786 57.301V53.8528C33.5594 53.9261 32.5403 53.9995 31.5211 54.0729V56.7875L31.4483 56.8608C30.6476 57.6679 29.8468 58.4749 29.046 59.282L28.9732 59.4287H28.8276C27.9541 59.5021 27.0805 59.5754 26.207 59.7222H26.0614L25.9158 59.6488C25.115 58.9885 24.387 58.3282 23.5863 57.6679L23.4407 57.5211L23.5135 40.9401L23.6591 40.8667C24.4598 40.133 25.1878 39.3993 25.9886 38.739L26.0614 38.6657L29.046 38.5923L29.1188 38.6657C29.9196 39.326 30.6476 39.9863 31.4483 40.6466L31.5939 40.7933V43.2145C32.6131 43.2145 33.6322 43.1411 34.5786 43.1411V39.8396C33.1955 38.6657 31.7395 37.4184 30.3564 36.1712H24.8238C23.3679 37.4918 21.9119 38.8124 20.5288 40.133V58.8418Z" fill="black"/>
<path id="Vector_53" d="M39.8926 61.0409C39.8926 52.677 39.9654 44.3131 39.9654 36.0226C41.2029 36.0226 42.4405 36.0226 43.678 36.0226C43.678 39.691 43.678 43.3593 43.6052 46.9544C45.9347 46.881 48.2642 46.881 50.5937 46.8076C50.5937 43.2126 50.5937 39.5442 50.5937 35.9492C51.8313 35.9492 53.0688 35.9492 54.3064 35.9492C54.3064 44.093 54.3064 52.2368 54.3064 60.454C53.0688 60.454 51.7585 60.454 50.5209 60.5274C50.5209 56.9323 50.5209 53.264 50.5209 49.669C48.1914 49.669 45.8619 49.7423 43.5324 49.8157C43.5324 53.4841 43.5324 57.1524 43.4596 60.7475C42.3677 60.8942 41.1301 60.9676 39.8926 61.0409Z" fill="black"/>
<path id="Vector_54" d="M39.5288 61.4808L39.6016 35.6554H44.0422L43.9694 46.5872C46.0805 46.5138 48.1188 46.5138 50.23 46.4404V35.582H54.6706V60.8205H54.3066C53.069 60.8205 51.8315 60.8205 50.5211 60.8938H50.1572V50.0354C48.1188 50.0354 46.0077 50.1088 43.8966 50.1822L43.8238 61.1139H43.4598C42.2223 61.1873 40.9847 61.2607 39.6744 61.334L39.5288 61.4808ZM40.3296 36.3891L40.2568 60.6737C41.2759 60.6004 42.2951 60.527 43.3142 60.4536L43.387 49.4485H43.751C46.0805 49.3751 48.41 49.3018 50.7395 49.3018H51.1035L50.9579 60.1602C51.9771 60.1602 52.9962 60.0868 54.0154 60.0868V36.3157H51.0307V47.1741H50.6667C48.3372 47.1741 46.0077 47.2475 43.6782 47.3208H43.3142L43.387 36.3157L40.3296 36.3891Z" fill="black"/>
<path id="Vector_55" d="M75.0535 57.2272C73.5247 58.4744 71.9232 59.7217 70.3945 60.9689C68.4289 60.8955 66.3906 60.7488 64.4251 60.7488C62.8964 59.3548 61.2948 58.0342 59.7661 56.7136C59.7661 50.9176 59.7661 45.1215 59.7661 39.3988C61.2948 38.1516 62.8964 36.9043 64.4251 35.7305C66.3906 35.7305 68.3562 35.7305 70.3217 35.7305C71.8504 36.9777 73.4519 38.225 74.9807 39.5456C74.9807 45.3416 74.9807 51.2844 75.0535 57.2272ZM71.268 55.8332C71.268 50.7708 71.268 45.7085 71.1952 40.6461C70.3945 39.9858 69.5209 39.3255 68.7201 38.6652C67.7738 38.6652 66.8274 38.6652 65.9539 38.6652C65.1531 39.3255 64.2795 39.9858 63.4788 40.6461C63.4788 45.6351 63.4788 50.6241 63.4788 55.6864C64.3523 56.4201 65.1531 57.1538 66.0266 57.8875C66.973 57.8875 67.8466 57.9608 68.7929 57.9608C69.5937 57.2272 70.4673 56.4935 71.268 55.8332Z" fill="black"/>
<path id="Vector_56" d="M70.4675 61.3354H70.3219C68.3564 61.262 66.3181 61.1153 64.3526 61.1153H64.207L64.1342 61.0419C62.6055 59.6479 61.0767 58.3273 59.4752 57.0067L59.3296 56.9333V39.2518L59.4752 39.105C61.0039 37.8578 62.6055 36.6105 64.1342 35.4366L64.207 35.3633H70.3219L70.3947 35.4366C71.9235 36.6839 73.525 37.9311 75.0537 39.2518L75.1993 39.3251L75.2721 57.4469L75.1265 57.5937C73.5978 58.8409 71.9963 60.0882 70.4675 61.3354ZM64.571 60.3083C66.4637 60.3816 68.3564 60.455 70.2491 60.5284C71.7051 59.3545 73.161 58.1806 74.6897 57.0067L74.6169 39.6186C73.161 38.3714 71.6323 37.1975 70.1763 36.0236H64.571C63.115 37.1975 61.6591 38.3714 60.1304 39.5452V56.5665C61.5863 57.7404 63.115 59.061 64.571 60.3083ZM68.866 58.254H68.7204C67.8468 58.1806 66.9005 58.1806 66.0269 58.1806H65.8813L65.8085 58.1072C64.935 57.3736 64.1342 56.6399 63.2606 55.9062L63.115 55.7595V40.4256L63.2606 40.2789L65.8085 38.2246H68.866L68.9388 38.298C69.7395 38.9583 70.6131 39.6186 71.4139 40.2789L71.5595 40.3523L71.6323 55.9062L68.866 58.254ZM66.1725 57.4469C66.9733 57.4469 67.8468 57.5203 68.6476 57.5203L70.9043 55.6861L70.8315 40.7925C70.1035 40.2055 69.3028 39.5452 68.5748 38.9583H66.0269L63.7702 40.7191V55.3926C64.6438 56.0529 65.3717 56.7132 66.1725 57.4469Z" fill="black"/>
<path id="Vector_57" d="M95.5822 59.2064C94.0535 60.4536 92.5248 61.7009 90.996 62.9481C89.0305 62.6547 87.065 62.4346 85.0995 62.2145C83.5707 60.6737 82.042 59.133 80.4405 57.5923C80.4405 51.5762 80.3677 45.56 80.3677 39.4705C81.8964 38.2233 83.4251 36.9026 85.0267 35.582C86.9922 35.582 88.9577 35.582 90.9232 35.582C92.452 36.9026 94.0535 38.2966 95.5822 39.764C95.5094 46.2937 95.5822 52.75 95.5822 59.2064ZM91.8696 57.5189C91.8696 52.0164 91.7968 46.5872 91.7968 41.0846C90.996 40.3509 90.1225 39.6172 89.3217 38.8836C88.3753 38.8836 87.429 38.8836 86.5554 38.8102C85.7546 39.4705 84.9539 40.2042 84.0803 40.8645C84.0803 46.147 84.1531 51.4294 84.1531 56.7119C85.0267 57.5189 85.8274 58.3993 86.701 59.2064C87.5746 59.2798 88.5209 59.4265 89.3945 59.4999C90.1953 58.8396 90.996 58.1792 91.8696 57.5189Z" fill="black"/>
<path id="Vector_58" d="M91.0691 63.3163H90.9235C88.958 63.0229 86.9925 62.8028 85.0269 62.5826H84.8813L84.8085 62.5093C83.3526 60.9686 81.7511 59.4278 80.1495 57.9605L80.0039 57.8871L79.9312 39.4719L80.0767 39.3251C81.6783 38.0045 83.207 36.7573 84.7357 35.4366L84.8085 35.3633H90.9235L90.9963 35.4366C92.5978 36.8306 94.1993 38.2246 95.6553 39.6186L95.8009 39.692L95.8737 59.4278L95.7281 59.5746C94.2721 60.7485 92.7434 61.9957 91.0691 63.3163ZM85.1725 61.849C87.0652 62.0691 88.958 62.2892 90.8507 62.5826C92.3794 61.3354 93.8354 60.2349 95.2185 59.061L95.1457 39.9854C93.6898 38.6648 92.2338 37.3442 90.7051 36.0236H85.0997C83.7166 37.1975 82.2607 38.4447 80.7319 39.692L80.8047 57.4469C82.2607 58.9143 83.7894 60.3816 85.1725 61.849ZM89.4675 59.868H89.322C88.4484 59.7947 87.502 59.6479 86.6285 59.5746H86.4829L86.4101 59.5012C85.5365 58.6208 84.7357 57.8138 83.8622 57.0067L83.7166 56.9333L83.6438 40.7191L83.7894 40.5724C84.5902 39.9121 85.3909 39.2518 86.2645 38.5181L86.3373 38.4447L89.3948 38.5181L89.4675 38.5915C90.2683 39.3251 91.1419 40.0588 91.9426 40.7925L92.0882 40.8658L92.161 57.667L92.0154 57.8138C91.2147 58.4741 90.3411 59.2077 89.5403 59.868H89.4675ZM86.7741 58.8409C87.5748 58.9143 88.3756 58.9876 89.2492 59.1344C89.9771 58.5474 90.7779 57.8871 91.5059 57.3002L91.4331 41.1593C90.7051 40.499 89.9043 39.8387 89.1764 39.1784L86.6285 39.105C85.9005 39.692 85.1725 40.3523 84.3718 40.9392L84.4446 56.4931C85.2453 57.3002 86.0461 58.1072 86.7741 58.8409Z" fill="black"/>
<path id="Vector_59" d="M104.318 36.0234C104.318 44.6074 104.391 53.1181 104.391 61.7021C107.448 62.2157 110.506 62.8026 113.636 63.4629C113.636 64.6368 113.636 65.884 113.636 67.0579C109.341 66.0308 105.046 65.1504 100.751 64.3433C100.678 54.8789 100.678 45.4145 100.605 36.0234C101.843 36.0234 103.081 36.0234 104.318 36.0234Z" fill="black"/>
<path id="Vector_60" d="M114 67.4969L113.563 67.4236C109.341 66.3964 104.973 65.516 100.678 64.709L100.387 64.6356L100.241 35.582H104.682L104.755 61.2607C107.739 61.7743 110.724 62.3612 113.709 62.9481L114 63.0215V67.4969ZM101.115 64.0486C105.191 64.7823 109.268 65.6627 113.272 66.6165V63.7552C110.36 63.1682 107.303 62.5813 104.391 62.0677L104.099 61.9944L104.027 36.3891H101.042L101.115 64.0486Z" fill="black"/>
<path id="Vector_61" d="M39.9655 26.1197H27.954C27.5173 26.1197 27.2261 25.8262 27.2261 25.386C27.2261 24.9458 27.5173 24.6523 27.954 24.6523H39.9655C40.4023 24.6523 40.6935 24.9458 40.6935 25.386C40.6935 25.8262 40.4023 26.1197 39.9655 26.1197Z" fill="black"/>
<path id="Vector_62" d="M85.0266 26.1197H73.0151C72.5783 26.1197 72.2871 25.8262 72.2871 25.386C72.2871 24.9458 72.5783 24.6523 73.0151 24.6523H85.0266C85.4634 24.6523 85.7545 24.9458 85.7545 25.386C85.7545 25.8262 85.4634 26.1197 85.0266 26.1197Z" fill="black"/>
<path id="Vector_63" d="M34.8699 74.2486H23.5864C23.1496 74.2486 22.8584 73.9551 22.8584 73.5149C22.8584 73.0747 23.1496 72.7812 23.5864 72.7812H34.8699C35.3067 72.7812 35.5979 73.0747 35.5979 73.5149C35.5979 73.9551 35.2339 74.2486 34.8699 74.2486Z" fill="black"/>
<path id="Vector_64" d="M89.3948 74.2486H78.1113C77.6745 74.2486 77.3833 73.9551 77.3833 73.5149C77.3833 73.0747 77.6745 72.7812 78.1113 72.7812H89.3948C89.8316 72.7812 90.1228 73.0747 90.1228 73.5149C90.1228 73.9551 89.8316 74.2486 89.3948 74.2486Z" fill="black"/>
<path id="Vector_65" d="M43.0228 73.3669V74.1006H41.5668V75.9348H43.3868V76.6685H40.8389V70.6523C41.7852 70.6523 42.2948 70.6523 43.2412 70.6523V71.386H41.494V73.2936H43.0228V73.3669Z" fill="black"/>
<path id="Vector_66" d="M43.5324 76.8174H40.6934V70.5078H43.3868V71.535H41.6397V73.149H43.0957V74.1762H41.6397V75.7169H43.4596V76.8174H43.5324ZM40.9845 76.524H43.2413V76.0837H41.4213V73.8827H42.8773V73.4425H41.4213V71.2415H43.1685V70.8013H41.0573V76.524H40.9845Z" fill="black"/>
<path id="Vector_67" d="M45.207 75.4946L45.6438 76.0082H46.2261L46.6629 75.4946V74.5408L44.5518 73.0735V71.5328L45.3526 70.6523H46.5173L47.3181 71.5328V72.4865H46.5901V71.8996L46.1533 71.386H45.6438L45.207 71.8996V72.7066L47.3909 74.174V75.7881L46.5173 76.7418H45.3526L44.479 75.7881V74.6876H45.207V75.4946Z" fill="black"/>
<path id="Vector_68" d="M46.5902 76.8877H45.3526L44.4062 75.8606V74.54H45.4254V75.4204L45.7894 75.8606H46.1534L46.5174 75.4204V74.6133L44.4062 73.146V71.5319L45.3526 70.5781H46.5902L47.5365 71.5319V72.6324H46.5174V71.8987L46.1534 71.5319H45.7894L45.3526 71.8987V72.6324L47.4637 74.0998V75.8606L46.5902 76.8877ZM45.4254 76.5943H46.4446L47.2453 75.7872V74.3199L45.1342 72.8525V71.8987L45.6438 71.3118H46.299L46.8086 71.8987V72.4123H47.2453V71.6786L46.4446 70.8716H45.4254L44.6246 71.6786V73.0726L46.7357 74.54V75.6405L46.1534 76.2274H45.4982L44.9158 75.6405V74.9068H44.479V75.7872L45.4254 76.5943Z" fill="black"/>
<path id="Vector_69" d="M49.4294 71.3869H48.3374V70.7266H51.1765V71.3869H50.0845V76.6693H49.4294V71.3869Z" fill="black"/>
<path id="Vector_70" d="M50.2297 76.8174H49.2106V71.4616H48.1914V70.5078H51.3217V71.4616H50.2297V76.8174ZM49.5745 76.524H50.0113V71.1681H51.0305V70.8013H48.4826V71.1681H49.5018V76.524H49.5745Z" fill="black"/>
<path id="Vector_71" d="M52.3408 70.7266H54.2335L55.1071 71.607V75.7889L54.2335 76.6693C53.5784 76.6693 52.996 76.6693 52.3408 76.6693V70.7266ZM53.9424 76.009L54.3791 75.5688V71.9004L53.9424 71.4602H53.0688V76.009H53.9424Z" fill="black"/>
<path id="Vector_72" d="M54.3064 76.8144H52.1953V70.5781H54.3064L55.2528 71.5319V75.8606L54.3064 76.8144ZM52.4865 76.5209H54.1608L54.9616 75.7139V71.6786L54.1608 70.8716H52.4865V76.5209ZM54.0152 76.1541H52.9233V71.3118H54.0152L54.5976 71.8254V75.4938L54.0152 76.1541ZM53.2145 75.8606H53.8696L54.2336 75.4938V72.0455L53.8696 71.6053H53.2145V75.8606Z" fill="black"/>
<path id="Vector_73" d="M59.6933 70.7266V76.009H60.5669V76.6693H58.0918V76.009H58.9654V71.4602H58.1646V70.7266H59.6933Z" fill="black"/>
<path id="Vector_74" d="M60.7126 76.8174H57.8735V75.8636H58.7471V71.535H57.9463V70.5078H59.7663V75.7903H60.6398V76.8174H60.7126ZM58.2375 76.524H60.4214V76.1571H59.5479V70.8747H58.3103V71.3149H59.1111V76.2305H58.2375V76.524Z" fill="black"/>
<path id="Vector_75" d="M62.3867 74.1748L61.5132 73.2944V71.607L62.3867 70.7266H63.4787L64.3523 71.607V75.8623L63.4787 76.7427H62.3867L61.586 75.8623V75.0553H62.3139V75.5688L62.6779 76.009H63.1875L63.6243 75.5688V74.2482H62.3867V74.1748ZM63.6971 73.5145V71.9004L63.2603 71.3869H62.7507L62.2412 71.9004V73.001L62.6779 73.5145H63.6971Z" fill="black"/>
<path id="Vector_76" d="M63.5516 76.8891H62.314L61.4405 75.9353V74.9082H62.4596V75.4951L62.7508 75.7886H63.1148L63.4788 75.4217V74.2479H62.314L61.3677 73.2207V71.3865L62.314 70.3594H63.5516L64.4979 71.3865V75.7152L63.5516 76.8891ZM62.4596 76.5956H63.4788L64.2796 75.7886V71.68L63.4788 70.8729H62.4596L61.6589 71.68V73.2207L62.4596 74.0278H63.77V75.5685L63.2604 76.082H62.6052L62.0956 75.5685V75.1283H61.6589V75.7152L62.4596 76.5956ZM63.8428 73.6609H62.678L62.1684 73.074V71.8267L62.678 71.2398H63.3332L63.8428 71.8267V73.6609ZM62.7508 73.3674H63.4788V71.9735L63.1148 71.6066H62.7508L62.3868 71.9735V73.0006L62.7508 73.3674Z" fill="black"/>
<path id="Vector_77" d="M66.6094 74.1748L65.7358 73.2944V71.607L66.6094 70.7266H67.7014L68.5749 71.607V75.8623L67.7014 76.7427H66.6094L65.8086 75.8623V75.0553H66.5366V75.5688L66.9006 76.009H67.4102L67.8469 75.5688V74.2482H66.6094V74.1748ZM67.8469 73.5145V71.9004L67.4102 71.3869H66.9006L66.4638 71.9004V73.001L66.9006 73.5145H67.8469Z" fill="black"/>
<path id="Vector_78" d="M67.7738 76.8891H66.5362L65.6626 75.9353V74.9082H66.6818V75.4951L66.973 75.7886H67.337L67.701 75.4217V74.2479H66.5362L65.5898 73.2207V71.3865L66.5362 70.3594H67.7738L68.7201 71.3865V75.7152L67.7738 76.8891ZM66.6818 76.5956H67.701L68.5017 75.7886V71.68L67.701 70.8729H66.6818L65.881 71.68V73.2207L66.6818 74.0278H67.9921V75.5685L67.4826 76.082H66.8274L66.3178 75.5685V75.1283H65.881V75.7152L66.6818 76.5956ZM67.9921 73.6609H66.8274L66.3178 73.074V71.8267L66.8274 71.2398H67.4826L67.9921 71.8267V73.6609ZM66.973 73.3674H67.701V71.9735L67.337 71.6066H66.973L66.609 71.9735V73.0006L66.973 73.3674Z" fill="black"/>
<path id="Vector_79" d="M71.632 71.6803V71.3869H70.4672V72.0472H69.7393V70.7266H72.3599V71.7537L70.7584 76.7427H70.0304L71.632 71.6803Z" fill="black"/>
<path id="Vector_80" d="M70.9041 76.8877H69.8121L71.4865 71.6786V71.6053H70.6129V72.1922H69.5938V70.5781H72.5784V71.8254L70.9041 76.8877ZM70.1761 76.5943H70.6129L72.1416 71.8254V70.945H69.8849V71.8987H70.3217V71.3118H71.8505V71.752L70.1761 76.5943Z" fill="black"/>
<path id="Vector_81" d="M49.2837 19.4432V29.3478C49.2837 29.6413 49.5021 29.8614 49.7933 29.8614C50.0845 29.8614 50.3029 29.6413 50.3029 29.3478V19.4432C52.7052 19.1497 54.5979 17.0954 54.5979 14.6743C54.5979 14.3808 54.3795 14.1607 54.0883 14.1607C53.7972 14.1607 53.5788 14.3808 53.5788 14.6743C53.5788 15.7014 53.142 16.6552 52.4868 17.3155C51.8316 17.9758 50.8853 18.416 49.8661 18.416C48.847 18.416 47.9006 17.9758 47.2454 17.3155C46.5903 16.6552 46.1535 15.7014 46.1535 14.6743C46.1535 13.6471 46.5903 12.6934 47.2454 12.0331C47.9006 11.3728 48.847 10.9325 49.8661 10.9325H62.6056C63.6247 10.9325 64.5711 11.3728 65.2263 12.0331C65.8814 12.6934 66.3182 13.6471 66.3182 14.6743C66.3182 15.7014 65.8814 16.6552 65.2263 17.3155C64.5711 17.9758 63.6247 18.416 62.6056 18.416C61.5864 18.416 60.6401 17.9758 59.9849 17.3155C59.3297 16.6552 58.8929 15.7014 58.8929 14.6743C58.8929 14.3808 58.6745 14.1607 58.3834 14.1607C58.0922 14.1607 57.8738 14.3808 57.8738 14.6743C57.8738 17.1688 59.7665 19.2231 62.1688 19.4432V29.3478C62.1688 29.6413 62.3872 29.8614 62.6784 29.8614C62.9696 29.8614 63.188 29.6413 63.188 29.3478V19.4432C65.5903 19.1497 67.483 17.0954 67.483 14.6743C67.483 12.0331 65.3719 9.83203 62.6784 9.83203H49.8661C47.2454 9.83203 45.0615 11.9597 45.0615 14.6743C45.0615 17.0954 46.8814 19.1497 49.2837 19.4432Z" fill="black"/>
<path id="Vector_82" d="M62.5324 30.0056C62.1684 30.0056 61.8773 29.7121 61.8773 29.3452V19.514C59.4022 19.1472 57.5822 17.0929 57.5822 14.5984C57.5822 14.2315 57.8734 13.9381 58.2374 13.9381C58.6014 13.9381 58.8926 14.2315 58.8926 14.5984C58.8926 15.5521 59.2566 16.5059 59.9117 17.1662C60.5669 17.8265 61.5133 18.1934 62.4596 18.1934C63.406 18.1934 64.3524 17.8265 65.0075 17.1662C65.6627 16.5059 66.0267 15.5521 66.0267 14.5984C66.0267 13.6446 65.6627 12.6908 65.0075 12.0305C64.3524 11.3702 63.406 11.0034 62.4596 11.0034H49.8658C48.9194 11.0034 47.973 11.3702 47.3179 12.0305C46.6627 12.6908 46.2987 13.6446 46.2987 14.5984C46.2987 15.5521 46.6627 16.5059 47.3179 17.1662C47.973 17.8265 48.9194 18.1934 49.8658 18.1934C50.8121 18.1934 51.7585 17.8265 52.4137 17.1662C53.0688 16.5059 53.4328 15.5521 53.4328 14.5984C53.4328 14.2315 53.724 13.9381 54.088 13.9381C54.452 13.9381 54.7432 14.2315 54.7432 14.5984C54.7432 17.0929 52.9232 19.2205 50.4481 19.514V29.3452C50.4481 29.7121 50.157 30.0056 49.793 30.0056C49.429 30.0056 49.1378 29.7121 49.1378 29.3452V19.514C46.6627 19.1472 44.8428 17.0929 44.8428 14.5984C44.8428 11.8838 47.0267 9.60938 49.793 9.60938H62.5324C65.2259 9.60938 67.4826 11.8104 67.4826 14.5984C67.4826 17.0929 65.6627 19.2205 63.1876 19.514V29.3452C63.1876 29.7121 62.8964 30.0056 62.5324 30.0056ZM58.3102 14.2315C58.0918 14.2315 57.9462 14.3783 57.9462 14.5984C57.9462 17.0195 59.6934 19.0004 62.0956 19.2205H62.2412V29.3452C62.2412 29.5654 62.3868 29.7121 62.6052 29.7121C62.8236 29.7121 62.9692 29.5654 62.9692 29.3452V19.2939H63.1148C65.4443 19.0004 67.2642 17.0195 67.2642 14.6717C67.2642 12.1039 65.1531 9.97621 62.6052 9.97621H49.8658C47.3179 9.97621 45.2068 12.1039 45.2068 14.6717C45.2068 17.0929 46.9539 19.0738 49.3562 19.2939H49.5018V29.3452C49.5018 29.5654 49.6474 29.7121 49.8658 29.7121C50.0842 29.7121 50.2297 29.5654 50.2297 29.3452V19.2939H50.3753C52.7048 19.0004 54.5248 17.0195 54.5248 14.6717C54.5248 14.4516 54.3792 14.3049 54.1608 14.3049C53.9424 14.3049 53.7968 14.4516 53.7968 14.6717C53.7968 15.6989 53.36 16.726 52.632 17.4597C51.9041 18.1934 50.9577 18.6336 49.8658 18.6336C48.8466 18.6336 47.8274 18.1934 47.0995 17.4597C46.3715 16.726 45.9347 15.7723 45.9347 14.6717C45.9347 13.6446 46.3715 12.6174 47.0995 11.8838C47.8274 11.1501 48.7738 10.7099 49.8658 10.7099H62.6052C63.6244 10.7099 64.6435 11.1501 65.3715 11.8838C66.0995 12.6174 66.5363 13.5712 66.5363 14.6717C66.5363 15.6989 66.0995 16.726 65.3715 17.4597C64.6435 18.1934 63.6972 18.6336 62.6052 18.6336C61.5861 18.6336 60.5669 18.1934 59.8389 17.4597C59.111 16.726 58.6742 15.7723 58.6742 14.6717C58.6742 14.3783 58.5286 14.2315 58.3102 14.2315Z" fill="black"/>
<path id="Vector_83" d="M54.3065 29.5685V18.9302C54.3065 18.7835 54.1609 18.6367 54.0153 18.6367C53.8697 18.6367 53.7241 18.7835 53.7241 18.9302V29.5685C53.7241 29.7152 53.8697 29.862 54.0153 29.862C54.2337 29.862 54.3065 29.7152 54.3065 29.5685Z" fill="black"/>
<path id="Vector_84" d="M54.0882 30.007C53.8698 30.007 53.6514 29.7869 53.6514 29.5668V18.9285C53.6514 18.7084 53.8698 18.4883 54.0882 18.4883C54.3065 18.4883 54.5249 18.7084 54.5249 18.9285V29.5668C54.4521 29.7869 54.3065 30.007 54.0882 30.007ZM54.0882 18.7818L53.9426 18.9285V29.5668L54.0882 29.7135L54.2337 29.5668V18.9285L54.0882 18.7818Z" fill="black"/>
<path id="Vector_85" d="M58.6014 29.5685V18.9302C58.6014 18.7835 58.4558 18.6367 58.3102 18.6367C58.1646 18.6367 58.019 18.7835 58.019 18.9302V29.5685C58.019 29.7152 58.1646 29.862 58.3102 29.862C58.4558 29.862 58.6014 29.7152 58.6014 29.5685Z" fill="black"/>
<path id="Vector_86" d="M58.3103 30.007C58.0919 30.007 57.8735 29.7869 57.8735 29.5668V18.9285C57.8735 18.7084 58.0919 18.4883 58.3103 18.4883C58.5287 18.4883 58.7471 18.7084 58.7471 18.9285V29.5668C58.7471 29.7869 58.5287 30.007 58.3103 30.007ZM58.3103 18.7818L58.1647 18.9285V29.5668L58.3103 29.7135L58.4559 29.5668V18.9285L58.3103 18.7818Z" fill="black"/>
<path id="Vector_87" d="M64.1342 14.6003C64.1342 15.4807 63.4062 16.2144 62.5327 16.2144C61.6591 16.2144 60.9311 15.4807 60.9311 14.6003C60.9311 14.4536 60.7855 14.3068 60.6399 14.3068C60.4943 14.3068 60.3488 14.4536 60.3488 14.6003C60.3488 15.7742 61.2951 16.728 62.4599 16.728C63.6246 16.728 64.571 15.7742 64.571 14.6003C64.571 13.4264 63.6246 12.4727 62.4599 12.4727H49.866C48.7012 12.4727 47.7549 13.4264 47.7549 14.6003C47.7549 15.7742 48.7012 16.728 49.866 16.728C51.0307 16.728 51.9771 15.7742 51.9771 14.6003C51.9771 14.4536 51.8315 14.3068 51.6859 14.3068C51.5403 14.3068 51.3947 14.4536 51.3947 14.6003C51.3947 15.4807 50.6668 16.2144 49.7932 16.2144C48.9196 16.2144 48.1917 15.4807 48.1917 14.6003C48.1917 13.7199 48.9196 12.9862 49.7932 12.9862H62.4599C63.4062 12.9862 64.1342 13.7199 64.1342 14.6003Z" fill="black"/>
<path id="Vector_88" d="M62.5327 16.873C61.2952 16.873 60.276 15.8459 60.276 14.5986C60.276 14.3785 60.4944 14.1584 60.7128 14.1584C60.9312 14.1584 61.1496 14.3785 61.1496 14.5986C61.1496 15.4057 61.8047 16.066 62.6055 16.066C63.4063 16.066 64.0614 15.4057 64.0614 14.5986C64.0614 13.7916 63.4063 13.1313 62.6055 13.1313H49.866C49.0653 13.1313 48.4101 13.7916 48.4101 14.5986C48.4101 15.4057 49.0653 16.066 49.866 16.066C50.6668 16.066 51.322 15.4057 51.322 14.5986C51.322 14.3785 51.5404 14.1584 51.7588 14.1584C51.9771 14.1584 52.1955 14.3785 52.1955 14.5986C52.1955 15.8459 51.1764 16.873 49.9388 16.873C48.7013 16.873 47.6821 15.8459 47.6821 14.5986C47.6821 13.3514 48.7013 12.3242 49.9388 12.3242H62.6055C63.843 12.3242 64.8622 13.3514 64.8622 14.5986C64.7894 15.8459 63.7703 16.873 62.5327 16.873ZM60.7128 14.4519L60.5672 14.5986C60.5672 15.6991 61.4407 16.5795 62.5327 16.5795C63.6247 16.5795 64.4982 15.6991 64.4982 14.5986C64.4982 13.4981 63.6247 12.6177 62.5327 12.6177H49.866C48.7741 12.6177 47.9005 13.4981 47.9005 14.5986C47.9005 15.6991 48.7741 16.5795 49.866 16.5795C50.958 16.5795 51.8316 15.6991 51.8316 14.5986L51.686 14.4519L51.5404 14.5986C51.5404 15.5524 50.7396 16.3594 49.7932 16.3594C48.8469 16.3594 48.0461 15.5524 48.0461 14.5986C48.0461 13.6448 48.8469 12.8378 49.7932 12.8378H62.4599C63.4063 12.8378 64.207 13.6448 64.207 14.5986C64.207 15.5524 63.4063 16.3594 62.4599 16.3594C61.5135 16.3594 60.7128 15.5524 60.7128 14.5986V14.4519Z" fill="black"/>
</g>
<defs>
<clipPath id="clip0_5594_1557">
<rect width="114" height="100" fill="white"/>
</clipPath>
</defs>
</svg>
