<svg width="121" height="100" viewBox="0 0 121 100" fill="none" xmlns="http://www.w3.org/2000/svg">
<g id="Frame" clip-path="url(#clip0_5594_1497)">
<path id="Vector" d="M11.5739 44.8519C12.7013 46.054 13.3777 47.6317 13.3777 49.4349C13.3777 51.238 12.7013 52.8158 11.5739 54.0179C10.5218 55.22 8.86835 55.9713 7.21494 55.9713C5.48637 55.9713 3.83295 55.22 2.78078 54.0179C1.65345 52.8158 0.977051 51.238 0.977051 49.4349C0.977051 47.6317 1.65345 46.054 2.78078 44.8519C3.90811 43.6498 5.48637 42.8984 7.21494 42.8984C8.94351 42.8984 10.5218 43.6498 11.5739 44.8519ZM11.3485 49.51C11.3485 48.3079 10.8224 47.1058 10.146 46.3545C9.39444 45.528 8.34227 45.0773 7.29009 45.0773C6.16276 45.0773 5.11059 45.528 4.35904 46.3545C3.60749 47.1809 3.15655 48.3079 3.15655 49.51C3.15655 50.7121 3.60749 51.9142 4.35904 52.6655C5.11059 53.492 6.16276 53.9428 7.29009 53.9428C8.41742 53.9428 9.39444 53.4168 10.146 52.6655C10.8975 51.8391 11.3485 50.7121 11.3485 49.51Z" fill="black"/>
<path id="Vector_2" d="M16.6094 54.9969V44.3283C16.6094 43.8024 17.0603 43.3516 17.5864 43.3516C18.1876 43.3516 18.6386 43.8024 18.6386 44.3283V54.0202H23.5988C24.1249 54.0202 24.5758 54.471 24.5758 55.0721C24.5758 55.598 24.1249 56.0488 23.5988 56.0488H17.7367C17.0603 56.0488 16.6094 55.598 16.6094 54.9969Z" fill="black"/>
<path id="Vector_3" d="M26.7554 54.9969V44.3283C26.7554 43.8024 27.2063 43.3516 27.7324 43.3516H29.9119C33.4442 43.3516 36.2249 46.2066 36.2249 49.6626C36.2249 53.1938 33.369 56.0488 29.9119 56.0488H27.7324C27.2063 56.0488 26.7554 55.598 26.7554 54.9969ZM28.7846 54.0202H29.9119C32.3169 54.0202 34.2709 52.0668 34.2709 49.6626C34.2709 47.2584 32.3169 45.305 29.9119 45.305H28.7846V54.0202Z" fill="black"/>
<path id="Vector_4" d="M44.1913 52.893C44.4919 52.5173 45.0931 52.4422 45.5441 52.7427C46.3708 53.4189 47.7236 54.1702 49.0012 54.1702C49.9031 54.1702 50.7298 53.8697 51.2559 53.4941C51.782 53.1184 52.0074 52.6676 52.0074 52.2168C52.0074 51.9914 51.9323 51.8412 51.8571 51.6158C51.782 51.4655 51.5565 51.2401 51.331 51.0898C50.805 50.7142 49.9031 50.4137 48.8509 50.2634C48.0242 50.1131 47.1975 49.8877 46.5211 49.5872C45.8447 49.2867 45.2435 48.8359 44.8677 48.1597C44.5671 47.7089 44.4168 47.183 44.4168 46.6571C44.4168 45.5301 45.018 44.6285 45.8447 44.0275C46.6714 43.4264 47.7987 43.0508 49.0012 43.0508C50.7298 43.0508 52.0074 43.8772 52.9845 44.4783C53.4354 44.7788 53.5105 45.3799 53.2099 45.7555C52.9093 46.2063 52.3832 46.2814 51.9323 46.056C51.0304 45.455 50.1286 44.9291 49.0012 44.9291C48.1745 44.9291 47.423 45.1545 46.972 45.5301C46.4459 45.9058 46.2956 46.2814 46.2956 46.6571C46.2956 46.8825 46.2956 47.0327 46.4459 47.183C46.5211 47.3333 46.6714 47.4835 46.972 47.6338C47.423 47.9343 48.2497 48.2349 49.2267 48.4602C50.1286 48.6105 51.0304 48.911 51.7068 49.2116C52.4584 49.5872 53.1348 50.038 53.5105 50.7142C53.8112 51.165 53.9615 51.6909 53.9615 52.292C53.9615 53.4189 53.2851 54.4708 52.3832 55.0718C51.4813 55.748 50.2789 56.1237 49.0012 56.1237C47.0472 56.1237 45.3938 55.147 44.3416 54.3205C43.8907 53.8697 43.8155 53.2687 44.1913 52.893Z" fill="black"/>
<path id="Vector_5" d="M55.9155 49.513C55.9155 45.9067 58.9217 42.9766 62.6043 42.9766C64.1826 42.9766 65.6857 43.5025 66.813 44.4041C67.264 44.7797 67.3391 45.3808 66.9634 45.8316C66.5876 46.2823 65.9112 46.3575 65.5354 46.057C64.7087 45.3808 63.7317 45.0802 62.6043 45.0802C61.3267 45.0802 60.1994 45.6062 59.2975 46.3575C58.4708 47.1839 57.9447 48.3109 57.9447 49.513C57.9447 50.7151 58.4708 51.8421 59.2975 52.6685C60.1242 53.495 61.3267 53.9458 62.6043 53.9458C63.7317 53.9458 64.7087 53.5701 65.5354 52.969C65.9863 52.6685 66.6627 52.7437 66.9634 53.1944C67.264 53.6452 67.1888 54.3214 66.813 54.6219C65.6857 55.5235 64.1826 56.0494 62.6043 56.0494C58.9217 56.0494 55.9155 53.1193 55.9155 49.513Z" fill="black"/>
<path id="Vector_6" d="M70.1201 54.9969V44.3283C70.1201 43.8024 70.571 43.3516 71.0971 43.3516C71.6984 43.3516 72.1493 43.8024 72.1493 44.3283V48.6859H76.8841V44.3283C76.8841 43.8024 77.335 43.3516 77.8611 43.3516C78.4623 43.3516 78.9133 43.8024 78.9133 44.3283V55.0721C78.9133 55.598 78.4623 56.0488 77.8611 56.0488C77.335 56.0488 76.8841 55.598 76.8841 55.0721V50.7144H72.1493V55.0721C72.1493 55.598 71.6984 56.0488 71.0971 56.0488C70.571 56.0488 70.1201 55.598 70.1201 54.9969Z" fill="black"/>
<path id="Vector_7" d="M92.6662 44.8519C93.7936 46.054 94.47 47.6317 94.47 49.4349C94.47 51.238 93.7936 52.8158 92.6662 54.0179C91.6141 55.22 89.9606 55.9713 88.3072 55.9713C86.5787 55.9713 84.9252 55.22 83.8731 54.0179C82.7457 52.8158 82.0693 51.238 82.0693 49.4349C82.0693 47.6317 82.7457 46.054 83.8731 44.8519C85.0004 43.6498 86.5787 42.8984 88.3072 42.8984C90.0358 42.8984 91.6141 43.6498 92.6662 44.8519ZM92.4408 49.51C92.4408 48.3079 91.9147 47.1058 91.2383 46.3545C90.4867 45.528 89.4346 45.0773 88.3824 45.0773C87.2551 45.0773 86.2029 45.528 85.4513 46.3545C84.6998 47.1809 84.2488 48.3079 84.2488 49.51C84.2488 50.7121 84.6998 51.9142 85.4513 52.6655C86.2029 53.492 87.2551 53.9428 88.3824 53.9428C89.5097 53.9428 90.4867 53.4168 91.2383 52.6655C91.9147 51.8391 92.4408 50.7121 92.4408 49.51Z" fill="black"/>
<path id="Vector_8" d="M107.697 44.8519C108.825 46.054 109.501 47.6317 109.501 49.4349C109.501 51.238 108.825 52.8158 107.697 54.0179C106.645 55.22 104.992 55.9713 103.338 55.9713C101.61 55.9713 99.9565 55.22 98.9043 54.0179C97.777 52.8158 97.1006 51.238 97.1006 49.4349C97.1006 47.6317 97.777 46.054 98.9043 44.8519C100.032 43.6498 101.61 42.8984 103.338 42.8984C104.992 42.8984 106.57 43.6498 107.697 44.8519ZM107.397 49.51C107.397 48.3079 106.871 47.1058 106.194 46.3545C105.443 45.528 104.391 45.0773 103.338 45.0773C102.211 45.0773 101.159 45.528 100.407 46.3545C99.6559 47.1809 99.2049 48.3079 99.2049 49.51C99.2049 50.7121 99.6559 51.9142 100.407 52.6655C101.159 53.492 102.211 53.9428 103.338 53.9428C104.466 53.9428 105.443 53.4168 106.194 52.6655C106.946 51.8391 107.397 50.7121 107.397 49.51Z" fill="black"/>
<path id="Vector_9" d="M112.733 54.9969V44.3283C112.733 43.8024 113.184 43.3516 113.71 43.3516C114.311 43.3516 114.762 43.8024 114.762 44.3283V54.0202H119.722C120.248 54.0202 120.699 54.471 120.699 55.0721C120.699 55.598 120.248 56.0488 119.722 56.0488H113.86C113.109 56.0488 112.733 55.598 112.733 54.9969Z" fill="black"/>
<path id="Vector_10" d="M13.9037 38.4673H0V36.2134H12.2503C18.413 14.876 38.1789 0 60.5 0C82.4453 0 102.061 14.5004 108.524 35.3869H121V37.6409H106.796L106.57 36.8144C100.708 16.4538 81.7689 2.25394 60.5 2.25394C38.8553 2.25394 19.841 16.8294 14.1292 37.6409L13.9037 38.4673Z" fill="black"/>
<path id="Vector_11" d="M39.6069 38.4683H30.8888C30.6634 38.4683 30.4379 38.3181 30.2876 38.1678C30.1373 37.9424 30.1373 37.717 30.2125 37.4916C35.3982 25.1701 47.3479 17.2812 60.5752 17.2812C73.4267 17.2812 85.151 24.7944 90.5621 36.4398C90.6373 36.6652 90.6373 36.9657 90.487 37.1911C90.3367 37.4165 90.1112 37.5667 89.8857 37.5667H81.3932C80.9423 37.5667 80.6416 37.2662 80.6416 36.8154C80.6416 36.3646 80.9423 36.0641 81.3932 36.0641H88.6833C83.3472 25.5457 72.4497 18.7839 60.5752 18.7839C48.2497 18.7839 37.2019 25.8462 32.0162 36.9657H39.6069C40.0578 36.9657 40.3584 37.2662 40.3584 37.717C40.3584 38.1678 40.0578 38.4683 39.6069 38.4683Z" fill="black"/>
<path id="Vector_12" d="M26.8304 32.1577H26.7552H26.68L23.0726 31.7821C22.9223 31.7821 22.772 31.6318 22.772 31.4064C22.772 31.2562 22.9223 31.1059 23.1477 31.1059L26.0036 31.4064L24.1999 29.1525C24.1248 29.0022 24.1248 28.7768 24.2751 28.7017C24.4254 28.6266 24.5757 28.6266 24.726 28.7768L26.9807 31.6318V31.707V31.7821V31.8572V31.9323V32.0075V32.0826V32.1577H26.8304Z" fill="black"/>
<path id="Vector_13" d="M26.7552 32.3816L26.68 32.3064L23.0726 31.9308C22.9222 31.9308 22.8471 31.8557 22.7719 31.7805C22.6968 31.7054 22.6968 31.5551 22.6968 31.4049C22.6968 31.3297 22.7719 31.1795 22.8471 31.1043C22.9222 31.0292 23.0726 30.9541 23.2229 31.0292L25.703 31.3297L24.1247 29.3763C24.0496 29.3012 24.0496 29.1509 24.0496 29.0007C24.0496 28.8504 24.1247 28.7753 24.1999 28.7001C24.275 28.625 24.4253 28.625 24.5005 28.625C24.6508 28.625 24.726 28.7001 24.8011 28.7753L27.0558 31.6303L27.1309 31.7054V31.7805V31.8557V31.9308L27.0558 32.0059V32.081V32.1562L26.9055 32.3064H26.8303L26.7552 32.3816ZM23.0726 31.3297L22.9974 31.4049L22.9222 31.48V31.6303L22.9974 31.7054L26.5297 32.081H26.6049L26.68 32.0059L26.6049 31.8557L24.4253 29.0758L24.3502 29.0007H24.1999L24.1247 29.0758V29.2261L26.1539 31.7805L23.0726 31.3297Z" fill="black"/>
<path id="Vector_14" d="M26.8306 25.3956C26.6803 25.3205 26.6803 25.0951 26.7554 24.9448C26.8306 24.7945 27.056 24.7945 27.2064 24.8697L29.9119 26.8982C30.0623 26.9733 30.0623 27.1987 29.9871 27.349C29.9119 27.4993 29.6865 27.4993 29.5362 27.4241L26.8306 25.3956Z" fill="black"/>
<path id="Vector_15" d="M29.7613 27.6472C29.6862 27.6472 29.5359 27.6472 29.4607 27.5721L26.7551 25.5435C26.5296 25.3933 26.5296 25.0927 26.68 24.8674C26.8303 24.642 27.1309 24.642 27.3564 24.7922L30.0619 26.8208C30.1371 26.8959 30.2123 26.971 30.2123 27.1213C30.2123 27.2716 30.2122 27.3467 30.1371 27.497C30.0619 27.5721 29.9116 27.5721 29.7613 27.6472ZM27.0557 25.0176L26.9054 25.0928C26.8303 25.1679 26.8303 25.243 26.9054 25.3181L29.611 27.3467H29.7613L29.8365 27.2716V27.1213V27.0462L27.1309 25.0176H27.0557Z" fill="black"/>
<path id="Vector_16" d="M32.7678 23.5175C32.9182 23.6677 32.9182 23.818 32.7678 23.9682C32.6175 24.1185 32.4672 24.1185 32.3169 23.9682L29.9119 21.6392C29.8368 21.564 29.7616 21.4889 29.8368 21.3386C29.8368 21.1884 29.9871 21.0381 30.2126 21.1132L33.2939 21.564L31.6405 19.9111C31.4902 19.7609 31.4902 19.6106 31.6405 19.4604C31.7908 19.3101 31.9411 19.3101 32.0915 19.4604L34.4964 21.7894C34.6467 21.9397 34.6467 22.09 34.4964 22.2402C34.4213 22.3154 34.3461 22.3154 34.271 22.3154H34.1958L31.1144 21.8646L32.7678 23.5175Z" fill="black"/>
<path id="Vector_17" d="M32.5424 24.1916C32.3921 24.1916 32.317 24.1164 32.2418 24.0413L29.8368 21.7122C29.7617 21.6371 29.6865 21.4868 29.6865 21.3366C29.7617 21.1112 29.9871 20.8858 30.2126 20.9609L32.843 21.3366L31.5654 19.9842C31.4151 19.8339 31.4151 19.5334 31.5654 19.308C31.7157 19.1577 32.0163 19.1577 32.2418 19.308L34.6468 21.6371C34.7219 21.7122 34.7971 21.8625 34.7971 21.9376C34.7971 22.0879 34.7219 22.163 34.6468 22.2381C34.5716 22.3133 34.4213 22.3884 34.271 22.3884H34.1958L31.5654 22.0127L32.9182 23.3651C33.0685 23.5154 33.0685 23.8159 32.9182 24.0413C32.7679 24.1164 32.6927 24.1916 32.5424 24.1916ZM30.1375 21.1863C30.0623 21.1863 29.9871 21.2614 29.9871 21.3366L30.0623 21.4868L32.4673 23.8159H32.6927V23.5905L30.6635 21.6371L34.1958 22.163C34.271 22.163 34.3462 22.163 34.3462 22.0879L34.4213 21.9376L34.3462 21.7873L31.9412 19.5334H31.7157V19.7588L33.7449 21.7122L30.1375 21.1863Z" fill="black"/>
<path id="Vector_18" d="M37.7277 15.2511L36.9762 15.777L38.7799 18.2563C38.8551 18.4066 38.8551 18.5568 38.7048 18.7071C38.5544 18.7822 38.4041 18.7822 38.2538 18.632L36.4501 16.1526L35.6985 16.6786C35.5482 16.7537 35.3228 16.7537 35.2476 16.6034C35.1725 16.4532 35.1725 16.3029 35.3228 16.1526L37.2768 14.7251C37.4271 14.65 37.5774 14.65 37.7277 14.8003C37.878 14.8754 37.878 15.1008 37.7277 15.2511Z" fill="black"/>
<path id="Vector_19" d="M38.5547 18.8575C38.3293 18.8575 38.2541 18.7824 38.179 18.6321L36.4504 16.303L35.8492 16.7538C35.774 16.829 35.6237 16.829 35.4734 16.829C35.3231 16.829 35.2479 16.7538 35.1728 16.6036C35.0224 16.3782 35.0976 16.0776 35.2479 15.9274L37.2019 14.4999C37.4274 14.3496 37.728 14.4247 37.8783 14.575C38.0287 14.8004 37.9535 15.1009 37.8032 15.2512L37.2019 15.7771L38.9305 18.1062C39.0808 18.3316 39.0057 18.6321 38.8554 18.7824C38.7051 18.8575 38.6299 18.8575 38.5547 18.8575ZM36.5255 15.9274L38.4044 18.4818L38.4796 18.557H38.6299L38.7051 18.4818V18.3316L36.8262 15.7771L37.6529 15.1761C37.728 15.1009 37.728 15.0258 37.6529 14.9507C37.5777 14.8755 37.5026 14.8755 37.4274 14.9507L35.4734 16.3782L35.3982 16.4533V16.6036L35.4734 16.6787H35.6237L36.5255 15.9274Z" fill="black"/>
<path id="Vector_20" d="M43.9656 14.349L42.7632 15.0252L42.8383 15.7765C42.8383 15.9268 42.7632 16.0019 42.688 16.077H42.6128C42.4625 16.077 42.3122 16.0019 42.2371 15.7765L41.7861 12.1702C41.7861 12.0199 41.8613 11.8697 41.9364 11.8697C42.0868 11.7945 42.1619 11.7945 42.3122 11.9448L44.9427 14.349C45.093 14.4993 45.093 14.6495 44.9427 14.7998L44.8675 14.8749C44.7923 14.9501 44.642 14.9501 44.4917 14.7998L43.9656 14.349ZM43.5147 13.8982L42.5377 12.9966L42.688 14.2739L43.5147 13.8982Z" fill="black"/>
<path id="Vector_21" d="M42.5381 16.3024C42.3126 16.3024 42.0872 16.1522 42.0872 15.9268L41.6362 12.3205C41.6362 12.0951 41.7114 11.9448 41.9368 11.8697C42.0872 11.7945 42.3126 11.7945 42.4629 11.9448L45.0934 14.349C45.3188 14.4993 45.3188 14.7998 45.0934 15.0252L44.9431 15.1003C44.7928 15.1754 44.5673 15.1754 44.417 15.0252L43.8909 14.5744L42.8387 15.1003L42.9139 15.7765C42.9139 16.0019 42.8387 16.1522 42.6884 16.2273L42.5381 16.3024ZM42.1623 12.0951H42.0872C42.012 12.0951 42.012 12.1702 42.012 12.2453L42.4629 15.7765C42.4629 15.8516 42.5381 15.9268 42.6884 15.9268H42.7636C42.8387 15.9268 42.8387 15.8516 42.8387 15.7765L42.7636 14.8749L44.1915 14.1236L44.8679 14.7247H45.0182H45.0934C45.1685 14.6495 45.1685 14.5744 45.0934 14.4993L42.4629 12.0951H42.1623ZM42.5381 14.5744L42.3126 12.6961L43.7406 13.9733L42.5381 14.5744ZM42.6884 13.4474L42.7636 14.1236L43.2145 13.8982L42.6884 13.4474Z" fill="black"/>
<path id="Vector_22" d="M47.4984 11.6436C47.1978 10.5166 47.799 9.38963 48.9263 9.0891C49.3773 8.93884 49.9033 8.93884 50.2791 9.16423C50.4294 9.23936 50.5046 9.38963 50.5046 9.61502C50.4294 9.76528 50.2791 9.84041 50.0537 9.76528C49.753 9.69015 49.4524 9.61502 49.0766 9.76528C48.7009 9.91555 48.4002 10.1409 48.2499 10.4415C48.0996 10.742 48.0245 11.1176 48.0996 11.4933C48.1748 11.869 48.4754 12.1695 48.776 12.3198C49.0766 12.47 49.4524 12.5451 49.9033 12.3949C50.204 12.3198 50.4294 12.1695 50.5797 11.9441L50.3543 11.1928L49.6027 11.4182C49.4524 11.4933 49.227 11.343 49.227 11.1928C49.1518 11.0425 49.3021 10.8171 49.4524 10.8171L50.5046 10.5166C50.6549 10.4415 50.8804 10.5166 50.8804 10.742L51.2561 11.9441V12.0192L51.181 12.1695C50.9555 12.5451 50.5046 12.8457 50.0537 12.9959C49.0015 13.3716 47.799 12.7705 47.4984 11.6436Z" fill="black"/>
<path id="Vector_23" d="M49.4521 13.2232C49.0763 13.2232 48.7757 13.148 48.3999 12.9978C47.8738 12.6972 47.498 12.2464 47.2726 11.7205C46.8968 10.5184 47.5732 9.31632 48.7757 8.94066C49.2266 8.7904 49.7527 8.7904 50.2788 9.01579C50.4291 9.09092 50.5043 9.16606 50.5794 9.24119C50.6546 9.39145 50.6546 9.46658 50.5794 9.61685C50.5043 9.76711 50.4291 9.84224 50.3539 9.91737C50.2036 9.9925 50.1285 9.9925 49.9782 9.91737C49.6775 9.84224 49.3769 9.84224 49.1515 9.91737C48.7757 9.9925 48.5502 10.2179 48.3999 10.5184C48.2496 10.8189 48.1744 11.1946 48.3247 11.4951C48.3999 11.7957 48.6254 12.0962 48.926 12.2464C49.2266 12.3967 49.6024 12.4718 49.903 12.3216C50.1285 12.2464 50.2788 12.1713 50.4291 12.0211L50.2788 11.4951L49.6024 11.5703C49.4521 11.5703 49.3769 11.5703 49.2266 11.5703C49.0763 11.4951 49.0011 11.42 49.0011 11.2697C49.0011 11.1195 49.0011 11.0443 49.0011 10.8941C49.0763 10.8189 49.1515 10.6687 49.3018 10.6687L50.3539 10.3682C50.5042 10.293 50.5794 10.3682 50.7297 10.3682C50.88 10.4433 50.9552 10.5184 50.9552 10.6687L51.331 11.8708V11.9459V12.0211C51.331 12.0962 51.331 12.1713 51.2558 12.2464C50.9552 12.6221 50.5794 12.9226 50.0533 13.0729C49.903 13.2232 49.6775 13.2232 49.4521 13.2232ZM49.5272 9.09092C49.3018 9.09092 49.1515 9.09092 48.926 9.16606C47.8738 9.46658 47.2726 10.5936 47.6483 11.5703C47.7987 12.0211 48.0993 12.4718 48.6254 12.6972C49.0763 12.9226 49.6024 12.9978 50.1285 12.8475C50.5794 12.6972 50.88 12.4718 51.1806 12.0962V12.0211V11.9459L50.8049 10.7438C50.8049 10.6687 50.6546 10.5936 50.5794 10.6687L49.5272 10.9692L49.4521 11.0443V11.1946L49.5272 11.2697H49.6775L50.5794 10.9692L50.88 11.9459L50.6546 12.0211C50.4291 12.2464 50.2036 12.3967 49.903 12.4718C49.4521 12.6221 49.0763 12.547 48.7005 12.3967C48.3247 12.1713 48.0241 11.8708 47.949 11.4951C47.7987 11.1195 47.8738 10.6687 48.0993 10.293C48.3247 9.91737 48.6254 9.61684 49.0763 9.54171C49.3769 9.46658 49.7527 9.46658 50.1285 9.54171H50.2788L50.3539 9.46658V9.31632L50.2788 9.24119C49.9782 9.16606 49.7527 9.09092 49.5272 9.09092Z" fill="black"/>
<path id="Vector_24" d="M55.3141 11.4967L54.8633 8.19089C54.8633 8.04063 54.9384 7.89037 55.1638 7.81524L56.967 7.58984C57.1172 7.58984 57.2675 7.66497 57.3426 7.89037C57.3426 8.04063 57.2675 8.1909 57.0421 8.26603L55.5395 8.41629L55.6897 9.46813L57.0421 9.31787C57.1924 9.31787 57.3426 9.393 57.4178 9.61839C57.4178 9.76866 57.3426 9.91892 57.1172 9.99405L55.7649 10.1443L55.9151 11.1962L57.4178 11.0459C57.568 11.0459 57.7183 11.121 57.7934 11.3464C57.7934 11.4967 57.7183 11.6469 57.4929 11.7221L55.6146 11.7972C55.4643 11.7972 55.3141 11.6469 55.3141 11.4967Z" fill="black"/>
<path id="Vector_25" d="M55.5396 11.9463C55.4645 11.9463 55.3893 11.8712 55.3142 11.796C55.239 11.7209 55.1639 11.6458 55.1639 11.4955L54.7881 8.1146C54.7881 7.96433 54.7881 7.8892 54.8632 7.73894C54.9384 7.66381 55.0136 7.58868 55.1639 7.58868L57.0427 7.36328C57.2682 7.36328 57.4937 7.51354 57.5688 7.73894C57.5688 7.8892 57.5688 7.96433 57.4937 8.1146C57.4185 8.18973 57.2682 8.26486 57.1931 8.26486L55.8403 8.41512L55.9154 9.16644L57.1179 9.01617C57.2682 9.01617 57.3434 9.01617 57.4937 9.09131C57.5688 9.16644 57.644 9.3167 57.644 9.39183C57.644 9.61723 57.4937 9.91775 57.2682 9.91775L56.0657 10.068L56.1409 10.8193L57.4937 10.6691C57.7191 10.6691 57.9446 10.8193 58.0198 11.1199C58.0198 11.2701 58.0198 11.3452 57.9446 11.4955C57.8694 11.5706 57.7191 11.6458 57.644 11.6458L55.6148 11.9463H55.5396ZM57.0427 7.73894L55.1639 7.96433L55.0135 8.03946V8.18973L55.3893 11.5706L55.4645 11.6458H55.5396L55.6899 11.4204V11.6458L57.4185 11.4204L57.4937 11.3452V11.195C57.4937 11.1199 57.4185 11.0447 57.3434 11.0447L55.7651 11.2701L55.6148 9.91775L57.1179 9.76749C57.1931 9.76749 57.2682 9.69236 57.2682 9.61723L57.1179 9.46696H56.9676L55.4645 9.61723L55.3893 8.26486L57.0427 8.03946L57.1179 7.96433V7.81407C57.1931 7.81407 57.1179 7.73894 57.0427 7.73894Z" fill="black"/>
<path id="Vector_26" d="M67.1138 11.9443L67.0386 11.8691V11.794L66.2871 8.26283C66.2119 8.11257 66.3622 7.9623 66.5125 7.88717C66.6629 7.81204 66.8132 7.9623 66.8883 8.11257L67.4896 10.8924L69.0678 8.48822C69.143 8.33796 69.3684 8.33796 69.5188 8.41309C69.6691 8.48822 69.6691 8.71362 69.5939 8.86388L67.5647 11.8691V11.9443H67.4896H67.4144H67.3393H67.2641H67.1889H67.1138Z" fill="black"/>
<path id="Vector_27" d="M67.4144 12.2462H67.3392H67.264H67.1889H67.1137H66.9634V12.171V12.0208H66.8883V11.9456V11.8705L66.1367 8.33933C66.1367 8.18907 66.1367 8.11394 66.2119 7.96368C66.287 7.88854 66.3622 7.81341 66.5125 7.73828C66.5877 7.73828 66.738 7.73828 66.8131 7.81341C66.8883 7.88854 66.9634 7.96368 67.0386 8.11394L67.5647 10.5933L68.9175 8.4896C68.9926 8.41446 69.0678 8.33933 69.2181 8.2642C69.3684 8.2642 69.4435 8.2642 69.5939 8.33933C69.669 8.41446 69.7442 8.4896 69.8193 8.63986C69.8193 8.79012 69.8193 8.86525 69.7442 9.01552L67.715 12.0208V12.0959H67.6398H67.5647L67.4144 12.2462ZM67.3392 11.8705H67.4144L67.4895 11.7954L69.4436 8.79012V8.63986L69.3684 8.56473H69.2181L69.1429 8.63986L67.3392 11.3446L66.6628 8.18907L66.5876 8.11394H66.4373L66.3622 8.18907V8.33933L67.1889 11.9456L67.3392 11.8705Z" fill="black"/>
<path id="Vector_28" d="M73.5767 9.9168C73.6518 9.76654 73.8021 9.69141 73.9523 9.69141C74.1026 9.76654 74.1777 9.9168 74.1777 10.0671L73.0508 13.2226C72.9756 13.3728 72.8254 13.448 72.6751 13.448C72.5248 13.3728 72.4497 13.2226 72.4497 13.0723L73.5767 9.9168Z" fill="black"/>
<path id="Vector_29" d="M72.7501 13.6001H72.5999C72.3745 13.525 72.2242 13.2244 72.2993 12.999L73.4263 9.84351C73.5014 9.61811 73.802 9.46785 74.0274 9.54298C74.1776 9.61811 74.2528 9.69324 74.3279 9.76838C74.403 9.91864 74.403 9.99377 74.3279 10.144L73.2009 13.2996C73.1258 13.4498 73.0506 13.525 72.9755 13.6001C72.9004 13.6001 72.8253 13.6001 72.7501 13.6001ZM73.7268 9.91864L72.5999 13.0742C72.5999 13.1493 72.5999 13.2244 72.675 13.2996H72.8253L72.9004 13.2244L74.0274 10.0689V9.91864L73.9522 9.84351C73.802 9.76838 73.7268 9.84351 73.7268 9.91864Z" fill="black"/>
<path id="Vector_30" d="M76.5832 14.7241L78.0858 11.7188C78.1609 11.5685 78.3863 11.4934 78.5366 11.5685C78.6869 11.6437 78.762 11.8691 78.6869 12.0193L77.3345 14.7241L78.6869 15.4002C78.8371 15.4754 78.9123 15.7008 78.8371 15.851C78.762 16.0013 78.5366 16.0764 78.3863 16.0013L76.7334 15.1748C76.5832 15.0997 76.5081 14.8743 76.5832 14.7241Z" fill="black"/>
<path id="Vector_31" d="M78.5366 16.1521C78.4615 16.1521 78.3864 16.1521 78.3112 16.077L76.6584 15.2505C76.433 15.1002 76.3578 14.8748 76.433 14.6495L77.9356 11.6442C78.0859 11.4188 78.3112 11.3437 78.5366 11.4188C78.6118 11.4939 78.762 11.5691 78.762 11.7193C78.8372 11.8696 78.762 11.9447 78.762 12.095L77.4097 14.6495L78.6869 15.2505C78.762 15.3256 78.9123 15.4008 78.9123 15.551C78.9874 15.7013 78.9123 15.7764 78.9123 15.9267C78.9123 16.077 78.6869 16.1521 78.5366 16.1521ZM76.7335 14.7997C76.6584 14.8748 76.7335 14.95 76.8086 15.0251L78.4615 15.8516C78.5366 15.9267 78.6118 15.8516 78.6869 15.7764V15.6262L78.6118 15.551L77.1091 14.7997L78.5366 11.9447V11.7945L78.4615 11.7193C78.3864 11.6442 78.3112 11.7193 78.2361 11.7945L76.7335 14.7997Z" fill="black"/>
<path id="Vector_32" d="M81.7691 17.6573L83.7225 14.9526C83.7976 14.8023 84.023 14.8023 84.1733 14.8775C84.3235 14.9526 84.3235 15.178 84.2484 15.3283L82.4453 17.8076L83.7225 18.7092C83.8728 18.7843 83.8728 19.0097 83.7976 19.16C83.7225 19.3102 83.4971 19.3102 83.3468 19.2351L81.8442 18.1833C81.6939 18.033 81.6939 17.8076 81.7691 17.6573Z" fill="black"/>
<path id="Vector_33" d="M83.5721 19.4573C83.497 19.4573 83.3467 19.4573 83.2716 19.3821L81.769 18.3303C81.5436 18.18 81.4684 17.8795 81.6187 17.6541L83.5721 14.9494C83.7224 14.724 84.0229 14.724 84.2483 14.8743C84.4737 15.0245 84.4737 15.325 84.3234 15.5504L82.5954 17.8795L83.7224 18.706C83.9478 18.8562 83.9478 19.1567 83.7975 19.3821C83.7975 19.3821 83.6473 19.4573 83.5721 19.4573ZM81.9192 17.8044C81.8441 17.8795 81.9192 17.9546 81.9192 18.0298L83.4219 19.1567C83.497 19.2319 83.5721 19.1567 83.6473 19.1567C83.7224 19.0816 83.6473 19.0065 83.6473 18.9314L82.2949 17.9546L84.1732 15.325C84.2483 15.2499 84.1732 15.1748 84.098 15.0997C84.0229 15.0245 83.9478 15.0997 83.8726 15.0997L81.9192 17.8044Z" fill="black"/>
<path id="Vector_34" d="M88.3074 22.3891L87.3304 21.4124L86.5788 21.7129C86.4285 21.7881 86.3533 21.7129 86.203 21.6378L86.1279 21.5627C86.0527 21.4124 86.1279 21.187 86.2782 21.1119L89.5099 19.6092C89.6602 19.5341 89.8105 19.6092 89.8856 19.6844C89.9608 19.7595 90.0359 19.9098 89.9608 20.06L88.5328 23.3658C88.4577 23.5161 88.3074 23.5912 88.0819 23.5161L88.0068 23.441C87.9316 23.3658 87.8564 23.2156 87.9316 23.0653L88.3074 22.3891ZM88.608 21.7881L89.1341 20.586L87.9316 21.1119L88.608 21.7881Z" fill="black"/>
<path id="Vector_35" d="M88.3075 23.7415L88.0821 23.6663L87.9318 23.5912C87.7815 23.441 87.7815 23.2156 87.8566 23.0653L88.1572 22.4642L87.3305 21.6378L86.7293 21.9383C86.579 22.0135 86.3535 22.0135 86.2032 21.8632L86.128 21.7129C86.0529 21.4875 86.128 21.187 86.3535 21.1119L89.5852 19.6092C89.7355 19.5341 89.961 19.6092 90.1113 19.6844C90.2616 19.8346 90.2616 19.9849 90.1864 20.2103L88.6833 23.5161C88.6833 23.5912 88.4579 23.7415 88.3075 23.7415ZM87.4057 21.2621L88.533 22.3891L88.1572 23.2156V23.3658H88.2324C88.3075 23.441 88.4578 23.3658 88.4578 23.2907L89.8858 19.9849L89.8106 19.8346L89.5852 19.7595L86.3535 21.2621C86.2783 21.3373 86.2032 21.4124 86.2784 21.4875V21.5627H86.4287L87.4057 21.2621ZM88.6833 22.0135L87.7063 21.0367L89.4349 20.2854L88.6833 22.0135ZM88.2324 21.187L88.6082 21.5627L88.9088 20.9616L88.2324 21.187Z" fill="black"/>
<path id="Vector_36" d="M91.9903 24.7916C92.8922 24.1154 94.245 24.3408 94.9214 25.2424C95.222 25.618 95.3723 26.0688 95.2971 26.5196C95.2971 26.6699 95.1468 26.8202 94.9965 26.8202C94.8462 26.8202 94.6959 26.6699 94.6959 26.4445C94.6959 26.144 94.6207 25.8434 94.3953 25.5429C94.1698 25.2424 93.794 25.017 93.4183 24.9419C93.0425 24.8667 92.6667 24.9419 92.3661 25.1673C92.0655 25.3927 91.84 25.6932 91.84 26.0688C91.7648 26.4445 91.84 26.8201 92.1406 27.1207C92.2909 27.3461 92.5164 27.4963 92.7419 27.6466L93.3431 27.1958L92.8922 26.5196C92.817 26.3694 92.817 26.144 92.9673 26.0688C93.1176 25.9937 93.3431 25.9937 93.4183 26.144L94.0946 27.0455C94.1698 27.1958 94.1698 27.4212 94.0195 27.4963L92.9673 28.2476L92.8922 28.3228H92.7419C92.2909 28.1725 91.9151 27.9471 91.6145 27.5715C90.863 26.745 91.0884 25.4678 91.9903 24.7916Z" fill="black"/>
<path id="Vector_37" d="M92.8167 28.6995H92.6663C92.2154 28.5492 91.7645 28.2487 91.4639 27.873C91.0881 27.4222 90.9378 26.8212 91.0129 26.2201C91.0881 25.6191 91.3887 25.0931 91.9148 24.7926C92.3657 24.417 92.967 24.2667 93.5682 24.417C94.1695 24.4921 94.6955 24.8677 94.9962 25.3185C95.2968 25.6942 95.4471 26.2201 95.4471 26.746C95.4471 26.8963 95.3719 26.9714 95.2968 27.0466C95.2216 27.1217 95.0713 27.1968 94.921 27.1968C94.7707 27.1968 94.6955 27.1217 94.6204 27.0466C94.5452 26.9714 94.4701 26.8212 94.4701 26.6709C94.4701 26.3704 94.3949 26.0698 94.2446 25.8445C94.0191 25.5439 93.7185 25.3937 93.4179 25.3185C93.0421 25.2434 92.7415 25.3185 92.4409 25.5439C92.1403 25.7693 91.99 25.9947 91.99 26.3704C91.9148 26.6709 91.9899 27.0466 92.2154 27.3471C92.3657 27.4973 92.516 27.6476 92.7415 27.7979L93.1924 27.4973L92.8167 26.9714C92.6663 26.746 92.7415 26.4455 92.8918 26.2952C92.967 26.2201 93.1173 26.2201 93.2676 26.2201C93.4179 26.2201 93.4931 26.2952 93.5682 26.4455L94.2446 27.3471C94.3949 27.5725 94.3949 27.873 94.1695 28.0233L93.1173 28.7746L93.0421 28.8497H92.967L92.8167 28.6995ZM93.1924 24.5672C92.8167 24.5672 92.4409 24.7175 92.0651 24.9429C91.6893 25.2434 91.3887 25.6942 91.3136 26.2201C91.2384 26.746 91.3887 27.272 91.6893 27.6476C91.9148 28.0233 92.2906 28.2487 92.7415 28.3989H92.8167H92.8918L93.944 27.6476L94.0191 27.5725V27.4222L93.3427 26.5206L93.1924 26.4455H93.0421C92.967 26.5206 92.967 26.5958 92.967 26.6709L93.5682 27.4222L92.7415 28.0233H92.6663C92.3657 27.873 92.1403 27.7227 91.99 27.4973C91.7645 27.1217 91.6142 26.746 91.6893 26.2952C91.7645 25.8445 91.99 25.5439 92.2906 25.2434C92.5912 25.018 93.0421 24.8677 93.4931 24.9429C93.8688 25.018 94.2446 25.2434 94.5452 25.6191C94.7707 25.9196 94.8458 26.2952 94.8458 26.5958L94.921 26.746L95.0713 26.8212L95.2216 26.746L95.2968 26.5958C95.2968 26.145 95.1465 25.6942 94.921 25.3937C94.6204 24.9429 94.1695 24.7175 93.6434 24.6424C93.4179 24.5672 93.2676 24.5672 93.1924 24.5672Z" fill="black"/>
<path id="Vector_38" d="M94.7706 32.1571L97.7768 30.6545C97.9271 30.5793 98.1526 30.6545 98.2278 30.8047L99.0545 32.4576C99.1296 32.6079 99.0545 32.8333 98.9042 32.9084C98.7538 32.9836 98.5284 32.9084 98.4532 32.7582L97.7768 31.4058L96.875 31.8566L97.4762 33.0587C97.5514 33.2089 97.4762 33.4343 97.3259 33.5095C97.1756 33.5846 96.9501 33.5095 96.875 33.3592L96.2737 32.1571L95.3719 32.6079L96.0483 33.9603C96.1234 34.1105 96.0483 34.3359 95.8979 34.411C95.7476 34.4862 95.5222 34.411 95.447 34.2608L94.6203 32.6079C94.5451 32.3825 94.6203 32.2322 94.7706 32.1571Z" fill="black"/>
<path id="Vector_39" d="M95.7478 34.5588H95.5975C95.4472 34.4836 95.372 34.4085 95.2969 34.3334L94.395 32.5302C94.395 32.4551 94.395 32.3799 94.395 32.3048C94.4702 32.1546 94.5453 32.0794 94.6205 32.0043L97.6267 30.5017C97.7018 30.4265 97.8522 30.4265 98.0025 30.5017C98.1528 30.5768 98.2279 30.6519 98.3031 30.7271L99.1298 32.3799C99.2801 32.6053 99.1298 32.9059 98.9043 32.981C98.8292 33.0561 98.6789 33.0561 98.5286 32.981C98.3783 32.9059 98.3031 32.8307 98.2279 32.7556L97.7019 31.5535L97.0255 31.854L97.5515 32.9059C97.7019 33.1313 97.5515 33.4318 97.3261 33.5069C97.1006 33.6572 96.8 33.5069 96.7248 33.2815L96.1987 32.3048L95.5223 32.6805L96.1236 33.9577C96.2739 34.1831 96.1236 34.4836 95.8981 34.5588C95.8981 34.5588 95.823 34.5588 95.7478 34.5588ZM94.846 32.6053L95.5975 34.108L95.6727 34.1831H95.823C95.8981 34.108 95.9733 34.0328 95.8981 33.9577L95.1466 32.4551L96.3491 31.854L97.0255 33.2064C97.1006 33.2815 97.1758 33.2815 97.2509 33.2815C97.3261 33.2064 97.3261 33.1313 97.3261 33.0561L96.6497 31.7038L97.8522 31.1027L98.6037 32.6053L98.6789 32.6805H98.8292C98.9043 32.6053 98.9043 32.5302 98.9043 32.4551L98.0776 30.8022C98.0025 30.7271 97.9273 30.6519 97.8522 30.7271L94.846 32.2297L94.7708 32.3048V32.3799L95.0714 32.4551L94.846 32.6053Z" fill="black"/>
<path id="Vector_40" d="M34.4964 82.1202C34.6467 82.0451 34.8722 82.1953 34.8722 82.3456C34.9473 82.7213 35.1728 83.1721 35.5486 83.3975C35.774 83.5477 36.0746 83.698 36.3001 83.698C36.5256 83.698 36.6759 83.6228 36.751 83.4726C36.8262 83.3975 36.8262 83.3223 36.8262 83.2472C36.8262 83.1721 36.8262 83.0969 36.8262 83.0218C36.751 82.7964 36.6007 82.571 36.3001 82.2705C36.0746 82.0451 35.9243 81.8197 35.774 81.5943C35.6237 81.3689 35.5486 81.1435 35.6237 80.843C35.6237 80.6927 35.6989 80.4673 35.8492 80.3922C36.0746 80.0917 36.4504 79.9414 36.751 79.9414C37.1268 79.9414 37.5026 80.0917 37.8032 80.3171C38.2541 80.6927 38.4796 81.1435 38.5548 81.5192C38.6299 81.6694 38.5548 81.8948 38.3293 81.8948C38.179 81.97 37.9535 81.8948 37.9535 81.6694C37.8032 81.2938 37.7281 80.9932 37.4274 80.7679C37.202 80.6176 36.9765 80.5425 36.751 80.5425C36.5256 80.5425 36.3753 80.6176 36.3001 80.6927L36.225 80.843C36.225 80.9181 36.225 80.9932 36.225 81.0684C36.3001 81.2186 36.4504 81.5192 36.6759 81.7446C36.9013 81.97 37.0517 82.1954 37.202 82.4959C37.3523 82.7213 37.4274 83.0218 37.3523 83.2472C37.3523 83.3975 37.2771 83.6228 37.1268 83.7731C36.9014 84.0736 36.5256 84.2239 36.1498 84.2239C35.774 84.2239 35.3982 84.0736 35.0225 83.8482C34.4964 83.4726 34.2709 82.8715 34.1206 82.4207C34.1958 82.3456 34.3461 82.1954 34.4964 82.1202Z" fill="black"/>
<path id="Vector_41" d="M36.3001 84.5223C35.8492 84.5223 35.3983 84.3721 35.0976 84.0716C34.5716 83.6208 34.2709 83.0197 34.1206 82.5689C34.0455 82.3435 34.1958 82.043 34.4212 81.9679C34.6467 81.8927 34.9473 82.043 35.0225 82.3435C35.0976 82.6441 35.3231 83.0949 35.6237 83.3202C35.8492 83.4705 36.0747 83.5456 36.3001 83.5456C36.4504 83.5456 36.6007 83.4705 36.6759 83.3954L36.7511 83.2451C36.7511 83.17 36.7511 83.0948 36.7511 83.0197C36.6759 82.8695 36.5256 82.5689 36.3001 82.3435C36.0747 82.1181 35.9243 81.8176 35.774 81.6673C35.6237 81.3668 35.5486 81.1414 35.6237 80.8409C35.6237 80.6155 35.6989 80.4653 35.8492 80.2399C36.0747 79.9393 36.4504 79.7891 36.9014 79.7891C37.2771 79.7891 37.7281 79.9393 38.0287 80.1647C38.5548 80.5404 38.7051 81.0663 38.8554 81.442C38.9306 81.7425 38.7803 81.9679 38.5548 82.043C38.4796 82.1181 38.3293 82.1181 38.179 82.043C38.0287 81.9679 37.9535 81.8927 37.9535 81.7425C37.8032 81.3668 37.7281 81.0663 37.4275 80.916C37.2771 80.7658 37.0517 80.6906 36.8262 80.6906C36.6759 80.6906 36.6007 80.6906 36.5256 80.7658L36.4504 80.8409C36.4504 80.8409 36.4504 80.916 36.4504 80.9912C36.5256 81.1414 36.6759 81.3668 36.9014 81.5922C37.1268 81.8927 37.3523 82.1181 37.4275 82.3435C37.5778 82.6441 37.6529 82.9446 37.6529 83.17C37.6529 83.3954 37.5778 83.5456 37.4275 83.771C37.1268 84.297 36.7511 84.5223 36.3001 84.5223ZM34.4964 82.2684C34.4212 82.2684 34.3461 82.4187 34.3461 82.4938C34.4212 82.8695 34.7219 83.4705 35.1728 83.8462C35.4734 84.0716 35.8492 84.2218 36.225 84.2218C36.6007 84.2218 36.9014 84.0716 37.1268 83.8462C37.202 83.6959 37.2771 83.5456 37.2771 83.3954C37.2771 83.17 37.2771 82.9446 37.1268 82.7192C37.0517 82.4938 36.8262 82.2684 36.6007 82.043C36.3753 81.7425 36.1498 81.5171 36.0747 81.2917C36.0747 81.2166 35.9995 81.0663 35.9995 80.9912C35.9995 80.916 35.9995 80.8409 36.0747 80.7658C36.1498 80.6906 36.3001 80.5404 36.6007 80.5404C36.8262 80.5404 37.1268 80.6155 37.3523 80.8409C37.6529 81.0663 37.8032 81.442 37.9535 81.8176L38.0287 81.8927H38.179L38.2542 81.8176V81.6673C38.1039 81.2917 37.9535 80.8409 37.5026 80.5404C37.202 80.315 36.9014 80.1647 36.5256 80.1647C36.225 80.1647 35.9244 80.315 35.6989 80.5404C35.6237 80.6906 35.5486 80.7658 35.5486 80.916C35.5486 81.1414 35.5486 81.3668 35.6989 81.5922C35.774 81.8176 35.9243 81.9679 36.1498 82.1933C36.4504 82.4938 36.6007 82.7943 36.6759 83.0197C36.7511 83.17 36.7511 83.2451 36.7511 83.3202C36.7511 83.3954 36.6759 83.4705 36.6759 83.6208C36.6007 83.771 36.3753 83.8462 36.0747 83.8462C35.774 83.8462 35.4734 83.6959 35.248 83.5456C34.8722 83.2451 34.6467 82.7943 34.5716 82.3435C34.7219 82.3435 34.5716 82.2684 34.4964 82.2684Z" fill="black"/>
<path id="Vector_42" d="M42.087 85.8017C42.6131 84.6748 43.9659 84.224 45.0181 84.7499C45.5442 84.9753 45.9199 85.351 46.1454 85.8017C46.2206 85.952 46.1454 86.1774 45.9951 86.2525C45.8448 86.3277 45.6193 86.2525 45.5442 86.1023C45.3938 85.8017 45.1684 85.5763 44.7926 85.351C44.4168 85.2007 43.9659 85.2007 43.5901 85.2758C43.2143 85.4261 42.9137 85.6515 42.7634 86.0271C42.6131 86.4028 42.6131 86.8536 42.7634 87.1541C42.9137 87.5298 43.2143 87.8303 43.5901 87.9806C43.9659 88.1308 44.2665 88.2059 44.6423 88.0557C44.7926 88.0557 45.0181 88.1308 45.0932 88.3562C45.0932 88.5065 45.0181 88.7319 44.8678 88.807C44.4168 88.9573 43.8907 88.8821 43.3647 88.6567C42.087 88.206 41.5609 86.8536 42.087 85.8017Z" fill="black"/>
<path id="Vector_43" d="M44.1912 89.1053C43.8154 89.1053 43.5148 89.0302 43.139 88.8799C41.9365 88.354 41.4104 86.9265 41.9365 85.7244C42.4626 84.5223 43.8905 83.9963 45.093 84.5974C45.6191 84.8228 45.9949 85.1984 46.2203 85.7244C46.3707 85.9498 46.2203 86.2503 45.9949 86.4005C45.7694 86.5508 45.4688 86.4005 45.3185 86.1752C45.1682 85.8746 44.9427 85.6492 44.6421 85.499C44.3415 85.3487 43.8905 85.3487 43.5899 85.4238C43.2141 85.5741 42.9887 85.7995 42.8384 86.1C42.688 86.4005 42.688 86.7762 42.8384 87.1519C42.9887 87.5275 43.2141 87.7529 43.5899 87.9032C43.8905 88.0534 44.1912 88.0534 44.5669 87.9783C44.7924 87.9032 45.093 88.1286 45.1682 88.354C45.2433 88.6545 45.093 88.8799 44.7924 88.955C44.5669 89.0302 44.3415 89.1053 44.1912 89.1053ZM42.2371 85.8746C41.7862 86.9265 42.2371 88.1286 43.2893 88.6545C43.7402 88.8799 44.1912 88.8799 44.7172 88.8048C44.7924 88.8048 44.8676 88.6545 44.8676 88.5794C44.8676 88.5042 44.7172 88.4291 44.6421 88.4291C44.2663 88.5042 43.8905 88.5042 43.5148 88.354C43.139 88.2037 42.7632 87.828 42.6129 87.3773C42.4626 87.0016 42.4626 86.4757 42.6129 86.1C42.7632 85.7244 43.139 85.4238 43.5148 85.2736C43.9657 85.1233 44.4166 85.1233 44.7924 85.3487C45.1682 85.499 45.4688 85.7995 45.6191 86.1C45.6943 86.1752 45.7694 86.2503 45.9197 86.1752C45.9949 86.1 46.07 86.0249 45.9949 85.8746C45.7694 85.4238 45.3936 85.1233 44.9427 84.8979C43.9657 84.372 42.6881 84.8228 42.2371 85.8746Z" fill="black"/>
<path id="Vector_44" d="M51.1052 87.304C51.1803 87.1537 51.3306 87.0034 51.4809 87.0786C51.6311 87.1537 51.7814 87.304 51.7063 87.4542L50.8798 90.9854C50.8047 91.1357 50.6544 91.2859 50.5042 91.2108C50.3539 91.1357 50.2036 90.9854 50.2788 90.8352L51.1052 87.304Z" fill="black"/>
<path id="Vector_45" d="M50.5791 91.3591H50.4289C50.2786 91.3591 50.2035 91.2839 50.1284 91.1337C50.0532 91.0585 50.0532 90.9083 50.0532 90.758L50.8797 87.2268C50.9548 86.9263 51.1802 86.776 51.4807 86.8512C51.7812 86.9263 51.9315 87.1517 51.8564 87.4522L51.0299 90.9834C51.0299 91.1337 50.9548 91.2088 50.8045 91.2839C50.8045 91.3591 50.7294 91.3591 50.5791 91.3591ZM51.2553 87.302L50.4289 90.8331V90.9834L50.5791 91.0585H50.7294L50.8045 90.9083L51.631 87.3771C51.631 87.302 51.5559 87.1517 51.4807 87.1517C51.4056 87.1517 51.3305 87.2268 51.2553 87.302Z" fill="black"/>
<path id="Vector_46" d="M56.5918 91.8873L56.8172 88.281C56.8172 88.0556 56.9675 87.9805 57.1928 87.9805L59.1463 88.0556C59.2965 88.0556 59.4468 88.2059 59.4468 88.4313C59.4468 88.6567 59.2965 88.7318 59.0711 88.7318L57.4182 88.6567L57.3431 89.7836L58.7706 89.8588C58.9209 89.8588 59.0711 90.009 59.0711 90.2344C59.0711 90.4598 58.9209 90.5349 58.6955 90.5349L57.268 90.4598L57.1928 91.5868L58.8457 91.6619C58.996 91.6619 59.1463 91.8122 59.1463 92.0376C59.1463 92.1878 58.996 92.3381 58.7706 92.3381L56.8172 92.263C56.7421 92.1878 56.5918 92.0376 56.5918 91.8873Z" fill="black"/>
<path id="Vector_47" d="M58.9216 92.4863L56.742 92.336C56.5166 92.2609 56.3663 92.0355 56.4414 91.8852L56.6669 88.2789C56.6669 87.9784 56.8924 87.8281 57.193 87.8281L59.2222 87.9033C59.5228 87.9033 59.6731 88.1286 59.6731 88.4292C59.6731 88.7297 59.4476 88.88 59.147 88.88L57.6439 88.8048L57.5688 89.6313L58.8464 89.7064C59.147 89.7064 59.2973 89.9318 59.2973 90.2323C59.2973 90.3826 59.2222 90.4577 59.147 90.608C59.0719 90.6831 58.9215 90.7583 58.7712 90.7583L57.4936 90.6831L57.4184 91.5096L58.9216 91.5847C59.0719 91.5847 59.147 91.6598 59.2222 91.735C59.2973 91.8101 59.3725 91.9604 59.3725 92.1106C59.4476 92.2609 59.2222 92.4863 58.9216 92.4863ZM57.1178 92.0355L58.9967 92.1106C59.0719 92.1106 59.2222 92.0355 59.2222 91.9604L59.147 91.8101L58.9967 91.735L57.1178 91.6598L57.193 90.2323L58.7712 90.3075L58.9216 90.2323L58.9967 90.0821C58.9967 90.0069 58.9216 89.8567 58.8464 89.8567L57.2681 89.7815L57.3433 88.354L59.147 88.4292C59.2222 88.4292 59.3725 88.354 59.3725 88.2789C59.3725 88.2038 59.2973 88.0535 59.2222 88.0535L57.2681 87.9784C57.1178 87.9784 57.0427 88.0535 57.0427 88.1287L56.8172 91.735C56.8172 91.8101 56.8924 91.8852 56.9675 91.8852L57.193 91.6598L57.1178 92.0355Z" fill="black"/>
<path id="Vector_48" d="M65.5355 91.6605C65.5355 91.8107 65.4603 92.0361 65.2349 92.0361C65.0846 92.0361 64.8591 91.961 64.8591 91.7356L64.333 88.2044C64.333 88.1293 64.333 87.979 64.4082 87.9039C64.5585 87.7536 64.7839 87.7536 64.8591 87.9039L67.2641 90.3081L66.8883 87.8288C66.8883 87.6785 66.9634 87.4531 67.1889 87.4531C67.3392 87.4531 67.5647 87.5283 67.5647 87.7537L68.0908 91.2848C68.0908 91.4351 68.0156 91.6605 67.7901 91.6605C67.715 91.6605 67.5647 91.6605 67.4895 91.5854L65.1597 89.1811L65.5355 91.6605Z" fill="black"/>
<path id="Vector_49" d="M65.2348 92.1873C65.0094 92.1873 64.7839 92.0371 64.7839 91.8117L64.2578 88.2805C64.2578 88.1302 64.2578 87.98 64.4081 87.8297C64.6336 87.6795 64.9342 87.6795 65.0845 87.8297L67.1137 89.8583L66.8131 87.8297C66.7379 87.6043 66.9634 87.3038 67.1889 87.3038C67.4143 87.2287 67.715 87.4541 67.715 87.6795L68.241 91.2106C68.3162 91.5112 68.0907 91.7366 67.8653 91.7366C67.715 91.7366 67.5646 91.7366 67.4895 91.5863L67.4143 91.5112L65.3851 89.4826L65.6858 91.5112C65.7609 91.7366 65.5355 92.0371 65.31 92.0371L65.2348 92.1873ZM64.7087 87.98L64.5584 88.0551L64.4833 88.2054L65.0094 91.7366C65.0094 91.8117 65.0845 91.8868 65.2348 91.8868C65.31 91.8868 65.3851 91.7366 65.3851 91.6614L64.9342 88.6562L67.6398 91.3609L67.7901 91.436C67.8653 91.436 67.9404 91.2858 67.9404 91.2106L67.4143 87.6795C67.4143 87.6043 67.264 87.5292 67.1889 87.5292C67.1137 87.5292 67.0386 87.6043 67.0386 87.7546L67.4895 90.6847L64.7839 87.98H64.7087Z" fill="black"/>
<path id="Vector_50" d="M73.201 87.903C72.7501 86.776 73.2762 85.4987 74.4787 84.9728C75.0047 84.7474 75.5308 84.7474 75.9818 84.8977C76.1321 84.9728 76.2824 85.1231 76.2072 85.3485C76.1321 85.5739 75.9818 85.649 75.7563 85.5739C75.4557 85.4987 75.0799 85.4987 74.7041 85.649C74.3283 85.7993 74.0277 86.0998 73.8774 86.4755C73.7271 86.8511 73.7271 87.2268 73.8774 87.6024C74.0277 87.9781 74.3283 88.2786 74.7041 88.4289C75.0799 88.5791 75.5308 88.5791 75.9066 88.4289C76.2824 88.2786 76.5078 88.0532 76.6582 87.7527C76.7333 87.6024 76.9588 87.5273 77.1091 87.6024C77.2594 87.6776 77.3346 87.903 77.2594 88.0532C77.0339 88.504 76.6582 88.8045 76.1321 89.0299C75.0047 89.5558 73.6519 89.0299 73.201 87.903Z" fill="black"/>
<path id="Vector_51" d="M75.2303 89.4065C74.3285 89.4065 73.4266 88.8806 73.0508 87.979C72.5999 86.7769 73.126 85.4245 74.4036 84.8986C74.9297 84.6732 75.4558 84.6732 75.9819 84.8235C76.2073 84.8986 76.3577 85.1991 76.3577 85.4245C76.2825 85.725 75.9819 85.8753 75.7564 85.8002C75.4558 85.725 75.1552 85.7251 74.7794 85.8753C74.4788 86.0256 74.1782 86.251 74.0278 86.6266C73.8775 87.0023 73.8775 87.3028 74.0278 87.6785C74.1782 87.979 74.4036 88.2795 74.7794 88.4298C75.1552 88.58 75.531 88.58 75.8316 88.4298C76.1322 88.2795 76.3577 88.1293 76.508 87.8287C76.6583 87.6033 76.9589 87.5282 77.1844 87.6785C77.4098 87.8287 77.485 88.1293 77.4098 88.3547C77.1092 88.8054 76.7334 89.1811 76.2074 89.4065C75.9067 89.4065 75.6061 89.4065 75.2303 89.4065ZM73.3514 87.8287C73.8024 88.8806 75.0049 89.4065 76.057 88.9557C76.508 88.8054 76.8837 88.4298 77.1092 88.0541C77.1844 87.979 77.1092 87.8287 77.0341 87.7536C76.9589 87.6785 76.8086 87.7536 76.7334 87.8287C76.508 88.2044 76.2825 88.4298 75.9067 88.58C75.531 88.7303 75.0049 88.7303 74.6291 88.58C74.2533 88.4298 73.8775 88.0541 73.7272 87.6785C73.5769 87.3028 73.5769 86.852 73.7272 86.4012C73.9527 85.9504 74.2533 85.6499 74.6291 85.4997C75.0049 85.3494 75.3806 85.3494 75.7564 85.4245C75.8316 85.4245 75.9819 85.4245 75.9819 85.2743C75.9819 85.1991 75.9067 85.0489 75.8316 85.0489C75.3806 84.8986 74.9297 84.9737 74.4036 85.124C73.4266 85.5748 72.9005 86.852 73.3514 87.8287Z" fill="black"/>
<path id="Vector_52" d="M82.5205 85.4253L80.4913 82.4201C80.4161 82.2698 80.4161 82.0444 80.5664 81.9693L82.2198 80.8423C82.3701 80.7672 82.5956 80.7672 82.6708 80.9174C82.7459 81.0677 82.7459 81.2931 82.5956 81.3682L81.2428 82.2698L81.8441 83.1714L83.0465 82.3449C83.1969 82.2698 83.4223 82.2698 83.4975 82.4201C83.5726 82.5703 83.5726 82.7957 83.4223 82.8709L82.2198 83.6973L82.8211 84.5989L84.1739 83.6973C84.3242 83.6222 84.5496 83.6222 84.6248 83.7724C84.7 83.9227 84.7 84.1481 84.5496 84.2232L82.8962 85.3502C82.8211 85.5756 82.5956 85.5756 82.5205 85.4253Z" fill="black"/>
<path id="Vector_53" d="M82.7459 85.651H82.6707C82.5204 85.651 82.4452 85.5759 82.3701 85.4256L80.3409 82.4204C80.1906 82.195 80.2657 81.8945 80.4912 81.7442L82.1446 80.6172C82.3701 80.467 82.6707 80.5421 82.821 80.7675C82.8962 80.8426 82.8962 80.9929 82.8962 81.1432C82.8962 81.2934 82.821 81.3686 82.6707 81.4437L81.3931 82.2701L81.844 82.9463L82.8962 82.195C82.9713 82.1199 83.1216 82.1199 83.272 82.1199C83.4223 82.1199 83.4974 82.195 83.5726 82.3453C83.7229 82.5707 83.6477 82.8712 83.4223 83.0214L82.3701 83.7728L82.821 84.4489L84.0987 83.6225C84.3241 83.4722 84.6247 83.5474 84.7751 83.7728C84.9254 83.9982 84.8502 84.2987 84.6247 84.4489L82.8962 85.5759C82.8962 85.651 82.821 85.651 82.7459 85.651ZM82.5956 85.2754L82.7459 85.3505H82.821L82.8962 85.05L83.0465 85.2003L84.5496 84.1484C84.6247 84.0733 84.6247 83.9982 84.6247 83.923C84.5496 83.8479 84.4744 83.8479 84.3241 83.8479L82.821 84.8997L81.9943 83.6976L83.272 82.796C83.3471 82.7209 83.3471 82.6458 83.3471 82.4955L83.1968 82.4204H83.0465L81.7688 83.322L80.9421 82.1199L82.4452 81.068L82.5204 80.9178V80.7675C82.4452 80.6924 82.3701 80.6924 82.2949 80.6924L80.6415 81.8193C80.5664 81.8945 80.4912 81.9696 80.5664 82.1199L82.5956 85.2754Z" fill="black"/>
<path id="Vector_54" d="M60.2745 99.9986C38.3292 99.9986 18.7137 85.4982 12.2503 64.6116H0V62.3577H13.9037L14.1292 63.1841C20.0665 83.5448 39.0056 97.7446 60.2745 97.7446C81.9193 97.7446 100.934 83.1691 106.645 62.3577L106.871 61.5312H121V63.7852H108.524C102.361 85.1225 82.6708 99.9986 60.2745 99.9986Z" fill="black"/>
<path id="Vector_55" d="M60.1994 82.7192C47.3479 82.7192 35.6236 75.2061 30.2125 63.5607C30.1373 63.3353 30.1373 63.0348 30.2876 62.8094C30.4379 62.584 30.6634 62.4337 30.8888 62.4337H39.6069C40.0578 62.4337 40.3584 62.7343 40.3584 63.1851C40.3584 63.6358 40.0578 63.9364 39.6069 63.9364H32.0913C37.4274 74.4548 48.3249 81.1415 60.1994 81.1415C72.5249 81.1415 83.5727 74.0791 88.7584 62.9597H81.4684C81.0174 62.9597 80.7168 62.6591 80.7168 62.2083C80.7168 61.7576 81.0174 61.457 81.4684 61.457H89.9609C90.1864 61.457 90.4118 61.6073 90.5621 61.7576C90.7125 61.9829 90.7125 62.2083 90.6373 62.4337C85.3764 74.8304 73.5019 82.7192 60.1994 82.7192Z" fill="black"/>
<path id="Vector_56" d="M29.6863 76.26C29.4609 76.26 29.2354 76.1849 29.0851 75.9595C26.0037 72.3532 23.4484 68.2961 21.5696 63.7882C21.4193 63.4125 21.5696 62.9618 21.9453 62.8115C22.3211 62.6612 22.772 62.8115 22.9224 63.1871C24.7261 67.4696 27.2062 71.4516 30.1373 74.9077C30.4379 75.2082 30.3627 75.7341 30.0621 75.9595C29.987 76.26 29.8366 76.26 29.6863 76.26Z" fill="black"/>
<path id="Vector_57" d="M89.8108 77.2339C89.6605 77.2339 89.435 77.1588 89.2847 77.0085C88.9841 76.708 88.9841 76.2572 89.2095 75.9567C92.8921 71.8996 95.7481 67.2414 97.7773 61.9822C97.9276 61.6066 98.3785 61.3812 98.7543 61.5314C99.13 61.6817 99.3555 62.1325 99.2052 62.5081C97.1008 67.9176 94.1698 72.726 90.3369 76.9334C90.1866 77.0837 89.9611 77.2339 89.8108 77.2339Z" fill="black"/>
<path id="Vector_58" d="M72.0739 64.6875C71.5478 64.2367 70.8714 64.0113 70.2701 64.0113C69.5937 64.0113 68.9925 64.2367 68.4664 64.6875C68.3161 64.7626 68.2409 64.988 68.2409 65.1383C68.2409 65.2885 68.2409 65.4388 68.2409 65.589C68.2409 66.4906 68.3912 67.3171 68.767 67.9932C68.9173 68.3689 69.1428 68.5943 69.3683 68.8197C69.4434 68.8948 69.5937 68.97 69.744 69.0451V70.8482L66.1366 69.4207V67.1668C66.1366 65.7393 65.3099 64.4621 63.9571 63.9361L62.7546 63.4854C60.8006 62.734 58.5459 62.734 56.5919 63.4854L55.3894 63.861C54.0366 64.3869 53.2099 65.6642 53.2099 67.0917V69.3456L49.6024 70.7731L49.4521 70.8482C49.1515 70.9985 48.926 71.2239 48.7757 71.4493C48.6254 71.7498 48.4751 72.0504 48.4751 72.426C48.4751 72.8017 48.5503 73.1022 48.7757 73.4027C49.0012 73.7032 49.2267 73.9286 49.6024 74.0789L57.4186 77.0842C58.1701 77.3847 58.9217 77.5349 59.6732 77.5349C60.4248 77.5349 61.1763 77.3847 61.9279 77.0842L69.744 74.0789C70.1198 73.9286 70.3453 73.7032 70.5707 73.4027C70.7211 73.1773 70.7962 72.9519 70.7962 72.6514V72.5011V68.97C70.9465 68.8948 71.0217 68.8197 71.172 68.7446C71.5478 68.444 71.7732 67.9932 71.9987 67.3922C72.149 66.8663 72.2993 66.1901 72.2993 65.5139C72.2993 65.3636 72.2993 65.2134 72.2993 65.0631C72.2993 64.9129 72.2242 64.7626 72.0739 64.6875ZM71.0968 65.5139C71.0968 66.1901 70.9465 66.8663 70.7211 67.3922C70.7211 67.4673 70.6459 67.5425 70.6459 67.6176V65.2885C70.7962 65.2885 70.9465 65.3636 71.0968 65.5139ZM64.9341 68.8948L61.9279 67.7679C60.4999 67.2419 58.8465 67.2419 57.4186 67.7679L54.4124 68.8948V67.0917C54.4124 66.115 54.9385 65.2885 55.8403 64.988L57.0428 64.5372C57.8695 64.2367 58.7714 64.0113 59.6732 64.0113C60.5751 64.0113 61.477 64.1615 62.3037 64.5372L63.5062 64.988C64.3329 65.2885 64.9341 66.1901 64.9341 67.0917V68.8948ZM59.6732 68.5943C60.2745 68.5943 60.8757 68.7446 61.477 68.8948L69.2931 71.9001C69.3683 71.9752 69.4434 71.9752 69.5186 72.1255C69.5937 72.2006 69.5937 72.3509 69.5937 72.426C69.5937 72.5011 69.5937 72.6514 69.5186 72.7265C69.4434 72.8017 69.3683 72.8768 69.2931 72.9519L61.477 75.9572C60.3496 76.408 58.9968 76.408 57.8695 75.9572L50.0534 72.9519C49.9782 72.8768 49.9031 72.8768 49.8279 72.7265C49.7527 72.6514 49.7527 72.5011 49.7527 72.426C49.7527 72.3509 49.7527 72.2006 49.8279 72.1255C49.9031 72.0503 49.9782 71.9752 50.0534 71.9001L57.8695 68.8948C58.3956 68.6694 58.9968 68.5943 59.6732 68.5943ZM69.8944 65.2885V67.6176C69.8192 67.4673 69.744 67.3171 69.6689 67.0165C69.5186 66.5657 69.4434 66.0398 69.4434 65.5139V65.4388C69.5937 65.3636 69.744 65.2885 69.8944 65.2885Z" fill="black"/>
<path id="Vector_59" d="M48.7005 35.4609C49.2266 35.9117 49.903 36.1371 50.5042 36.1371C51.1806 36.1371 51.7819 35.9117 52.308 35.4609C52.4583 35.3858 52.5334 35.1604 52.5334 35.0101C52.5334 34.8599 52.5334 34.7096 52.5334 34.5594C52.5334 33.6578 52.3831 32.8313 52.0074 32.1551C51.857 31.7795 51.6316 31.5541 51.4061 31.3287C51.331 31.2536 51.1806 31.1784 51.0303 31.1033V29.3001L54.5626 30.6525V32.9065C54.5626 34.334 55.3893 35.6112 56.7421 36.1371L57.9446 36.5879C58.9216 36.9636 59.9738 37.189 61.026 37.189C62.0782 37.189 63.1303 36.9636 64.1074 36.5879L65.3098 36.1371C66.6626 35.6112 67.4893 34.334 67.4893 32.9065V30.6525L71.0968 29.225L71.2471 29.1499C71.5477 28.9996 71.7732 28.7742 71.9235 28.5488C72.0738 28.2483 72.2241 27.9478 72.2241 27.5721C72.2241 27.1965 72.149 26.8959 71.9235 26.5954C71.698 26.2949 71.4726 26.0695 71.0968 25.9192L63.2806 22.914C61.8527 22.3881 60.1993 22.3881 58.7713 22.914L50.9552 25.9192C50.5794 26.0695 50.3539 26.2949 50.1285 26.5954C49.9782 26.8208 49.903 27.0462 49.903 27.3467V27.497V31.0282C49.7527 31.1033 49.6775 31.1784 49.5272 31.2536C49.1515 31.5541 48.926 32.0049 48.7005 32.6059C48.5502 33.1319 48.3999 33.808 48.3999 34.4842C48.3999 34.6345 48.3999 34.7847 48.3999 34.935C48.4751 35.1604 48.5502 35.3107 48.7005 35.4609ZM49.6775 34.5594C49.6775 33.8832 49.8279 33.207 50.0533 32.6811C50.0533 32.6059 50.1285 32.5308 50.1285 32.4557V34.7847C49.9782 34.7847 49.8279 34.7096 49.6775 34.5594ZM55.9154 31.1784L58.9216 32.3054C60.3496 32.8313 62.003 32.8313 63.431 32.3054L66.4372 31.1784V32.9816C66.4372 33.9583 65.9111 34.7847 65.0092 35.0853L63.8067 35.5361C62.0782 36.2122 60.1993 36.2122 58.5459 35.5361L57.3434 35.0853C56.5167 34.7847 55.9154 33.8832 55.9154 32.9816V31.1784ZM59.2974 31.1784L51.4813 28.1732C51.4061 28.098 51.331 28.098 51.2558 27.9478C51.1806 27.8726 51.1055 27.7975 51.1055 27.6473C51.1055 27.5721 51.1055 27.4219 51.1806 27.3467C51.2558 27.2716 51.331 27.1965 51.4061 27.1213L59.2223 24.1161C60.4247 23.6653 61.7024 23.6653 62.8297 24.1161L70.6459 27.1213C70.721 27.1965 70.7962 27.1965 70.8713 27.3467C70.9465 27.4219 70.9465 27.5721 70.9465 27.6473C70.9465 27.7224 70.9465 27.8726 70.8713 27.9478C70.7962 28.0229 70.721 28.098 70.6459 28.1732L62.8297 31.1784C61.7775 31.6292 60.4999 31.6292 59.2974 31.1784ZM50.88 34.8599V32.5308C50.9552 32.6811 51.0303 32.8313 51.1055 33.1319C51.2558 33.5826 51.331 34.1086 51.331 34.6345V34.7096C51.2558 34.7096 51.0303 34.7847 50.88 34.8599Z" fill="black"/>
</g>
<defs>
<clipPath id="clip0_5594_1497">
<rect width="121" height="100" fill="white"/>
</clipPath>
</defs>
</svg>
