<svg width="105" height="100" viewBox="0 0 105 100" fill="none" xmlns="http://www.w3.org/2000/svg">
<g id="Frame" clip-path="url(#clip0_5594_1442)">
<path id="Vector" d="M0 57.4071V42.0938H2.19784V48.6465H6.52262V42.0938H8.72046V57.4071H6.52262V50.8544H2.19784V57.4071H0Z" fill="black"/>
<path id="Vector_2" d="M12.9745 42.0938H10.7766V57.4071H12.9745V42.0938Z" fill="black"/>
<path id="Vector_3" d="M16.2356 56.126C15.3849 55.2713 14.9595 54.2742 14.9595 52.9921V46.4394C14.9595 45.2286 15.3849 44.2314 16.2356 43.3055C17.0864 42.4508 18.079 42.0234 19.3552 42.0234C20.5604 42.0234 21.553 42.4508 22.4747 43.3055C23.3254 44.1602 23.7508 45.1573 23.7508 46.3682H21.553C21.553 45.7984 21.3403 45.2286 20.9149 44.8012C20.4895 44.3739 19.9932 44.1602 19.3552 44.1602C18.788 44.1602 18.2208 44.3739 17.7954 44.8012C17.37 45.2286 17.1573 45.7271 17.1573 46.3682V52.9209C17.1573 53.4907 17.37 54.0605 17.7954 54.4878C18.2208 54.9152 18.7171 55.1289 19.3552 55.1289C19.9223 55.1289 20.4895 54.9152 20.9149 54.4878C21.3403 54.0605 21.553 53.5619 21.553 52.9209V50.7129H19.3552V48.5049H23.7508V52.9209C23.7508 54.1317 23.3254 55.2001 22.4747 56.0548C21.6239 56.9095 20.6313 57.3368 19.426 57.3368C18.079 57.4081 17.0864 56.9807 16.2356 56.126Z" fill="black"/>
<path id="Vector_4" d="M25.665 57.4071V42.0938H27.8629V48.6465H32.1877V42.0938H34.3855V57.4071H32.1877V50.8544H27.8629V57.4071H25.665Z" fill="black"/>
<path id="Vector_5" d="M44.0276 56.1269C43.1769 55.2722 42.7515 54.2751 42.7515 52.993H44.9493C44.9493 53.5628 45.162 54.1326 45.5874 54.56C46.0128 54.9873 46.5091 55.201 47.1471 55.201C47.7143 55.201 48.2815 54.9873 48.7069 54.56C49.1323 54.1326 49.345 53.634 49.345 52.993C49.345 52.4232 49.1323 51.8534 48.7069 51.4261C48.2815 50.9987 47.7852 50.785 47.1471 50.785C45.9419 50.785 44.8784 50.3577 44.0276 49.503C43.1769 48.6483 42.7515 47.6511 42.7515 46.3691C42.7515 45.1583 43.1769 44.1611 44.0276 43.2352C44.8784 42.3805 45.871 41.9531 47.1471 41.9531C48.3524 41.9531 49.345 42.3805 50.2667 43.2352C51.1174 44.0899 51.5428 45.087 51.5428 46.2979H49.345C49.345 45.7281 49.1323 45.1583 48.7069 44.7309C48.2815 44.3036 47.7852 44.0899 47.1471 44.0899C46.58 44.0899 46.0128 44.3036 45.5874 44.7309C45.162 45.1583 44.9493 45.6568 44.9493 46.2979C44.9493 46.8677 45.162 47.4375 45.5874 47.8648C46.0128 48.2922 46.5091 48.5058 47.1471 48.5058C48.3524 48.5058 49.345 48.9332 50.2667 49.7879C51.1174 50.6426 51.5428 51.6397 51.5428 52.8506C51.5428 54.0614 51.1174 55.1298 50.2667 55.9845C49.4159 56.8392 48.4233 57.2665 47.218 57.2665C45.871 57.409 44.8784 56.9816 44.0276 56.1269Z" fill="black"/>
<path id="Vector_6" d="M54.6624 56.126C53.8116 55.2713 53.3862 54.2742 53.3862 52.9921V46.4394C53.3862 45.2286 53.8116 44.2314 54.6624 43.3055C55.5132 42.4508 56.5057 42.0234 57.7819 42.0234C58.9872 42.0234 59.9797 42.4508 60.9014 43.3055C61.7522 44.1602 62.1776 45.1573 62.1776 46.3682H59.9797C59.9797 45.7984 59.767 45.2286 59.3417 44.8012C58.9163 44.3739 58.42 44.1602 57.7819 44.1602C57.2147 44.1602 56.6475 44.3739 56.2222 44.8012C55.7968 45.2286 55.5841 45.7271 55.5841 46.3682V52.9209C55.5841 53.4907 55.7968 54.0605 56.2222 54.4878C56.6475 54.9152 57.1438 55.1289 57.7819 55.1289C58.3491 55.1289 58.9163 54.9152 59.3417 54.4878C59.767 54.0605 59.9797 53.5619 59.9797 52.9209H62.1776C62.1776 54.1317 61.7522 55.2001 60.9014 56.0548C60.0506 56.9095 59.0581 57.3368 57.8528 57.3368C56.5766 57.4081 55.5841 56.9807 54.6624 56.126Z" fill="black"/>
<path id="Vector_7" d="M64.1628 57.4071V42.0938H66.2898V48.6465H70.6855V42.0938H72.8833V57.4071H70.6855V50.8544H66.2898V57.4071H64.1628Z" fill="black"/>
<path id="Vector_8" d="M76.1446 56.126C75.2938 55.2713 74.8684 54.2742 74.8684 52.9921V46.4394C74.8684 45.2286 75.2938 44.2314 76.1446 43.3055C76.9954 42.4508 77.9879 42.0234 79.2641 42.0234C80.4694 42.0234 81.4619 42.4508 82.3836 43.3055C83.2344 44.1602 83.6598 45.1573 83.6598 46.3682V52.9209C83.6598 54.1317 83.2344 55.2001 82.3836 56.0548C81.5328 56.9095 80.5403 57.3368 79.335 57.3368C77.9879 57.4081 76.9954 56.9807 76.1446 56.126ZM80.7529 54.559C81.1783 54.1317 81.391 53.6331 81.391 52.9921V46.4394C81.391 45.8696 81.1783 45.2998 80.7529 44.8724C80.3276 44.4451 79.8313 44.2314 79.1932 44.2314C78.626 44.2314 78.0588 44.4451 77.6334 44.8724C77.208 45.2998 76.9953 45.7984 76.9953 46.4394V52.9921C76.9953 53.5619 77.208 54.1317 77.6334 54.559C78.0588 54.9864 78.5551 55.2001 79.1932 55.2001C79.8313 55.2001 80.3276 54.9864 80.7529 54.559Z" fill="black"/>
<path id="Vector_9" d="M86.7791 56.126C85.9283 55.2713 85.5029 54.2742 85.5029 52.9921V46.4394C85.5029 45.2286 85.9283 44.2314 86.7791 43.3055C87.6299 42.4508 88.6224 42.0234 89.8986 42.0234C91.1039 42.0234 92.0964 42.4508 93.0181 43.3055C93.8689 44.1602 94.2943 45.1573 94.2943 46.3682V52.9209C94.2943 54.1317 93.8689 55.2001 93.0181 56.0548C92.1673 56.9095 91.1748 57.3368 89.9695 57.3368C88.6933 57.4081 87.6299 56.9807 86.7791 56.126ZM91.4584 54.559C91.8838 54.1317 92.0964 53.6331 92.0964 52.9921V46.4394C92.0964 45.8696 91.8838 45.2998 91.4584 44.8724C91.033 44.4451 90.5367 44.2314 89.8986 44.2314C89.3314 44.2314 88.7642 44.4451 88.3389 44.8724C87.9135 45.2998 87.7008 45.7984 87.7008 46.4394V52.9921C87.7008 53.5619 87.9135 54.1317 88.3389 54.559C88.7642 54.9864 89.2605 55.2001 89.8986 55.2001C90.5367 55.2001 91.033 54.9864 91.4584 54.559Z" fill="black"/>
<path id="Vector_10" d="M96.2795 57.4071V42.0938H98.4774V55.1992H105V57.4071H96.2795Z" fill="black"/>
<path id="Vector_11" d="M13.0453 36.6826H10.7766V24.6456L52.1102 0.713976C53.6699 -0.21195 55.5842 -0.21195 57.1439 0.713976L97.9103 24.3607L96.7759 26.2838L56.0096 2.63705C55.1588 2.13848 54.0244 2.13848 53.1736 2.63705L13.0453 25.9277V36.6826Z" fill="black"/>
<path id="Vector_12" d="M54.5916 100C53.7408 100 52.8191 99.7866 52.0392 99.2881L11.3438 75.7126L12.4781 73.7895L53.2445 97.4362C54.0953 97.9348 55.2296 97.9348 56.0804 97.4362L96.2796 74.1456V63.3906H98.5483V75.4277L57.2857 99.3593C56.364 99.7866 55.5132 100 54.5916 100Z" fill="black"/>
<path id="Vector_13" d="M37.3634 68.4468H34.9528C34.8819 68.4468 34.811 68.3756 34.811 68.3044V64.8143C34.811 64.7431 34.8819 64.6719 34.9528 64.6719H37.3634C37.4343 64.6719 37.5052 64.7431 37.5052 64.8143V65.0992C37.5052 65.1704 37.4343 65.2417 37.3634 65.2417H35.3782V66.31H36.8671C36.938 66.31 37.0089 66.3813 37.0089 66.4525V66.7374C37.0089 66.8086 36.938 66.8799 36.8671 66.8799H35.3782V67.9482H37.3634C37.4343 67.9482 37.5052 68.0195 37.5052 68.0907V68.3756C37.5052 68.3756 37.4343 68.4468 37.3634 68.4468Z" fill="black"/>
<path id="Vector_14" d="M37.3633 68.5911H34.9528C34.811 68.5911 34.6692 68.4486 34.6692 68.3062V64.8162C34.6692 64.6737 34.811 64.5312 34.9528 64.5312H37.3633C37.5051 64.5312 37.6469 64.6737 37.6469 64.8162V65.1011C37.6469 65.2435 37.5051 65.386 37.3633 65.386H35.52V66.1694H36.867C37.0088 66.1694 37.1506 66.3119 37.1506 66.4543V66.7392C37.1506 66.8817 37.0088 67.0241 36.867 67.0241H35.52V67.8076H37.3633C37.5051 67.8076 37.6469 67.9501 37.6469 68.0925V68.3774C37.6469 68.5199 37.576 68.5911 37.3633 68.5911ZM37.3633 64.8162H34.9528V68.3062H37.2924V68.0213H35.1655V66.668H36.867V66.3831H35.2364V65.0298H37.3633V64.8162Z" fill="black"/>
<path id="Vector_15" d="M41.3335 68.4468H40.7664C40.1992 68.4468 39.7029 67.9482 39.7029 67.3784C39.7029 67.3072 39.7738 67.236 39.8447 67.236H40.1283C40.1992 67.236 40.2701 67.3072 40.2701 67.3784C40.2701 67.6633 40.4828 67.9482 40.8372 67.9482H41.4044C41.688 67.9482 41.9716 67.7345 41.9716 67.3784C41.9716 67.0935 41.7589 66.8086 41.4044 66.8086H40.8372C40.2701 66.8086 39.7738 66.3101 39.7738 65.7403C39.7738 65.1705 40.2701 64.6719 40.8372 64.6719H41.4044C41.9716 64.6719 42.4679 65.1705 42.4679 65.7403C42.4679 65.8115 42.397 65.8827 42.3261 65.8827H42.0425C41.9716 65.8827 41.9007 65.8115 41.9007 65.7403C41.9007 65.4554 41.688 65.1704 41.3335 65.1704H40.7664C40.4828 65.1704 40.1992 65.3841 40.1992 65.7403C40.1992 66.0252 40.4119 66.31 40.7664 66.31H41.3335C41.9007 66.31 42.397 66.8086 42.397 67.3784C42.397 67.9482 41.9716 68.4468 41.3335 68.4468Z" fill="black"/>
<path id="Vector_16" d="M41.3335 68.5902H40.7663C40.1282 68.5902 39.561 68.0204 39.561 67.3793C39.561 67.2369 39.7028 67.0944 39.8446 67.0944H40.1282C40.27 67.0944 40.4118 67.2369 40.4118 67.3793C40.4118 67.593 40.5536 67.7355 40.7663 67.7355H41.3335C41.5462 67.7355 41.688 67.593 41.688 67.3793C41.688 67.1657 41.5462 67.0232 41.3335 67.0232H40.7663C40.1282 67.0232 39.561 66.4534 39.561 65.8124C39.561 65.1714 40.1282 64.6016 40.7663 64.6016H41.3335C41.9716 64.6016 42.5388 65.1714 42.5388 65.8124C42.5388 65.9548 42.397 66.0973 42.2552 66.0973H41.9716C41.8298 66.0973 41.688 65.9548 41.688 65.8124C41.688 65.5987 41.5462 65.4563 41.3335 65.4563H40.7663C40.5536 65.4563 40.4118 65.5987 40.4118 65.8124C40.4118 66.0261 40.5536 66.1685 40.7663 66.1685H41.3335C41.9716 66.1685 42.5388 66.7383 42.5388 67.3793C42.6097 68.0916 42.0425 68.5902 41.3335 68.5902ZM40.1282 67.3793H39.8446C39.8446 67.8779 40.27 68.3053 40.7663 68.3053H41.3335C41.8298 68.3053 42.2552 67.8779 42.2552 67.3793C42.2552 66.8808 41.8298 66.4534 41.3335 66.4534H40.7663C40.4118 66.4534 40.0573 66.1685 40.0573 65.7412C40.0573 65.385 40.3409 65.0289 40.7663 65.0289H41.3335C41.688 65.0289 42.0425 65.3138 42.0425 65.7412H42.3261C42.3261 65.2426 41.9007 64.8152 41.4044 64.8152H40.8372C40.3409 64.8152 39.9155 65.2426 39.9155 65.7412C39.9155 66.2397 40.3409 66.6671 40.8372 66.6671H41.4044C41.7589 66.6671 42.1134 66.952 42.1134 67.3793C42.1134 67.7355 41.8298 68.0916 41.4044 68.0916H40.8372C40.4827 68.0916 40.1282 67.7355 40.1282 67.3793Z" fill="black"/>
<path id="Vector_17" d="M47.2181 65.2417H46.2964V68.3044C46.2964 68.3756 46.2255 68.4468 46.1546 68.4468H45.871C45.8001 68.4468 45.7292 68.3756 45.7292 68.3044V65.2417H44.8076C44.7367 65.2417 44.6658 65.1704 44.6658 65.0992V64.8143C44.6658 64.7431 44.7367 64.6719 44.8076 64.6719H47.2181C47.289 64.6719 47.3599 64.7431 47.3599 64.8143V65.0992C47.3599 65.1704 47.289 65.2417 47.2181 65.2417Z" fill="black"/>
<path id="Vector_18" d="M46.1546 68.5911H45.871C45.7292 68.5911 45.5874 68.4486 45.5874 68.3062V65.386H44.8075C44.6657 65.386 44.5239 65.2435 44.5239 65.1011V64.8162C44.5239 64.6737 44.6657 64.5312 44.8075 64.5312H47.2181C47.3598 64.5312 47.5016 64.6737 47.5016 64.8162V65.1011C47.5016 65.2435 47.3598 65.386 47.2181 65.386H46.4382V68.3062C46.4382 68.5199 46.2964 68.5911 46.1546 68.5911ZM45.7292 65.1011H45.871V68.3774H46.1546V65.1723H47.2181V64.8162H44.8075V65.1011H45.7292Z" fill="black"/>
<path id="Vector_19" d="M51.1883 68.4468H49.6994C49.6285 68.4468 49.5576 68.3756 49.5576 68.3044V64.8143C49.5576 64.7431 49.6285 64.6719 49.6994 64.6719H51.1883C51.7555 64.6719 52.2517 65.1705 52.2517 65.7403V67.3784C52.2517 67.9482 51.7555 68.4468 51.1883 68.4468ZM51.6846 65.7403C51.6846 65.4554 51.4719 65.1704 51.1174 65.1704H50.0539V67.877H51.1174C51.401 67.877 51.6846 67.6633 51.6846 67.3072V65.7403Z" fill="black"/>
<path id="Vector_20" d="M51.1885 68.5911H49.6996C49.5578 68.5911 49.416 68.4486 49.416 68.3062V64.8162C49.416 64.6737 49.5578 64.5312 49.6996 64.5312H51.1885C51.8265 64.5312 52.3937 65.1011 52.3937 65.7421V67.3803C52.3937 68.0925 51.8265 68.5911 51.1885 68.5911ZM49.6996 64.8162V68.3062H51.1885C51.6848 68.3062 52.1101 67.8788 52.1101 67.3803V65.7421C52.1101 65.2435 51.6848 64.8162 51.1885 64.8162H49.6996ZM51.1885 68.0925H49.9832V65.1011H51.1885C51.543 65.1011 51.8974 65.386 51.8974 65.8133V67.4515C51.8265 67.7364 51.543 68.0925 51.1885 68.0925ZM50.2668 67.8076H51.1885C51.4012 67.8076 51.543 67.6652 51.543 67.4515V65.8133C51.543 65.5996 51.4012 65.4572 51.1885 65.4572H50.2668V67.8076Z" fill="black"/>
<path id="Vector_21" d="M59.6961 68.4477H57.2856C57.2147 68.4477 57.1438 68.3765 57.1438 68.3053V68.0204C57.1438 67.9491 57.2147 67.8779 57.2856 67.8779H58.2073V65.5987L57.5692 66.2397H57.3565L57.1438 66.0261V65.8124L58.2073 64.744C58.2073 64.6728 58.2782 64.6016 58.3491 64.6016H58.6327C58.7036 64.6016 58.7745 64.6728 58.7745 64.744V67.8067H59.6961C59.767 67.8067 59.8379 67.8779 59.8379 67.9491V68.234C59.8379 68.3765 59.767 68.4477 59.6961 68.4477Z" fill="black"/>
<path id="Vector_22" d="M59.6962 68.5911H57.2857C57.1439 68.5911 57.0021 68.4486 57.0021 68.3062V68.0213C57.0021 67.8788 57.1439 67.7364 57.2857 67.7364H58.0656V65.9558L57.6402 66.3831C57.4984 66.5256 57.3566 66.5256 57.2148 66.3831L57.0021 66.1694C56.8603 66.027 56.8603 65.8845 57.0021 65.7421L57.9947 64.7449C57.9947 64.6025 58.1365 64.5312 58.2783 64.5312H58.5619C58.7036 64.5312 58.8454 64.6737 58.8454 64.8162V67.7364H59.6253C59.7671 67.7364 59.9089 67.8788 59.9089 68.0213V68.3062C59.9798 68.5199 59.838 68.5911 59.6962 68.5911ZM57.2857 68.0925V68.3774H59.6253V68.0925H58.5619V64.8162H58.2783V64.8874V64.9586L57.2148 66.027L57.4275 66.1694L58.3492 65.2435V68.0925H57.2857Z" fill="black"/>
<path id="Vector_23" d="M63.6665 68.4468H63.0994C62.5322 68.4468 62.0359 67.9482 62.0359 67.3784C62.0359 67.3072 62.1068 67.236 62.1777 67.236H62.4613C62.5322 67.236 62.6031 67.3072 62.6031 67.3784C62.6031 67.6633 62.8158 67.9482 63.1703 67.9482H63.7374C64.021 67.9482 64.3046 67.7345 64.3046 67.3784V66.8086H63.0994C62.5322 66.8086 62.0359 66.3101 62.0359 65.7403C62.0359 65.1705 62.5322 64.6719 63.0994 64.6719H63.6665C64.2337 64.6719 64.73 65.1705 64.73 65.7403V67.3784C64.73 67.9482 64.2337 68.4468 63.6665 68.4468ZM64.1628 65.7403C64.1628 65.4554 63.9501 65.1704 63.5956 65.1704H63.0994C62.8158 65.1704 62.5322 65.3841 62.5322 65.7403C62.5322 66.0252 62.7449 66.31 63.0994 66.31H64.1628V65.7403Z" fill="black"/>
<path id="Vector_24" d="M63.6665 68.5902H63.0993C62.4612 68.5902 61.894 68.0204 61.894 67.3793C61.894 67.2369 62.0358 67.0944 62.1776 67.0944H62.4612C62.603 67.0944 62.7448 67.2369 62.7448 67.3793C62.7448 67.593 62.8866 67.7355 63.0993 67.7355H63.6665C63.8792 67.7355 64.021 67.593 64.021 67.3793V67.0232H63.0993C62.4612 67.0232 61.894 66.4534 61.894 65.8124C61.894 65.1714 62.4612 64.6016 63.0993 64.6016H63.6665C64.3046 64.6016 64.8718 65.1714 64.8718 65.8124V67.4506C64.8718 68.0916 64.3046 68.5902 63.6665 68.5902ZM62.4612 67.3793H62.1776C62.1776 67.8779 62.603 68.3053 63.0993 68.3053H63.6665C64.1628 68.3053 64.5882 67.8779 64.5882 67.3793V65.7412C64.5882 65.2426 64.1628 64.8152 63.6665 64.8152H63.0993C62.603 64.8152 62.1776 65.2426 62.1776 65.7412C62.1776 66.2397 62.603 66.6671 63.0993 66.6671H64.3046V67.3793C64.3046 67.7355 64.021 68.0916 63.5956 68.0916H63.0993C62.7448 68.0916 62.4612 67.7355 62.4612 67.3793ZM64.3046 66.4534H63.0993C62.7448 66.4534 62.3903 66.1685 62.3903 65.7412C62.3903 65.385 62.6739 65.0289 63.0993 65.0289H63.6665C64.021 65.0289 64.3755 65.3138 64.3755 65.7412V66.4534H64.3046ZM63.0993 65.385C62.8866 65.385 62.7448 65.5275 62.7448 65.7412C62.7448 65.9548 62.8866 66.0973 63.0993 66.0973H64.021V65.7412C64.021 65.5275 63.8792 65.385 63.6665 65.385H63.0993Z" fill="black"/>
<path id="Vector_25" d="M68.5584 68.4468H67.9912C67.424 68.4468 66.9277 67.9482 66.9277 67.3784C66.9277 67.3072 66.9986 67.236 67.0695 67.236H67.3531C67.424 67.236 67.4949 67.3072 67.4949 67.3784C67.4949 67.6633 67.7076 67.9482 68.0621 67.9482H68.6293C68.9129 67.9482 69.1965 67.7345 69.1965 67.3784V66.8086H68.133C67.5658 66.8086 67.0695 66.3101 67.0695 65.7403C67.0695 65.1705 67.5658 64.6719 68.133 64.6719H68.7002C69.2674 64.6719 69.7637 65.1705 69.7637 65.7403V67.3784C69.6219 67.9482 69.1256 68.4468 68.5584 68.4468ZM69.0547 65.7403C69.0547 65.4554 68.842 65.1704 68.4875 65.1704H67.9203C67.6367 65.1704 67.3531 65.3841 67.3531 65.7403C67.3531 66.0252 67.5658 66.31 67.9203 66.31H68.9838V65.7403H69.0547Z" fill="black"/>
<path id="Vector_26" d="M68.5583 68.5902H67.9912C67.3531 68.5902 66.7859 68.0204 66.7859 67.3793C66.7859 67.2369 66.9277 67.0944 67.0695 67.0944H67.3531C67.4949 67.0944 67.6367 67.2369 67.6367 67.3793C67.6367 67.593 67.7785 67.7355 67.9912 67.7355H68.5583C68.771 67.7355 68.9128 67.593 68.9128 67.3793V67.0232H67.9912C67.3531 67.0232 66.7859 66.4534 66.7859 65.8124C66.7859 65.1714 67.3531 64.6016 67.9912 64.6016H68.5583C69.1964 64.6016 69.7636 65.1714 69.7636 65.8124V67.4506C69.7636 68.0916 69.1964 68.5902 68.5583 68.5902ZM67.3531 67.3793H67.0695C67.0695 67.8779 67.4949 68.3053 67.9912 68.3053H68.5583C69.0546 68.3053 69.48 67.8779 69.48 67.3793V65.7412C69.48 65.2426 69.0546 64.8152 68.5583 64.8152H67.9912C67.4949 64.8152 67.0695 65.2426 67.0695 65.7412C67.0695 66.2397 67.4949 66.6671 67.9912 66.6671H69.1964V67.3793C69.1964 67.7355 68.9128 68.0916 68.4874 68.0916H67.9203C67.6367 68.0916 67.3531 67.7355 67.3531 67.3793ZM69.2673 66.4534H68.0621C67.7076 66.4534 67.3531 66.1685 67.3531 65.7412C67.3531 65.385 67.6367 65.0289 68.0621 65.0289H68.6292C68.9837 65.0289 69.3382 65.3138 69.3382 65.7412V66.4534H69.2673ZM67.9912 65.385C67.7785 65.385 67.6367 65.5275 67.6367 65.7412C67.6367 65.9548 67.7785 66.0973 67.9912 66.0973H68.9128V65.7412C68.9128 65.5275 68.771 65.385 68.5583 65.385H67.9912Z" fill="black"/>
<path id="Vector_27" d="M74.443 65.669L73.4504 66.7374V68.3756C73.4504 68.4468 73.3795 68.518 73.3086 68.518H73.025C72.9541 68.518 72.8832 68.4468 72.8832 68.3756V66.5949L72.9541 66.5237L74.0176 65.4553V65.3129H72.0324C71.9615 65.3129 71.8906 65.2417 71.8906 65.1704V64.8143C71.8906 64.7431 71.9615 64.6719 72.0324 64.6719H74.443C74.5139 64.6719 74.5847 64.7431 74.5847 64.8143V65.5266L74.443 65.669Z" fill="black"/>
<path id="Vector_28" d="M73.3085 68.5911H73.0249C72.8831 68.5911 72.7413 68.4486 72.7413 68.3062V66.5256C72.7413 66.4543 72.7413 66.3831 72.8122 66.3119L73.7339 65.386H71.8905C71.7487 65.386 71.6069 65.2435 71.6069 65.1011V64.8162C71.6069 64.6737 71.7487 64.5312 71.8905 64.5312H74.3011C74.4429 64.5312 74.5846 64.6737 74.5846 64.8162V65.5284C74.5846 65.5996 74.5847 65.6709 74.5138 65.7421L73.5212 66.7392V68.3062C73.5921 68.5199 73.4503 68.5911 73.3085 68.5911ZM74.0175 65.1011H74.1593V65.4572L73.0958 66.5256V68.3062H73.3794V66.668L74.4429 65.5996L74.5846 65.6709L74.5138 65.5284V64.8162H72.1032V65.1011H74.0175Z" fill="black"/>
<path id="Vector_29" d="M32.2587 35.4702H31.9751C31.9042 35.4702 31.8333 35.399 31.8333 35.3278V33.8321H30.2027V35.3278C30.2027 35.399 30.1318 35.4702 30.0609 35.4702H29.7773C29.7064 35.4702 29.6355 35.399 29.6355 35.3278V32.7637C29.6355 32.1939 30.1318 31.6953 30.699 31.6953H31.2662C31.8333 31.6953 32.3296 32.1939 32.3296 32.7637V35.3278C32.4005 35.399 32.3296 35.4702 32.2587 35.4702ZM31.8333 32.7637C31.8333 32.4788 31.6206 32.1939 31.2662 32.1939H30.699C30.4154 32.1939 30.1318 32.4076 30.1318 32.7637V33.3335H31.7624V32.7637H31.8333Z" fill="black"/>
<path id="Vector_30" d="M32.2586 35.6106H31.975C31.8332 35.6106 31.6914 35.4682 31.6914 35.3257V33.9724H30.4152V35.3257C30.4152 35.4682 30.2734 35.6106 30.1316 35.6106H29.848C29.7062 35.6106 29.5645 35.4682 29.5645 35.3257V32.7616C29.5645 32.1206 30.1316 31.5508 30.7697 31.5508H31.3369C31.975 31.5508 32.5422 32.1206 32.5422 32.7616V35.3257C32.5422 35.4682 32.4004 35.6106 32.2586 35.6106ZM30.1316 33.6875H32.0459V35.3257H32.2586V32.7616C32.2586 32.263 31.8332 31.8357 31.3369 31.8357H30.7697C30.2734 31.8357 29.848 32.263 29.848 32.7616V35.3257H30.1316V33.6875ZM32.0459 33.4739H30.1316V32.7616C30.1316 32.4055 30.4152 32.0494 30.8406 32.0494H31.4078C31.7623 32.0494 32.1168 32.3343 32.1168 32.7616V33.4739H32.0459ZM30.4152 33.189H31.6914V32.7616C31.6914 32.5479 31.5496 32.4055 31.3369 32.4055H30.7697C30.557 32.4055 30.4152 32.5479 30.4152 32.7616V33.189Z" fill="black"/>
<path id="Vector_31" d="M35.2364 33.8312H35.0946L36.2998 35.042V35.2557L36.0871 35.4693H35.8744L34.3147 33.9024H34.1729V35.3981C34.1729 35.4693 34.102 35.5406 34.0311 35.5406H33.7475C33.6766 35.5406 33.6057 35.4693 33.6057 35.3981V31.9081C33.6057 31.8369 33.6766 31.7656 33.7475 31.7656H35.2364C35.8036 31.7656 36.2998 32.2642 36.2998 32.834C36.3707 33.4038 35.8744 33.8312 35.2364 33.8312ZM35.2364 32.2642H34.1729V33.3326H35.2364C35.52 33.3326 35.8036 33.1189 35.8036 32.7628C35.8036 32.4779 35.5909 32.2642 35.2364 32.2642Z" fill="black"/>
<path id="Vector_32" d="M36.0162 35.6106C35.9453 35.6106 35.8744 35.6106 35.8035 35.5394L34.3146 34.0437V35.3257C34.3146 35.4682 34.1728 35.6106 34.0311 35.6106H33.7475C33.6057 35.6106 33.4639 35.4682 33.4639 35.3257V31.8357C33.4639 31.6932 33.6057 31.5508 33.7475 31.5508H35.2363C35.8744 31.5508 36.4416 32.1206 36.4416 32.7616C36.4416 33.4026 36.0162 33.9012 35.3781 33.9724L36.2998 34.8984C36.4416 35.0408 36.4416 35.1833 36.2998 35.3257L36.0871 35.5394C36.158 35.6106 36.0871 35.6106 36.0162 35.6106ZM33.8184 31.8357V35.3257H34.1019V33.6875H34.4564L36.0871 35.3257L36.2289 35.112L34.8109 33.6875H35.3072C35.8035 33.6875 36.2289 33.2602 36.2289 32.7616C36.2289 32.263 35.8035 31.8357 35.3072 31.8357H33.8184ZM35.2363 33.4739H34.0311V32.1206H35.2363C35.5908 32.1206 35.9453 32.4055 35.9453 32.8328C35.9453 33.189 35.6617 33.4739 35.2363 33.4739ZM34.3146 33.189H35.2363C35.449 33.189 35.5908 33.0465 35.5908 32.8328C35.5908 32.6192 35.449 32.4767 35.2363 32.4767H34.3146V33.189Z" fill="black"/>
<path id="Vector_33" d="M40.1283 32.2651H39.2066V35.3278C39.2066 35.399 39.1357 35.4702 39.0648 35.4702H38.7812C38.7103 35.4702 38.6394 35.399 38.6394 35.3278V32.2651H37.7177C37.6468 32.2651 37.5759 32.1939 37.5759 32.1227V31.8378C37.5759 31.7665 37.6468 31.6953 37.7177 31.6953H40.1283C40.1992 31.6953 40.2701 31.7665 40.2701 31.8378V32.1227C40.2701 32.1939 40.1992 32.2651 40.1283 32.2651Z" fill="black"/>
<path id="Vector_34" d="M39.0647 35.6106H38.7811C38.6393 35.6106 38.4976 35.4682 38.4976 35.3257V32.4055H37.7177C37.5759 32.4055 37.4341 32.263 37.4341 32.1206V31.8357C37.4341 31.6932 37.5759 31.5508 37.7177 31.5508H40.1282C40.27 31.5508 40.4118 31.6932 40.4118 31.8357V32.1206C40.4118 32.263 40.27 32.4055 40.1282 32.4055H39.3483V35.3257C39.3483 35.4682 39.2065 35.6106 39.0647 35.6106ZM38.6393 32.1206H38.7811V35.3969H39.0647V32.1918H40.1282V31.9069H37.7177V32.1918L38.6393 32.1206Z" fill="black"/>
<path id="Vector_35" d="M47.8562 34.8283L48.1398 35.1132V35.3269L47.9271 35.5406H47.7144L47.5017 35.1844C47.2182 35.3981 46.9346 35.4693 46.5801 35.4693C46.0129 35.4693 45.5166 34.9708 45.5166 34.401C45.5166 34.0448 45.6584 33.7599 45.8711 33.6175C45.6584 33.4038 45.5166 33.1189 45.5166 32.834C45.5166 32.2642 46.0129 31.7656 46.5801 31.7656C47.0055 31.7656 47.4309 32.1218 47.4309 32.6203C47.4309 32.834 47.36 33.0477 47.1473 33.1901L46.651 33.6175L47.4309 34.401C47.5017 34.2585 47.5726 34.0448 47.5726 33.8312V33.475C47.5726 33.4038 47.6435 33.3326 47.7144 33.3326H47.998C48.0689 33.3326 48.1398 33.4038 48.1398 33.475V33.9024C48.1398 34.1873 48.0689 34.5434 47.8562 34.8283ZM46.5801 32.2642C46.2965 32.2642 46.0129 32.4779 46.0129 32.834C46.0129 33.0477 46.0838 33.1901 46.2256 33.2614L46.7219 32.7628C46.7928 32.6916 46.7928 32.6203 46.7928 32.5491C46.8637 32.4067 46.7219 32.2642 46.5801 32.2642ZM46.2256 33.9736C46.0838 34.0448 46.0129 34.2585 46.0129 34.401C46.0129 34.6859 46.2256 34.9708 46.5801 34.9708C46.7928 34.9708 46.9346 34.8995 47.1473 34.8283L46.2256 33.9736Z" fill="black"/>
<path id="Vector_36" d="M47.8562 35.6127C47.7853 35.6127 47.7144 35.6127 47.6435 35.5415L47.5017 35.399C47.2181 35.5415 46.9345 35.6839 46.58 35.6839C45.9419 35.6839 45.3748 35.1141 45.3748 34.4731C45.3748 34.1882 45.5166 33.9033 45.6583 33.6896C45.4457 33.4759 45.3748 33.191 45.3748 32.9061C45.3748 32.2651 45.9419 31.6953 46.58 31.6953C47.1472 31.6953 47.5726 32.1227 47.5726 32.6925C47.5726 32.9774 47.5017 33.191 47.289 33.4047L46.9345 33.7608L47.5017 34.3306C47.5017 34.2594 47.5726 34.117 47.5726 34.0457V33.4759C47.5726 33.3335 47.7144 33.191 47.8562 33.191H48.1398C48.2816 33.191 48.4234 33.3335 48.4234 33.4759V33.9033C48.4234 34.2594 48.3525 34.5443 48.1398 34.8292L48.2816 34.9717C48.4234 35.1141 48.4234 35.2566 48.2816 35.399L48.0689 35.6127C47.998 35.6127 47.9271 35.6127 47.8562 35.6127ZM47.5017 34.9717L47.8562 35.3278L47.998 35.1141L47.6435 34.758L47.7144 34.6868C47.8562 34.4731 47.998 34.1882 47.998 33.8321V33.4759H47.7144V33.8321C47.7144 34.0457 47.6435 34.2594 47.5726 34.4731L47.5017 34.6155L46.4382 33.5472L47.0054 32.9774C47.1472 32.8349 47.2181 32.6925 47.2181 32.4788C47.2181 32.1227 46.9345 31.8378 46.58 31.8378C46.0837 31.8378 45.6583 32.2651 45.6583 32.7637C45.6583 33.0486 45.8001 33.2623 45.9419 33.4759L46.0837 33.6184L45.9419 33.7608C45.7292 33.9033 45.6583 34.1882 45.6583 34.4731C45.6583 34.9717 46.0837 35.399 46.58 35.399C46.8636 35.399 47.2181 35.3278 47.4308 35.1141L47.5017 34.9717ZM46.58 35.1141C46.2255 35.1141 45.871 34.8292 45.871 34.4019C45.871 34.1882 46.0128 33.9745 46.1546 33.8321L46.2255 33.7608L47.289 34.8292L47.1472 34.9004C47.0054 35.0429 46.7927 35.1141 46.58 35.1141ZM46.2255 34.117C46.1546 34.1882 46.1546 34.2594 46.1546 34.3306C46.1546 34.5443 46.2964 34.6868 46.5091 34.6868C46.58 34.6868 46.7218 34.6868 46.7927 34.6155L46.2255 34.117ZM46.2964 33.4047L46.2255 33.3335C46.0128 33.191 45.9419 32.9774 45.9419 32.7637C45.9419 32.4076 46.2255 32.0514 46.6509 32.0514C46.8636 32.0514 47.0763 32.2651 47.0763 32.4788C47.0763 32.6212 47.0054 32.6925 46.9345 32.7637L46.2964 33.4047ZM46.58 32.4076C46.3673 32.4076 46.2255 32.55 46.2255 32.7637C46.2255 32.8349 46.2255 32.9774 46.2964 32.9774L46.7218 32.55L46.7927 32.4788C46.6509 32.4788 46.6509 32.4076 46.58 32.4076Z" fill="black"/>
<path id="Vector_37" d="M54.9461 35.4702H54.3789C53.8117 35.4702 53.3154 34.9717 53.3154 34.4019C53.3154 34.3306 53.3863 34.2594 53.4572 34.2594H53.7408C53.8117 34.2594 53.8826 34.3306 53.8826 34.4019C53.8826 34.6868 54.0953 34.9717 54.4498 34.9717H55.017C55.3006 34.9717 55.5842 34.758 55.5842 34.4019C55.5842 34.117 55.3715 33.8321 55.017 33.8321H54.4498C53.8826 33.8321 53.3863 33.3335 53.3863 32.7637C53.3863 32.1939 53.8826 31.6953 54.4498 31.6953H55.017C55.5842 31.6953 56.0805 32.1939 56.0805 32.7637C56.0805 32.8349 56.0096 32.9061 55.9387 32.9061H55.6551C55.5842 32.9061 55.5133 32.8349 55.5133 32.7637C55.5133 32.4788 55.3006 32.1939 54.9461 32.1939H54.3789C54.0953 32.1939 53.8117 32.4076 53.8117 32.7637C53.8117 33.0486 54.0244 33.3335 54.3789 33.3335H54.9461C55.5133 33.3335 56.0096 33.8321 56.0096 34.4019C56.0096 34.9717 55.5133 35.4702 54.9461 35.4702Z" fill="black"/>
<path id="Vector_38" d="M54.946 35.6106H54.3788C53.7408 35.6106 53.1736 35.0408 53.1736 34.3998C53.1736 34.2573 53.3154 34.1149 53.4572 34.1149H53.7408C53.8826 34.1149 54.0244 34.2573 54.0244 34.3998C54.0244 34.6135 54.1662 34.7559 54.3788 34.7559H54.946C55.1587 34.7559 55.3005 34.6135 55.3005 34.3998C55.3005 34.1861 55.1587 34.0437 54.946 34.0437H54.3788C53.7408 34.0437 53.1736 33.4739 53.1736 32.7616C53.1736 32.1206 53.7408 31.5508 54.3788 31.5508H54.946C55.5841 31.5508 56.1513 32.1206 56.1513 32.7616C56.1513 32.9041 56.0095 33.0465 55.8677 33.0465H55.5841C55.4423 33.0465 55.3005 32.9041 55.3005 32.7616C55.3005 32.5479 55.1587 32.4055 54.946 32.4055H54.3788C54.1662 32.4055 54.0244 32.5479 54.0244 32.7616C54.0244 32.9753 54.1662 33.1177 54.3788 33.1177H54.946C55.5841 33.1177 56.1513 33.6875 56.1513 34.3286C56.1513 34.9696 55.655 35.6106 54.946 35.6106ZM53.7408 34.3998H53.4572C53.4572 34.8984 53.8826 35.3257 54.3788 35.3257H54.946C55.4423 35.3257 55.8677 34.8984 55.8677 34.3998C55.8677 33.9012 55.4423 33.4739 54.946 33.4739H54.3788C54.0244 33.4739 53.6699 33.189 53.6699 32.7616C53.6699 32.4055 53.9535 32.0494 54.3788 32.0494H54.946C55.3005 32.0494 55.655 32.3343 55.655 32.7616H55.9386C55.9386 32.263 55.5132 31.8357 55.0169 31.8357H54.4498C53.9535 31.8357 53.5281 32.263 53.5281 32.7616C53.5281 33.2602 53.9535 33.6875 54.4498 33.6875H55.0169C55.3714 33.6875 55.7259 33.9724 55.7259 34.3998C55.7259 34.7559 55.4423 35.112 55.0169 35.112H54.4498C54.0244 35.112 53.7408 34.7559 53.7408 34.3998Z" fill="black"/>
<path id="Vector_39" d="M58.9163 35.4702H58.3491C57.7819 35.4702 57.2856 34.9717 57.2856 34.4019V32.7637C57.2856 32.1939 57.7819 31.6953 58.3491 31.6953H58.9163C59.4835 31.6953 59.9798 32.1939 59.9798 32.7637C59.9798 32.8349 59.9089 32.9061 59.838 32.9061H59.5544C59.4835 32.9061 59.4126 32.8349 59.4126 32.7637C59.4126 32.4788 59.1999 32.1939 58.8454 32.1939H58.2782C57.9946 32.1939 57.711 32.4076 57.711 32.7637V34.4019C57.711 34.6868 57.9237 34.9717 58.2782 34.9717H58.8454C59.129 34.9717 59.4126 34.758 59.4126 34.4019C59.4126 34.3306 59.4835 34.2594 59.5544 34.2594H59.838C59.9089 34.2594 59.9798 34.3306 59.9798 34.4019C59.9798 34.9717 59.4835 35.4702 58.9163 35.4702Z" fill="black"/>
<path id="Vector_40" d="M58.9162 35.6106H58.3491C57.711 35.6106 57.1438 35.0408 57.1438 34.3998V32.7616C57.1438 32.1206 57.711 31.5508 58.3491 31.5508H58.9162C59.5543 31.5508 60.1215 32.1206 60.1215 32.7616C60.1215 32.9041 59.9797 33.0465 59.8379 33.0465H59.5543C59.4125 33.0465 59.2707 32.9041 59.2707 32.7616C59.2707 32.5479 59.1289 32.4055 58.9162 32.4055H58.3491C58.1364 32.4055 57.9946 32.5479 57.9946 32.7616V34.3998C57.9946 34.6135 58.1364 34.7559 58.3491 34.7559H58.9162C59.1289 34.7559 59.2707 34.6135 59.2707 34.3998C59.2707 34.2573 59.4125 34.1149 59.5543 34.1149H59.8379C59.9797 34.1149 60.1215 34.2573 60.1215 34.3998C60.1215 35.0408 59.5543 35.6106 58.9162 35.6106ZM58.3491 31.8357C57.8528 31.8357 57.4274 32.263 57.4274 32.7616V34.3998C57.4274 34.8984 57.8528 35.3257 58.3491 35.3257H58.9162C59.4125 35.3257 59.8379 34.8984 59.8379 34.3998H59.5543C59.5543 34.7559 59.2707 35.0408 58.9162 35.0408H58.3491C57.9946 35.0408 57.6401 34.7559 57.6401 34.3286V32.7616C57.6401 32.4055 57.9237 32.0494 58.3491 32.0494H58.9162C59.2707 32.0494 59.6252 32.3343 59.6252 32.7616H59.9088C59.9088 32.263 59.4834 31.8357 58.9871 31.8357H58.3491Z" fill="black"/>
<path id="Vector_41" d="M63.7374 35.4712H61.3269C61.256 35.4712 61.1851 35.3999 61.1851 35.3287V35.0438C61.1851 34.9726 61.256 34.9014 61.3269 34.9014H62.2485V32.1948H61.8231C61.7522 32.1948 61.6813 32.1236 61.6813 32.0523V31.7674C61.6813 31.6962 61.7522 31.625 61.8231 31.625H63.1702C63.2411 31.625 63.312 31.6962 63.312 31.7674V32.0523C63.312 32.1236 63.2411 32.1948 63.1702 32.1948H62.7448V34.9014H63.6665C63.7374 34.9014 63.8083 34.9726 63.8083 35.0438V35.3287C63.8792 35.3999 63.8083 35.4712 63.7374 35.4712Z" fill="black"/>
<path id="Vector_42" d="M63.7373 35.6115H61.3268C61.185 35.6115 61.0432 35.4691 61.0432 35.3266V35.0417C61.0432 34.8993 61.185 34.7568 61.3268 34.7568H62.1067V32.3352H61.8231C61.6813 32.3352 61.5395 32.1927 61.5395 32.0503V31.7654C61.5395 31.6229 61.6813 31.4805 61.8231 31.4805H63.1702C63.312 31.4805 63.4537 31.6229 63.4537 31.7654V32.0503C63.4537 32.1927 63.312 32.3352 63.1702 32.3352H62.8866V34.7568H63.6664C63.8082 34.7568 63.95 34.8993 63.95 35.0417V35.3266C64.0209 35.4691 63.95 35.6115 63.7373 35.6115ZM61.3268 35.1129V35.3978H63.6664V35.1129H62.603V32.1215H63.1702V31.8366H61.8231V32.1215H62.3903V35.1129H61.3268Z" fill="black"/>
<path id="Vector_43" d="M67.7076 35.4702H65.2971C65.2262 35.4702 65.1553 35.399 65.1553 35.3278V31.8378C65.1553 31.7665 65.2262 31.6953 65.2971 31.6953H67.7076C67.7785 31.6953 67.8494 31.7665 67.8494 31.8378V32.1227C67.8494 32.1939 67.7785 32.2651 67.7076 32.2651H65.7225V33.3335H67.2113C67.2822 33.3335 67.3531 33.4047 67.3531 33.4759V33.7608C67.3531 33.8321 67.2822 33.9033 67.2113 33.9033H65.7225V34.9004H67.7076C67.7785 34.9004 67.8494 34.9717 67.8494 35.0429V35.3278C67.8494 35.399 67.7785 35.4702 67.7076 35.4702Z" fill="black"/>
<path id="Vector_44" d="M67.7076 35.6106H65.297C65.1552 35.6106 65.0134 35.4682 65.0134 35.3257V31.8357C65.0134 31.6932 65.1552 31.5508 65.297 31.5508H67.7076C67.8494 31.5508 67.9911 31.6932 67.9911 31.8357V32.1206C67.9911 32.263 67.8494 32.4055 67.7076 32.4055H65.8642V33.189H67.2113C67.3531 33.189 67.4949 33.3314 67.4949 33.4739V33.7588C67.4949 33.9012 67.3531 34.0437 67.2113 34.0437H65.8642V34.8271H67.7076C67.8494 34.8271 67.9911 34.9696 67.9911 35.112V35.3969C67.9911 35.4682 67.8494 35.6106 67.7076 35.6106ZM67.7076 31.8357H65.297V35.3257H67.6367V35.0408H65.5097V33.6875H67.1404V33.4026H65.5097V32.0494H67.6367L67.7076 31.8357Z" fill="black"/>
<path id="Vector_45" d="M71.6071 35.4702H71.3235C71.2526 35.4702 71.1817 35.399 71.1817 35.3278V34.758L69.5511 33.1198V35.3278C69.5511 35.399 69.4802 35.4702 69.4093 35.4702H69.1257C69.0548 35.4702 68.9839 35.399 68.9839 35.3278V31.8378C68.9839 31.7665 69.0548 31.6953 69.1257 31.6953H69.4802C69.5511 31.6953 69.622 31.7665 69.622 31.8378V32.4076L71.2526 34.0457V31.8378C71.2526 31.7665 71.3235 31.6953 71.3944 31.6953H71.678C71.7489 31.6953 71.8198 31.7665 71.8198 31.8378V35.3278C71.7489 35.399 71.7489 35.4702 71.6071 35.4702Z" fill="black"/>
<path id="Vector_46" d="M71.607 35.6106H71.3234C71.1816 35.6106 71.0398 35.4682 71.0398 35.3257V34.8271L69.7636 33.5451V35.3257C69.7636 35.4682 69.6218 35.6106 69.48 35.6106H69.1964C69.0546 35.6106 68.9128 35.4682 68.9128 35.3257V31.8357C68.9128 31.6932 69.0546 31.5508 69.1964 31.5508H69.48C69.6218 31.5508 69.7636 31.6932 69.7636 31.8357V32.3343L71.0398 33.6163V31.8357C71.0398 31.6932 71.1816 31.5508 71.3234 31.5508H71.607C71.7488 31.5508 71.8906 31.6932 71.8906 31.8357V35.3257C71.8906 35.4682 71.8197 35.6106 71.607 35.6106ZM69.48 32.7616L71.3943 34.6847V35.3257H71.607V31.8357H71.3234V34.3286L69.48 32.4767V31.8357H69.1964V35.3257H69.48V32.7616Z" fill="black"/>
<path id="Vector_47" d="M74.6556 35.4702H74.0884C73.5212 35.4702 73.0249 34.9717 73.0249 34.4019V32.7637C73.0249 32.1939 73.5212 31.6953 74.0884 31.6953H74.6556C75.2227 31.6953 75.719 32.1939 75.719 32.7637C75.719 32.8349 75.6481 32.9061 75.5772 32.9061H75.2936C75.2227 32.9061 75.1518 32.8349 75.1518 32.7637C75.1518 32.4788 74.9391 32.1939 74.5847 32.1939H74.0175C73.7339 32.1939 73.4503 32.4076 73.4503 32.7637V34.4019C73.4503 34.6868 73.663 34.9717 74.0175 34.9717H74.5847C74.8682 34.9717 75.1518 34.758 75.1518 34.4019C75.1518 34.3306 75.2227 34.2594 75.2936 34.2594H75.5772C75.6481 34.2594 75.719 34.3306 75.719 34.4019C75.719 34.9717 75.2227 35.4702 74.6556 35.4702Z" fill="black"/>
<path id="Vector_48" d="M74.6558 35.6106H74.0886C73.4505 35.6106 72.8833 35.0408 72.8833 34.3998V32.7616C72.8833 32.1206 73.4505 31.5508 74.0886 31.5508H74.6558C75.2938 31.5508 75.861 32.1206 75.861 32.7616C75.861 32.9041 75.7192 33.0465 75.5774 33.0465H75.2938C75.152 33.0465 75.0102 32.9041 75.0102 32.7616C75.0102 32.5479 74.8684 32.4055 74.6558 32.4055H74.0886C73.8759 32.4055 73.7341 32.5479 73.7341 32.7616V34.3998C73.7341 34.6135 73.8759 34.7559 74.0886 34.7559H74.6558C74.8684 34.7559 75.0102 34.6135 75.0102 34.3998C75.0102 34.2573 75.152 34.1149 75.2938 34.1149H75.5774C75.7192 34.1149 75.861 34.2573 75.861 34.3998C75.861 35.0408 75.2938 35.6106 74.6558 35.6106ZM74.0886 31.8357C73.5923 31.8357 73.1669 32.263 73.1669 32.7616V34.3998C73.1669 34.8984 73.5923 35.3257 74.0886 35.3257H74.6558C75.152 35.3257 75.5774 34.8984 75.5774 34.3998H75.2938C75.2938 34.7559 75.0102 35.0408 74.6558 35.0408H74.0886C73.7341 35.0408 73.3796 34.7559 73.3796 34.3286V32.7616C73.3796 32.4055 73.6632 32.0494 74.0886 32.0494H74.6558C75.0102 32.0494 75.3647 32.3343 75.3647 32.7616H75.6483C75.6483 32.263 75.2229 31.8357 74.7266 31.8357H74.0886Z" fill="black"/>
<path id="Vector_49" d="M79.5477 35.4702H77.1372C77.0663 35.4702 76.9954 35.399 76.9954 35.3278V31.8378C76.9954 31.7665 77.0663 31.6953 77.1372 31.6953H79.5477C79.6186 31.6953 79.6895 31.7665 79.6895 31.8378V32.1227C79.6895 32.1939 79.6186 32.2651 79.5477 32.2651H77.5625V33.3335H79.0514C79.1223 33.3335 79.1932 33.4047 79.1932 33.4759V33.7608C79.1932 33.8321 79.1223 33.9033 79.0514 33.9033H77.5625V34.9004H79.5477C79.6186 34.9004 79.6895 34.9717 79.6895 35.0429V35.3278C79.6186 35.399 79.6186 35.4702 79.5477 35.4702Z" fill="black"/>
<path id="Vector_50" d="M79.5476 35.6106H77.1371C76.9953 35.6106 76.8535 35.4682 76.8535 35.3257V31.8357C76.8535 31.6932 76.9953 31.5508 77.1371 31.5508H79.5476C79.6894 31.5508 79.8312 31.6932 79.8312 31.8357V32.1206C79.8312 32.263 79.6894 32.4055 79.5476 32.4055H77.7043V33.189H79.0514C79.1931 33.189 79.3349 33.3314 79.3349 33.4739V33.7588C79.3349 33.9012 79.1931 34.0437 79.0514 34.0437H77.7043V34.8271H79.5476C79.6894 34.8271 79.8312 34.9696 79.8312 35.112V35.3969C79.8312 35.4682 79.6894 35.6106 79.5476 35.6106ZM79.4767 31.8357H77.0662V35.3257H79.4058V35.0408H77.2789V33.6875H78.9096V33.4026H77.2789V32.0494H79.4058L79.4767 31.8357Z" fill="black"/>
<path id="Vector_51" d="M29.8481 67.2354H25.3815C25.0979 67.2354 24.8853 67.0218 24.8853 66.7369C24.8853 66.452 25.0979 66.2383 25.3815 66.2383H29.8481C30.1317 66.2383 30.3444 66.452 30.3444 66.7369C30.3444 67.0218 30.1317 67.2354 29.8481 67.2354Z" fill="black"/>
<path id="Vector_52" d="M84.0141 67.2354H79.5476C79.264 67.2354 79.0513 67.0218 79.0513 66.7369C79.0513 66.452 79.264 66.2383 79.5476 66.2383H84.0141C84.2977 66.2383 84.5104 66.452 84.5104 66.7369C84.5104 67.0218 84.2977 67.2354 84.0141 67.2354Z" fill="black"/>
<path id="Vector_53" d="M69.48 17.9469C69.4091 17.8757 69.2673 17.7332 69.1255 17.7332L64.6589 15.6677C64.3044 15.5253 63.879 15.3828 63.4536 15.3828H41.4043C40.8372 15.3828 40.3409 15.5965 39.9864 15.9526C39.6319 16.3087 39.4192 16.8073 39.4192 17.3771V20.2261C39.4192 20.7959 39.6319 21.2945 39.9864 21.6506C40.3409 22.0067 40.8372 22.2204 41.4043 22.2204H63.4536C63.879 22.2204 64.3044 22.1492 64.6589 21.9355L69.1255 19.87C69.2673 19.7988 69.4091 19.7275 69.48 19.6563C69.9762 19.1577 69.9762 18.4455 69.48 17.9469ZM41.4043 21.152C41.1207 21.152 40.9081 21.0096 40.6954 20.8671C40.5536 20.7247 40.4118 20.4398 40.4118 20.1549V17.3059C40.4118 17.021 40.5536 16.8073 40.6954 16.5936C40.8372 16.4512 41.1207 16.3087 41.4043 16.3087H44.1694V21.0808L41.4043 21.152ZM44.6656 21.152V16.38H45.5873V21.152H44.6656ZM63.5245 21.152H46.1545V16.38H63.5245C63.4536 16.9498 63.2409 17.4483 62.8864 17.8045C62.4611 18.2318 61.8939 18.5167 61.1849 18.5167H47.0053C46.8635 18.5167 46.7217 18.6592 46.7217 18.8016C46.7217 18.9441 46.8635 19.0865 47.0053 19.0865H61.1849C61.823 19.0865 62.3902 19.3714 62.8155 19.7988C63.2409 20.0837 63.4536 20.6535 63.5245 21.152ZM64.2335 21.0096C64.1626 21.0808 64.0917 21.0808 63.9499 21.0808C63.879 20.4398 63.5954 19.7988 63.17 19.3714C62.9573 19.1577 62.6737 18.9441 62.3193 18.8016C62.6737 18.6592 62.9573 18.4455 63.17 18.2318C63.5954 17.8045 63.879 17.1634 63.9499 16.5224C64.0208 16.5224 64.0917 16.5936 64.2335 16.5936L65.9351 17.3771V20.2261L64.2335 21.0096ZM68.7001 18.9441L66.4313 20.0124V17.5908L68.7001 18.6592H68.771L68.8419 18.8016L68.7001 18.9441Z" fill="black"/>
<path id="Vector_54" d="M38.9231 82.1954C38.994 82.2666 39.1358 82.3378 39.2067 82.4091C39.9157 82.8364 40.9082 83.335 41.8299 83.8336C42.3262 84.0472 42.7516 84.2609 43.177 84.4034C43.6024 84.5458 44.0278 84.617 44.3822 84.617C45.1621 84.617 45.8002 84.3321 46.2256 83.9048C46.2965 83.8336 46.3674 83.6911 46.4383 83.6199H46.5092L49.2742 83.976C52.89 84.4746 55.4423 84.617 59.129 84.4034C61.7523 84.2609 63.8083 83.9048 66.3606 83.335C67.0696 83.1925 67.5659 83.0501 68.0622 82.9076C68.5585 82.7652 69.0548 82.5515 69.6928 82.4091C69.9055 82.3378 70.1182 82.2666 70.26 82.1242C70.4727 81.9105 70.6145 81.5544 70.6145 81.2695C70.6145 80.9846 70.4727 80.6284 70.26 80.4148C70.1891 80.3435 70.0473 80.2723 69.9055 80.2011L69.8346 80.1299L69.6928 80.0586C69.0548 79.9162 68.5585 79.7025 68.0622 79.56C67.5659 79.4176 66.9987 79.2751 66.3606 79.1327C63.312 78.4917 60.8306 78.1355 57.782 77.9931C54.5916 77.8506 52.5355 78.0643 49.416 78.4917L46.4383 78.919C46.3674 78.8478 46.2965 78.7054 46.2256 78.6341C45.8002 78.1356 45.0912 77.9219 44.3822 77.9219C44.0278 77.9219 43.6024 77.9931 43.177 78.1355C41.9008 78.5629 40.2702 79.4888 39.1358 80.0586C38.994 80.1299 38.9231 80.2011 38.8522 80.2723C38.4268 80.7709 38.4268 81.6256 38.9231 82.1954ZM44.4531 83.4062C44.3113 83.4062 44.0278 83.335 43.6733 83.1925C43.3897 83.1213 43.0352 82.9076 42.6098 82.7652C43.1061 82.8364 43.5315 82.8364 43.9569 82.8364C44.7367 82.7652 45.3748 82.5515 45.8711 82.3378C45.8002 82.6227 45.6584 82.8364 45.4457 83.0501C45.233 83.2638 44.9494 83.4062 44.4531 83.4062ZM40.6955 81.5544H46.0129C45.5875 81.8393 44.8785 82.1954 43.886 82.2666C42.9643 82.3378 41.9008 82.1242 40.6955 81.5544ZM57.8529 79.1327C60.9015 79.2751 63.2411 79.6313 66.2188 80.2011C66.8569 80.3435 67.3532 80.486 67.8495 80.6284C68.2749 80.7709 68.7712 80.9133 69.3384 81.127L69.4801 81.1982C68.8421 81.4119 68.2749 81.5544 67.7786 81.6968C67.2823 81.8393 66.786 81.9817 66.1479 82.1242C63.5956 82.6227 61.6814 82.9789 59.129 83.1213C57.1439 83.2638 55.5132 83.2638 53.8117 83.1213V79.0615C55.0878 79.0615 56.2931 79.0615 57.8529 79.1327ZM53.2445 79.2039V83.1213C52.8191 83.1213 52.3937 83.0501 51.9683 82.9789V79.2752C52.4646 79.2752 52.89 79.2751 53.2445 79.2039ZM49.6287 79.6313C50.2668 79.5601 50.834 79.4888 51.4011 79.4176V82.9789C50.834 82.9076 50.1959 82.8364 49.5578 82.7652L47.2891 82.4803V79.9874L49.6287 79.6313ZM43.6024 79.2039C43.9569 79.0615 44.2404 78.9903 44.3822 78.9903C44.8785 78.9903 45.1621 79.1327 45.3748 79.3464C45.5166 79.4888 45.6584 79.7737 45.8002 80.0586C45.3039 79.7737 44.5949 79.56 43.7442 79.56C43.3188 79.56 42.8225 79.5601 42.3262 79.6313C42.8225 79.4888 43.2479 79.2751 43.6024 79.2039ZM43.8151 80.2011C44.8076 80.2723 45.5875 80.6284 46.0129 80.9133H40.6955C41.8299 80.3435 42.8934 80.1298 43.8151 80.2011Z" fill="black"/>
</g>
<defs>
<clipPath id="clip0_5594_1442">
<rect width="105" height="100" fill="white"/>
</clipPath>
</defs>
</svg>
