<svg width="165" height="100" viewBox="0 0 165 100" fill="none" xmlns="http://www.w3.org/2000/svg">
<g id="Frame" clip-path="url(#clip0_5594_1757)">
<path id="Vector" d="M15.7628 47.6198H15.4239L12.2883 68.028H8.30521L5.25436 47.6198H4.83063V70.1538H1.77979V44.5586C4.5764 44.5586 5.08487 44.5586 7.88148 44.5586L9.32216 54.5926L10.2544 63.5212H10.3391L11.2713 54.7627L12.712 44.5586H18.8137V70.1538H15.6781V47.6198H15.7628Z" fill="black"/>
<path id="Vector_2" d="M18.8985 70.4092H15.763C15.5935 70.4092 15.424 70.2392 15.424 70.0691V49.0657L12.5426 68.0283C12.5426 68.1983 12.3731 68.2834 12.2884 68.2834H8.30533C8.13583 68.2834 8.05109 68.1983 8.05109 68.0283L5.16973 49.0657V70.1541C5.16973 70.3242 5.00024 70.4943 4.83075 70.4943H1.7799C1.61041 70.4943 1.44092 70.3242 1.44092 70.1541V44.5589C1.44092 44.3888 1.61041 44.2188 1.7799 44.2188H7.8816C8.05109 44.2188 8.13583 44.3038 8.13583 44.4739L9.57651 54.5079L10.2545 61.1405L10.9324 54.6779L12.3731 44.4739C12.3731 44.3038 12.5426 44.2188 12.6274 44.2188H18.7291C18.8985 44.2188 19.068 44.3888 19.068 44.5589V70.1541C19.1528 70.3242 19.068 70.4092 18.8985 70.4092ZM16.1019 69.814H18.6443V44.814H13.0511L11.6104 54.763L10.6782 63.5215C10.6782 63.6915 10.5087 63.7766 10.424 63.7766H10.3392C10.1697 63.7766 10.085 63.6915 10.085 63.5215L9.15278 54.5929L7.62736 44.814H2.03414V69.814H4.57651V47.6201C4.57651 47.45 4.746 47.28 4.91549 47.28H5.25448C5.42397 47.28 5.50871 47.365 5.50871 47.5351L8.55956 67.6881H12.0341L15.085 47.5351C15.085 47.365 15.2545 47.28 15.3392 47.28H15.6782C15.8477 47.28 16.0172 47.45 16.0172 47.6201V69.814H16.1019Z" fill="black"/>
<path id="Vector_3" d="M25.7626 44.5586H31.7795L35.5931 70.1538H32.4575L31.3558 63.5212H26.0168L24.9999 70.1538H21.8643L25.7626 44.5586ZM29.0676 47.6198H28.3897L26.5253 60.3749H30.9321L29.0676 47.6198Z" fill="black"/>
<path id="Vector_4" d="M35.5087 70.4943H32.3731C32.2036 70.4943 32.1188 70.4092 32.1188 70.2392L31.1019 63.7766H26.2714L25.3392 70.2392C25.3392 70.4092 25.1697 70.4943 25.0849 70.4943H21.9493C21.8646 70.4943 21.7798 70.4943 21.6951 70.4092C21.6104 70.3242 21.6104 70.2392 21.6104 70.1541L25.4239 44.4739C25.4239 44.3038 25.5934 44.2188 25.6781 44.2188H31.6951C31.8646 44.2188 31.9493 44.3038 31.9493 44.4739L35.7629 70.0691C35.7629 70.1541 35.7629 70.2392 35.6781 70.3242C35.6781 70.4092 35.5934 70.4943 35.5087 70.4943ZM32.6273 69.899H35.1697L31.4409 44.899H25.9324L22.2036 69.899H24.7459L25.6781 63.4364C25.6781 63.2664 25.8476 63.1813 25.9324 63.1813H31.3561C31.5256 63.1813 31.6104 63.2664 31.6104 63.4364L32.6273 69.899ZM30.9324 60.7154H26.5256C26.4409 60.7154 26.3561 60.7154 26.2714 60.6303C26.1866 60.5453 26.1866 60.4602 26.1866 60.3752L28.051 47.6201C28.051 47.45 28.2205 47.365 28.3053 47.365H28.9832C29.1527 47.365 29.2375 47.45 29.2375 47.6201L31.1866 60.3752C31.1866 60.4602 31.1866 60.5453 31.1019 60.6303C31.1019 60.6303 31.0171 60.7154 30.9324 60.7154ZM26.8646 60.1201H30.5934L28.8137 47.9602H28.6442L26.8646 60.1201Z" fill="black"/>
<path id="Vector_5" d="M40.5084 47.2788H35.9321V44.4727H48.1355V47.2788H43.5592V70.1529H40.5084V47.2788Z" fill="black"/>
<path id="Vector_6" d="M43.5591 70.4934H40.4236C40.2541 70.4934 40.0846 70.3233 40.0846 70.1532V47.6192H35.8473C35.6778 47.6192 35.5083 47.4491 35.5083 47.2791V44.4729C35.5083 44.3029 35.6778 44.1328 35.8473 44.1328H47.9659C48.1354 44.1328 48.3049 44.3029 48.3049 44.4729V47.2791C48.3049 47.4491 48.1354 47.6192 47.9659 47.6192H43.7286V70.1532C43.8981 70.3233 43.7286 70.4934 43.5591 70.4934ZM40.7625 69.8981H43.3049V47.2791C43.3049 47.109 43.4744 46.9389 43.6439 46.9389H47.8812V44.728H36.271V46.9389H40.5083C40.6778 46.9389 40.8473 47.109 40.8473 47.2791V69.8981H40.7625Z" fill="black"/>
<path id="Vector_7" d="M51.271 70.1547V44.6445H54.4066V55.869H60.1693V44.6445H63.2201V70.1547H60.1693V58.9302H54.4066V70.1547H51.271Z" fill="black"/>
<path id="Vector_8" d="M63.2205 70.4913H60.1697C60.0002 70.4913 59.8307 70.3212 59.8307 70.1511V59.1817H54.6612V70.1511C54.6612 70.3212 54.4917 70.4913 54.3222 70.4913H51.1866C51.0171 70.4913 50.8477 70.3212 50.8477 70.1511V44.6409C50.8477 44.4709 51.0171 44.3008 51.1866 44.3008H54.3222C54.4917 44.3008 54.6612 44.4709 54.6612 44.6409V55.6103H59.8307V44.6409C59.8307 44.4709 60.0002 44.3008 60.1697 44.3008H63.3053C63.4748 44.3008 63.6443 44.4709 63.6443 44.6409V70.2362C63.5595 70.3212 63.39 70.4913 63.2205 70.4913ZM60.4239 69.896H62.9663V44.896H60.4239V55.8654C60.4239 56.0355 60.2544 56.1205 60.0849 56.1205H54.3222C54.1527 56.1205 53.9833 55.9504 53.9833 55.8654V44.896H51.4409V69.896H53.9833V58.9266C53.9833 58.7566 54.1527 58.5865 54.3222 58.5865H60.1697C60.3392 58.5865 60.5087 58.7566 60.5087 58.9266V69.896H60.4239Z" fill="black"/>
<path id="Vector_9" d="M75.9322 65.135L77.8813 67.2609H80.1695L82.2034 65.135V61.0534L73.0508 54.6758V48.2132L76.6949 44.3867H81.4407L85.0847 48.2132V52.1248H82.0339V49.4888L80.0847 47.4479H77.9661L76.1017 49.4888V53.0602L85.2542 59.4377V66.4105L81.4407 70.3221H76.6102L72.8813 66.4105V61.7337H75.9322V65.135Z" fill="black"/>
<path id="Vector_10" d="M81.4406 70.6625H76.5253C76.4406 70.6625 76.3558 70.6625 76.2711 70.5775L72.5423 66.5809L72.4575 66.4108V61.7339C72.4575 61.5639 72.627 61.3938 72.7965 61.3938H75.8474C76.0168 61.3938 76.1863 61.5639 76.1863 61.7339V65.0503L78.0507 67.0061H80.0846L81.949 65.0503V61.2237L72.8812 54.8462C72.7965 54.7612 72.7965 54.6761 72.7965 54.5911V48.1285L72.8812 47.9584L76.5253 44.1319C76.6101 44.0469 76.6948 44.0469 76.7796 44.0469H81.5253C81.6101 44.0469 81.6948 44.0469 81.7796 44.1319L85.4236 47.9584L85.5084 48.1285V52.0401C85.5084 52.2101 85.3389 52.3802 85.1694 52.3802H82.1185C81.949 52.3802 81.7796 52.2101 81.7796 52.0401V49.4891L79.9999 47.6183H78.1355L76.4406 49.4891V52.8054L85.4236 59.1829C85.5084 59.268 85.5084 59.353 85.5084 59.438V66.3258L85.4236 66.4959L81.6948 70.5775C81.6101 70.5775 81.5253 70.6625 81.4406 70.6625ZM76.6948 70.0673H81.3558L84.9151 66.2408V59.6081L75.9321 53.2305C75.8473 53.1455 75.8474 53.0605 75.8474 52.9754V49.404L75.9321 49.234L77.7965 47.1931C77.8813 47.1081 77.966 47.1081 78.0507 47.1081H80.1694C80.2541 47.1081 80.3389 47.1081 80.4236 47.1931L82.3728 49.234L82.4575 49.404V51.87H84.9151V48.3836L81.4406 44.7271H76.949L73.4745 48.3836V54.5061L82.5423 60.8836C82.627 60.9686 82.627 61.0537 82.627 61.1387V65.2203L82.5423 65.3904L80.5084 67.5163C80.4236 67.6013 80.3389 67.6013 80.2541 67.6013H77.966C77.8812 67.6013 77.7965 67.6013 77.7118 67.5163L75.6779 65.3904L75.5931 65.2203V62.0741H73.1355V66.3258L76.6948 70.0673Z" fill="black"/>
<path id="Vector_11" d="M98.1357 49.4028L96.1866 47.447H93.9832L92.034 49.4028V65.0491L93.9832 67.26H96.1018L98.1357 65.0491V62.243L101.187 62.1579V66.2396L97.4578 70.3212H92.6273L88.8984 66.2396V48.2123L92.6273 44.3008H97.4578L101.187 48.2123V52.0389H98.1357V49.4028Z" fill="black"/>
<path id="Vector_12" d="M97.4579 70.6625H92.5426C92.4579 70.6625 92.3731 70.6625 92.2884 70.5775L88.6443 66.4108L88.5596 66.2408V48.2135C88.5596 48.1285 88.5596 48.0435 88.6443 48.0435L92.3731 44.1319C92.4579 44.0469 92.5426 44.0469 92.6274 44.0469H97.4579C97.5426 44.0469 97.6274 44.0469 97.7121 44.1319L101.441 48.0435C101.526 48.1285 101.526 48.2135 101.526 48.2135V52.0401C101.526 52.2101 101.356 52.3802 101.187 52.3802H98.0511C97.8816 52.3802 97.7121 52.2101 97.7121 52.0401V49.4891L95.9324 47.6183H94.068L92.2884 49.4891V64.8802L94.068 66.921H95.9324L97.7121 64.8802V62.1591C97.7121 61.9891 97.8816 61.904 97.9663 61.819H101.102L101.356 61.904C101.441 61.9891 101.441 62.0741 101.441 62.0741V66.0707L101.356 66.2408L97.6274 70.4074C97.6274 70.5775 97.5426 70.6625 97.4579 70.6625ZM92.7121 70.0673H97.2884L100.848 66.0707V62.4142H98.3053V64.9652L98.2206 65.1353L96.2714 67.3462C96.1867 67.4312 96.1019 67.4312 96.0172 67.4312H93.8986C93.8138 67.4312 93.7291 67.4312 93.6443 67.3462L91.6952 65.1353L91.6104 64.9652V49.404L91.6952 49.234L93.6443 47.1931C93.7291 47.1081 93.8138 47.1081 93.8986 47.1081H96.1019C96.1867 47.1081 96.2714 47.1081 96.3562 47.1931L98.3053 49.234C98.3901 49.319 98.3901 49.404 98.3901 49.404V51.6999H100.932V48.2135L97.3731 44.472H92.7969L89.2375 48.2135V65.9857L92.7121 70.0673Z" fill="black"/>
<path id="Vector_13" d="M105 70.1547V44.6445H108.136V55.869H113.898V44.6445H117.034V70.1547H113.898V58.9302H108.136V70.1547H105Z" fill="black"/>
<path id="Vector_14" d="M117.034 70.4913H113.898C113.729 70.4913 113.559 70.3212 113.559 70.1511V59.1817H108.475V70.1511C108.475 70.3212 108.305 70.4913 108.136 70.4913H105C104.831 70.4913 104.661 70.3212 104.661 70.1511V44.6409C104.661 44.4709 104.831 44.3008 105 44.3008H108.136C108.305 44.3008 108.475 44.4709 108.475 44.6409V55.6103H113.644V44.6409C113.644 44.4709 113.814 44.3008 113.983 44.3008H117.119C117.288 44.3008 117.458 44.4709 117.458 44.6409V70.2362C117.288 70.3212 117.204 70.4913 117.034 70.4913ZM114.237 69.896H116.78V44.896H114.237V55.8654C114.237 56.0355 114.068 56.1205 113.898 56.1205H108.136C107.966 56.1205 107.797 55.9504 107.797 55.8654V44.896H105.254V69.896H107.797V58.9266C107.797 58.7566 107.966 58.5865 108.136 58.5865H113.898C114.068 58.5865 114.237 58.7566 114.237 58.9266V69.896Z" fill="black"/>
<path id="Vector_15" d="M133.475 66.1575L129.661 70.2392H124.746L120.932 66.1575V48.0453L124.746 44.2188H129.661L133.475 48.0453V66.1575ZM130.424 64.9671V49.3208L128.39 47.28H126.102L124.068 49.3208V64.9671L126.186 67.1779H128.475L130.424 64.9671Z" fill="black"/>
<path id="Vector_16" d="M129.661 70.5766H124.746C124.661 70.5766 124.576 70.5766 124.492 70.4916L120.678 66.4099L120.593 66.2399V48.0426C120.593 47.9575 120.593 47.8725 120.678 47.8725L124.492 44.046C124.576 43.9609 124.661 43.9609 124.661 43.9609H129.576C129.661 43.9609 129.746 43.9609 129.746 44.046L133.559 47.8725C133.644 47.9575 133.644 48.0426 133.644 48.0426V66.1548L133.559 66.3249L129.746 70.4065C129.831 70.5766 129.746 70.5766 129.661 70.5766ZM124.831 69.9813H129.492L133.136 66.0698V48.2126L129.492 44.5562H124.831L121.186 48.2126V66.0698L124.831 69.9813ZM128.305 67.5154H126.017C125.932 67.5154 125.847 67.5154 125.763 67.4303L123.644 65.2194L123.559 65.0494V49.3181C123.559 49.233 123.559 49.148 123.644 49.148L125.678 47.1072C125.763 47.0222 125.847 47.0222 125.847 47.0222H128.136C128.22 47.0222 128.305 47.0222 128.305 47.1072L130.339 49.148C130.424 49.233 130.424 49.3181 130.424 49.3181V64.9643L130.339 65.1344L128.22 67.3453C128.475 67.4303 128.39 67.5154 128.305 67.5154ZM126.186 66.9201H128.22L130.17 64.8793V49.4881L128.305 47.6174H126.271L124.407 49.4881V64.8793L126.186 66.9201Z" fill="black"/>
<path id="Vector_17" d="M150 66.1575L146.186 70.2392H141.271L137.458 66.1575V48.0453L141.271 44.2188H146.186L150 48.0453V66.1575ZM146.864 64.9671V49.3208L144.83 47.28H142.542L140.508 49.3208V64.9671L142.627 67.1779H144.915L146.864 64.9671Z" fill="black"/>
<path id="Vector_18" d="M146.101 70.5766H141.186C141.101 70.5766 141.017 70.5766 140.932 70.4916L137.118 66.4099L137.034 66.2399V48.0426C137.034 47.9575 137.034 47.8725 137.118 47.8725L140.932 44.046C141.017 43.9609 141.101 43.9609 141.101 43.9609H146.017C146.101 43.9609 146.186 43.9609 146.186 44.046L150 47.8725C150.085 47.9575 150.085 48.0426 150.085 48.0426V66.1548L150 66.3249L146.186 70.4065C146.271 70.5766 146.186 70.5766 146.101 70.5766ZM141.356 69.9813H146.017L149.661 66.0698V48.2126L146.017 44.5562H141.356L137.712 48.2126V66.0698L141.356 69.9813ZM144.746 67.5154H142.457C142.373 67.5154 142.288 67.5154 142.203 67.4303L140.085 65.2194L140 65.0494V49.3181C140 49.233 140 49.148 140.085 49.148L142.118 47.1072C142.203 47.0222 142.288 47.0222 142.288 47.0222H144.576C144.661 47.0222 144.746 47.0222 144.746 47.1072L146.779 49.148C146.864 49.233 146.864 49.3181 146.864 49.3181V64.9643L146.779 65.1344L144.661 67.3453C144.915 67.4303 144.83 67.5154 144.746 67.5154ZM142.627 66.9201H144.661L146.61 64.8793V49.4881L144.746 47.6174H142.712L140.847 49.4881V64.8793L142.627 66.9201Z" fill="black"/>
<path id="Vector_19" d="M157.034 44.5586V67.1776H164.746V70.1538H153.898V44.5586H157.034Z" fill="black"/>
<path id="Vector_20" d="M164.746 70.4943H153.898C153.729 70.4943 153.559 70.3242 153.559 70.1541V44.5589C153.559 44.3888 153.729 44.2188 153.898 44.2188H157.034C157.203 44.2188 157.373 44.3888 157.373 44.5589V66.9228H164.746C164.915 66.9228 165.085 67.0929 165.085 67.263V70.2392C165 70.3242 164.915 70.4943 164.746 70.4943ZM154.237 69.899H164.407V67.5181H157.034C156.864 67.5181 156.695 67.348 156.695 67.1779V44.814H154.152V69.899H154.237Z" fill="black"/>
<path id="Vector_21" d="M42.5423 13.6057V14.5411H40.5931V17.0921H43.0507V18.0275H39.5762V9.94922C40.8474 9.94922 41.5253 9.94922 42.8813 9.94922V10.8846H40.5931V13.6057H42.5423Z" fill="black"/>
<path id="Vector_22" d="M43.305 18.2807H39.4067V9.77734H43.1356V11.1379H40.8474V13.3488H42.7966V14.7093H40.8474V16.8352H43.305V18.2807ZM39.8305 17.8556H42.8813V17.3454H40.4237V14.3692H42.3728V13.859H40.4237V10.7978H42.7118V10.2025H39.8305V17.8556Z" fill="black"/>
<path id="Vector_23" d="M45.5084 16.4968L46.1016 17.1771H46.8643L47.4575 16.4968V15.2213L44.5762 13.1805V11.1397L45.7626 9.94922H47.2033L48.3897 11.1397V12.4152H47.4575V11.5649L46.7796 10.9696H46.1863L45.5931 11.5649V12.6703L48.3897 14.7111V16.837L47.288 18.1125H45.6779L44.5762 16.837V15.3914H45.5084V16.4968Z" fill="black"/>
<path id="Vector_24" d="M47.3728 18.2837H45.6779L44.4067 16.9232V15.1375H45.7627V16.328L46.2711 16.8382H46.7796L47.2881 16.328V15.3076L44.4067 13.2667V11.0559L45.6779 9.69531H47.3728L48.644 11.0559V12.5865H47.2881V11.6511L46.7796 11.1409H46.2711L45.7627 11.6511V12.5865L48.644 14.6273V17.0082L47.3728 18.2837ZM45.8474 17.8586H47.2033L48.2203 16.7531V14.7974L45.3389 12.7565V11.481L46.0169 10.7157H46.8644L47.5423 11.481V12.1613H48.0508V11.2259L47.1186 10.2055H45.7627L44.7457 11.311V13.0967L47.6271 15.1375V16.5831L46.8644 17.3484H46.0169L45.2542 16.5831V15.6477H44.7457V16.8382L45.8474 17.8586Z" fill="black"/>
<path id="Vector_25" d="M51.1863 10.8855H49.7456V10.0352H53.5592V10.8855H52.1185V18.0284H51.1863V10.8855Z" fill="black"/>
<path id="Vector_26" d="M52.3728 18.2807H51.0169V11.0529H49.5762V9.77734H53.8135V11.0529H52.3728V18.2807ZM51.3558 17.8556H51.8643V10.7127H53.3897V10.2025H49.9999V10.6277H51.4406V17.8556H51.3558Z" fill="black"/>
<path id="Vector_27" d="M55.1694 10.0352H57.7118L58.8982 11.2256V16.8379L57.7118 18.0284C56.8643 18.0284 56.0169 18.0284 55.1694 18.0284V10.0352ZM57.2881 17.093L57.8813 16.4977V11.6508L57.2881 11.0556H56.1016V17.093H57.2881Z" fill="black"/>
<path id="Vector_28" d="M57.7964 18.2816H54.915V9.86328H57.7964L59.1523 11.2238V17.0061L57.7964 18.2816ZM55.3388 17.8565H57.6269L58.7286 16.751V11.3089L57.6269 10.2885H55.3388V17.8565ZM57.3727 17.2612H55.932V10.7987H57.3727L58.1354 11.564V16.581L57.3727 17.2612ZM56.3557 16.8361H57.2032L57.7116 16.3259V11.734L57.2032 11.2238H56.3557V16.8361Z" fill="black"/>
<path id="Vector_29" d="M107.204 10.0352V17.178H108.475V18.0284H105.085V17.178H106.271V10.9705H105.17V10.0352H107.204Z" fill="black"/>
<path id="Vector_30" d="M108.644 18.2816H104.831V16.9211H106.017V11.2238H104.915V9.86328H107.458V17.0061H108.644V18.2816ZM105.254 17.8565H108.22V17.3463H107.034V10.2034H105.339V10.7136H106.441V17.2612H105.254V17.8565Z" fill="black"/>
<path id="Vector_31" d="M110.932 14.712L109.746 13.5216V11.2256L110.932 10.0352H112.457L113.644 11.2256V16.9229L112.457 18.1134H110.932L109.83 16.9229V15.9025H110.763V16.5828L111.271 17.178H111.949L112.542 16.5828V14.7971H110.932V14.712ZM112.627 13.7767V11.6508L112.034 10.9705H111.356L110.763 11.6508V13.1814L111.356 13.8617H112.627V13.7767Z" fill="black"/>
<path id="Vector_32" d="M112.542 18.2807H110.847L109.661 17.0052V15.6447H111.017V16.495L111.441 16.9202H111.949L112.458 16.495V14.9644H110.847L109.576 13.6039V11.1379L110.847 9.77734H112.542L113.813 11.1379V17.0052L112.542 18.2807ZM111.017 17.8556H112.373L113.39 16.8352V11.308L112.373 10.2025H111.017L110 11.308V13.4338L111.017 14.4542H112.881V16.5801L112.119 17.2603H111.271L110.593 16.5801V15.9848H110.085V16.7501L111.017 17.8556ZM112.797 13.944H111.186L110.424 13.1787V11.478L111.186 10.7127H112.034L112.797 11.478V13.944ZM111.441 13.5188H112.458V11.6481L111.949 11.1379H111.441L110.932 11.6481V13.0086L111.441 13.5188Z" fill="black"/>
<path id="Vector_33" d="M116.525 14.712L115.339 13.5216V11.2256L116.525 10.0352H118.051L119.237 11.2256V16.9229L118.051 18.1134H116.525L115.424 16.9229V15.9025H116.356V16.5828L116.864 17.178H117.542L118.135 16.5828V14.7971H116.525V14.712ZM118.22 13.7767V11.6508L117.627 10.9705H116.949L116.356 11.6508V13.1814L116.949 13.8617H118.22V13.7767Z" fill="black"/>
<path id="Vector_34" d="M118.136 18.2807H116.441L115.254 17.0052V15.6447H116.61V16.495L117.034 16.9202H117.542L118.051 16.495V14.9644H116.441L115.169 13.6039V11.1379L116.441 9.77734H118.136L119.407 11.1379V17.0052L118.136 18.2807ZM116.61 17.8556H117.966L118.983 16.8352V11.308L117.966 10.2025H116.61L115.593 11.308V13.4338L116.61 14.5392H118.475V16.6651L117.712 17.3454H116.864L116.186 16.6651V16.0699H115.678V16.8352L116.61 17.8556ZM118.475 13.944H116.864L116.102 13.1787V11.478L116.864 10.7127H117.712L118.475 11.478V13.944ZM117.034 13.5188H118.051V11.6481L117.542 11.1379H117.034L116.525 11.6481V13.0086L117.034 13.5188Z" fill="black"/>
<path id="Vector_35" d="M123.39 11.3107V10.9705H121.78V11.8209H120.763V10.0352H124.322V11.4807L122.203 18.0284H121.186L123.39 11.3107Z" fill="black"/>
<path id="Vector_36" d="M122.373 18.2816H120.932L123.22 11.3089V11.2238H122.034V12.0742H120.678V9.86328H124.661V11.564L122.373 18.2816ZM121.44 17.8565H122.034L124.152 11.3939V10.2034H121.017V11.564H121.525V10.7136H123.559V11.3089L121.44 17.8565Z" fill="black"/>
<path id="Vector_37" d="M36.5254 99.913V94.3008H38.3051C40.0847 94.3008 41.1864 95.1511 41.1864 97.0219C41.1864 98.8926 40.0847 99.913 38.4745 99.913H36.5254ZM40.0847 97.0219C40.0847 95.7464 39.4915 95.3212 38.3051 95.3212H37.7118V98.8076H38.4745C39.4915 98.8926 40.0847 98.2123 40.0847 97.0219Z" fill="black"/>
<path id="Vector_38" d="M42.9663 99.913V94.3008H46.3561V95.3212H44.1527V96.4266H45.6782V97.447H44.1527V98.8926H46.3561V99.913H42.9663Z" fill="black"/>
<path id="Vector_39" d="M48.3052 99.913V94.3008H51.7798V95.3212H49.4916V96.4266H51.1018V97.447H49.4916V98.8926H51.7798V99.913H48.3052Z" fill="black"/>
<path id="Vector_40" d="M53.644 99.913V94.3008H55.6779C56.7796 94.3008 57.4576 94.9811 57.4576 96.1715C57.4576 97.277 56.7796 98.0423 55.6779 98.0423H54.7457V99.9981H53.644V99.913ZM56.4407 96.1715C56.4407 95.6613 56.1017 95.4062 55.5085 95.4062H54.7457V97.0219H55.5085C56.1017 96.9368 56.4407 96.6817 56.4407 96.1715Z" fill="black"/>
<path id="Vector_41" d="M62.1187 98.8947L63.0509 98.2144C63.3051 98.6396 63.6441 98.8947 64.0678 98.8947C64.4068 98.8947 64.661 98.6396 64.661 98.2995C64.661 97.4491 62.4576 97.109 62.4576 95.5784C62.4576 94.7281 63.2203 94.1328 63.9831 94.1328C64.5763 94.1328 65.0848 94.3879 65.339 94.8981L64.5763 95.5784C64.4068 95.3233 64.2373 95.1532 63.9831 95.1532C63.7288 95.1532 63.5593 95.3233 63.5593 95.5784C63.5593 96.2587 65.678 96.6838 65.678 98.2144C65.678 99.1498 64.9153 99.9151 63.8983 99.9151C63.2203 100 62.4576 99.66 62.1187 98.8947Z" fill="black"/>
<path id="Vector_42" d="M67.7118 99.913V95.4062H66.6948V94.3008H69.9999V95.4062H68.8982V99.913H67.7118Z" fill="black"/>
<path id="Vector_43" d="M74.2373 98.0423V94.3008H75.4237V97.9572C75.4237 99.4028 74.4915 100.083 73.4745 100.083C72.4576 100.083 71.5254 99.4879 71.5254 97.9572V94.3008H72.7118V98.0423C72.7118 98.6375 73.0508 98.9777 73.4745 98.9777C73.8983 98.9777 74.2373 98.6375 74.2373 98.0423Z" fill="black"/>
<path id="Vector_44" d="M77.4575 99.913V94.3008H79.2372C81.0168 94.3008 82.1185 95.1511 82.1185 97.0219C82.1185 98.8926 81.0168 99.913 79.4067 99.913H77.4575ZM80.9321 97.0219C80.9321 95.7464 80.3389 95.3212 79.1524 95.3212H78.5592V98.8076H79.3219C80.4236 98.8926 80.9321 98.2123 80.9321 97.0219Z" fill="black"/>
<path id="Vector_45" d="M84.7459 99.913V97.5321L83.1357 94.3008H84.4069L85.0849 96.0015C85.1696 96.2566 85.2544 96.4266 85.2544 96.5117C85.2544 96.5117 85.3391 96.2566 85.4239 96.0015L86.1866 94.3008H87.4578L85.7629 97.5321V99.913H84.7459Z" fill="black"/>
<path id="Vector_46" d="M95 100.001C93.3898 100.001 92.1187 98.7255 92.1187 97.1099C92.1187 95.4943 93.3898 94.2188 95 94.2188C95.9322 94.2188 96.6102 94.5589 97.1187 95.2392L96.2712 96.0045C95.9322 95.6643 95.5085 95.4092 95 95.4092C94.0678 95.4092 93.3051 96.1745 93.3051 97.1949C93.3051 98.2153 94.0678 98.9807 95 98.9807C95.5085 98.9807 95.9322 98.7255 96.3559 98.3004L97.2034 98.9807C96.6102 99.5759 95.9322 100.001 95 100.001Z" fill="black"/>
<path id="Vector_47" d="M98.8135 99.913V94.3008H99.9152V98.8926H101.864V99.913H98.8135Z" fill="black"/>
<path id="Vector_48" d="M106.271 98.6384H104.576L104.153 99.999H102.966L104.746 94.3867H106.017L107.797 99.999H106.61L106.271 98.6384ZM104.831 97.703H106.017L105.848 97.1078C105.678 96.5126 105.509 95.9173 105.424 95.4922C105.339 95.9173 105.17 96.5126 105 97.1078L104.831 97.703Z" fill="black"/>
<path id="Vector_49" d="M108.813 98.8947L109.746 98.2144C110 98.6396 110.339 98.8947 110.763 98.8947C111.102 98.8947 111.356 98.6396 111.356 98.2995C111.356 97.4491 109.152 97.109 109.152 95.5784C109.152 94.7281 109.915 94.1328 110.678 94.1328C111.271 94.1328 111.78 94.3879 112.034 94.8981L111.271 95.5784C111.102 95.3233 110.932 95.1532 110.678 95.1532C110.424 95.1532 110.254 95.3233 110.254 95.5784C110.254 96.2587 112.373 96.6838 112.373 98.2144C112.373 99.1498 111.61 99.9151 110.593 99.9151C109.915 100 109.152 99.66 108.813 98.8947Z" fill="black"/>
<path id="Vector_50" d="M113.475 98.8947L114.407 98.2144C114.661 98.6396 115 98.8947 115.424 98.8947C115.763 98.8947 116.017 98.6396 116.017 98.2995C116.017 97.4491 113.814 97.109 113.814 95.5784C113.814 94.7281 114.576 94.1328 115.339 94.1328C115.932 94.1328 116.441 94.3879 116.695 94.8981L115.932 95.5784C115.763 95.3233 115.593 95.1532 115.339 95.1532C115.085 95.1532 114.915 95.3233 114.915 95.5784C114.915 96.2587 117.034 96.6838 117.034 98.2144C117.034 99.1498 116.271 99.9151 115.254 99.9151C114.661 100 113.898 99.66 113.475 98.8947Z" fill="black"/>
<path id="Vector_51" d="M118.813 99.913V94.3008H122.203V95.3212H119.915V96.4266H121.525V97.447H119.915V98.8926H122.203V99.913H118.813Z" fill="black"/>
<path id="Vector_52" d="M123.644 98.8947L124.576 98.2144C124.83 98.6396 125.169 98.8947 125.593 98.8947C125.932 98.8947 126.186 98.6396 126.186 98.2995C126.186 97.4491 123.983 97.109 123.983 95.5784C123.983 94.7281 124.746 94.1328 125.508 94.1328C126.102 94.1328 126.61 94.3879 126.864 94.8981L126.102 95.5784C125.932 95.3233 125.763 95.1532 125.508 95.1532C125.254 95.1532 125.085 95.3233 125.085 95.5784C125.085 96.2587 127.203 96.6838 127.203 98.2144C127.203 99.1498 126.441 99.9151 125.424 99.9151C124.746 100 124.068 99.66 123.644 98.8947Z" fill="black"/>
<path id="Vector_53" d="M163.39 82.8218H0.847458C0.338983 82.8218 0 82.4816 0 81.9714C0 81.4612 0.338983 81.1211 0.847458 81.1211H163.39C163.898 81.1211 164.237 81.4612 164.237 81.9714C164.237 82.3966 163.814 82.8218 163.39 82.8218Z" fill="black"/>
<path id="Vector_54" d="M69.2373 22.7891H70.339V27.7211C70.339 28.9966 71.3559 30.102 72.7119 30.102C73.983 30.102 75.0847 29.0816 75.0847 27.7211V22.7891H89.2373V27.7211C89.2373 28.9966 90.2542 30.102 91.6102 30.102C92.8813 30.102 93.983 29.0816 93.983 27.7211V22.7891H95.0847C97.0339 22.7891 98.5593 21.2585 98.5593 19.3027V3.48639C98.5593 1.53061 97.0339 0 95.0847 0H69.2373C67.2881 0 65.7627 1.53061 65.7627 3.48639V19.3878C65.7627 21.2585 67.3729 22.7891 69.2373 22.7891ZM73.3898 27.8061C73.3898 28.1463 73.0508 28.4864 72.7119 28.4864C72.3729 28.4864 72.0339 28.1463 72.0339 27.8061V22.8742H73.3898V27.8061ZM92.2034 27.8061C92.2034 28.1463 91.8644 28.4864 91.5254 28.4864C91.1864 28.4864 90.8474 28.1463 90.8474 27.8061V22.8742H92.2034V27.8061ZM95 21.1735H93.8983H93.0508H92.2034H90.8474H90H89.1525H75H74.1525H73.3051H72.0339H71.1864H70.339H69.2373C68.3051 21.1735 67.6271 20.4932 67.4576 19.6429H70.339H71.1864H72.0339H73.3898H74.2373H75.0847H89.2373H90.0847H90.9322H92.2881H93.1356H93.983H96.8644C96.6102 20.4932 95.8474 21.1735 95 21.1735ZM67.4576 3.48639C67.4576 2.46599 68.3051 1.70068 69.2373 1.70068H70.678H71.7796H73.4746H74.5763H89.4915H90.5932H92.2881H93.3898H94.8305C95.8474 1.70068 96.6102 2.55102 96.6102 3.48639V18.8776H93.7288H92.8813H92.0339H90.6779H89.8305H88.983H75H74.1525H73.3051H72.0339H71.1864H70.339H67.4576V3.48639Z" fill="black"/>
<path id="Vector_55" d="M75.5083 10.9692H76.7795L78.5592 15.3059C78.6439 15.561 78.9829 15.7311 79.2371 15.7311H79.3219C79.6609 15.7311 79.9151 15.476 79.9998 15.2209L82.3727 6.29233H87.1185C87.5422 6.29233 87.8812 5.9522 87.8812 5.52702C87.8812 5.10185 87.5422 4.76172 87.1185 4.76172H81.7795C81.4405 4.76172 81.1863 5.01682 81.1015 5.27192L79.1524 12.7549L77.9659 9.94879C77.8812 9.69369 77.5422 9.52362 77.288 9.52362H75.5083C75.3388 9.52362 75.1693 9.60866 74.9998 9.69369C74.8304 9.86376 74.7456 10.0338 74.7456 10.2039C74.7456 10.459 74.8304 10.6291 74.9998 10.7141C75.1693 10.8842 75.3388 10.9692 75.5083 10.9692Z" fill="black"/>
<path id="Vector_56" d="M83.3898 9.01172C82.966 9.01172 82.7118 9.35185 82.7118 9.69199V10.6274C82.7118 10.9675 83.0508 11.3076 83.3898 11.3076C83.7288 11.3076 84.0677 10.9675 84.0677 10.6274V10.3723H86.8644C87.2033 10.3723 87.5423 10.6274 87.5423 11.0525C87.5423 11.4777 87.2881 11.7328 86.8644 11.7328H85.1694C84.8305 11.7328 84.4915 12.0729 84.4915 12.4131C84.4915 12.8382 84.8305 13.0934 85.1694 13.0934H87.1186C87.4576 13.0934 87.7966 13.4335 87.7966 13.7736C87.7966 14.1138 87.4576 14.4539 87.1186 14.4539H84.4915C84.2372 14.4539 84.0677 14.2838 83.8983 14.0287C83.8135 13.6886 83.3898 13.5185 83.0508 13.6036C82.7118 13.6886 82.5423 14.1138 82.6271 14.4539C82.8813 15.3042 83.5593 15.8144 84.4915 15.8144H87.1186C88.2203 15.8144 89.1525 14.8791 89.1525 13.7736C89.1525 13.1784 88.8983 12.6682 88.4745 12.243C88.7288 11.9029 88.8983 11.4777 88.8983 11.0525C88.8983 9.94709 87.966 9.01172 86.8644 9.01172H83.3898Z" fill="black"/>
</g>
<defs>
<clipPath id="clip0_5594_1757">
<rect width="165" height="100" fill="white"/>
</clipPath>
</defs>
</svg>
