<svg width="106" height="100" viewBox="0 0 106 100" fill="none" xmlns="http://www.w3.org/2000/svg">
<g id="Frame" clip-path="url(#clip0_5594_1695)">
<path id="Vector" d="M105.247 99.9994H103.967C96.439 99.9994 88.9859 99.924 81.4575 99.924C65.8737 99.924 49.9887 99.924 34.6308 99.924C23.7899 99.924 12.8737 99.9994 2.03276 99.9994H0.75293L1.43049 98.8682C2.03276 97.8878 2.55975 96.832 3.16202 95.8516L4.44185 96.6057C4.06543 97.209 3.68901 97.8878 3.38787 98.4911C13.8524 98.4911 24.2416 98.4911 34.7061 98.4157C50.064 98.4157 65.949 98.3403 81.5328 98.4157C88.6095 98.4157 95.6862 98.4911 102.763 98.4911C102.537 98.114 102.311 97.7369 102.161 97.3599L101.784 96.7565L103.064 96.0024L103.44 96.6057C103.817 97.209 104.118 97.8123 104.494 98.4157C104.57 98.5665 104.645 98.7173 104.72 98.8682L105.247 99.9994Z" fill="black"/>
<g id="Group">
<path id="Vector_2" d="M14.078 32.8789L12.497 39.0629L10.9913 32.8789H9.63623L11.8195 41.8533V50.6014H13.1746V41.9287L15.4331 32.8789H14.078Z" fill="black"/>
<path id="Vector_3" d="M25.3706 50.6014H30.7158V49.2439H26.7257V42.3812H28.6078V41.0991H26.7257V34.161H30.7158V32.8789H25.3706V50.6014Z" fill="black"/>
<path id="Vector_4" d="M42.4601 49.2439V33.1806L42.0084 32.8789H41.4814L41.105 33.1806V50.6014H46.0737L46.4502 50.2243V49.621L46.0737 49.2439H42.4601Z" fill="black"/>
<path id="Vector_5" d="M58.1193 49.2439V33.1806L57.7428 32.8789H57.2159L56.7642 33.1806V50.6014H61.7329L62.1093 50.2243V49.621L61.7329 49.2439H58.1193Z" fill="black"/>
<path id="Vector_6" d="M77.7683 34.7643C77.166 33.4822 76.3379 32.8789 75.2086 32.8789H75.058C74.3052 32.8789 73.6276 33.1806 73.1759 33.7839C72.6489 34.161 72.4231 34.9151 72.4231 36.1217V47.434C72.4231 48.2635 72.4984 48.7914 72.649 49.0177C73.1759 50.0735 74.0041 50.6014 75.1333 50.6014C75.3592 50.6014 75.6603 50.526 76.0367 50.4506C77.2413 49.9226 77.9188 49.0931 77.9188 47.8864V35.443L77.7683 34.7643ZM76.5637 47.8864L76.4884 48.3389C76.1873 48.9423 75.8109 49.2439 75.2839 49.2439H75.1333C74.9828 49.2439 74.9075 49.2439 74.9075 49.2439C74.1546 49.0177 73.7782 48.5652 73.7782 47.8864V35.5938C73.7782 35.2922 73.8535 35.0659 73.9288 34.8397C74.2299 34.3118 74.6816 34.0855 75.1333 34.0855C75.4345 34.0855 75.6603 34.161 75.8862 34.3118C76.3379 34.6134 76.4884 34.9905 76.4884 35.3676L76.5637 47.8864Z" fill="black"/>
<path id="Vector_7" d="M94.4814 32.8789V33.0297C93.7286 39.0629 93.2769 42.7582 92.9757 44.6436L92.5993 41.7779L93.6533 32.8789H92.3735L91.9218 36.4988L91.4701 32.8789H90.1149L91.2442 41.7779L90.8678 44.7944L89.3621 32.8789H88.0823L90.2655 50.6014H91.4701L91.9218 47.0569L92.3735 50.6014H93.578L95.7613 32.8789H94.4814Z" fill="black"/>
</g>
<path id="Vector_8" d="M29.9629 62.5195V62.7458H28.909V64.6311H29.4359V64.8574H28.909V66.7428H29.9629V66.969H28.6831V62.5195H29.9629Z" fill="black"/>
<path id="Vector_9" d="M29.9632 67.1207H28.6834C28.6081 67.1207 28.4575 67.0453 28.4575 66.8945V62.445C28.4575 62.3696 28.5328 62.2188 28.6834 62.2188H29.9632C30.0385 62.2188 30.1891 62.2942 30.1891 62.445V62.6712C30.1891 62.7467 30.1138 62.8975 29.9632 62.8975H29.1351V64.4058H29.4362C29.5115 64.4058 29.6621 64.4812 29.6621 64.632V64.8583C29.6621 64.9337 29.5868 65.0845 29.4362 65.0845H29.1351V66.5928H29.9632C30.0385 66.5928 30.1891 66.6682 30.1891 66.8191V67.0453C30.1138 67.0453 30.0385 67.1207 29.9632 67.1207Z" fill="black"/>
<path id="Vector_10" d="M32.8992 62.5195C33.2004 62.5195 33.3509 62.6704 33.5015 62.8966C33.5015 62.972 33.5768 63.0474 33.5768 63.1228V63.1983H33.3509V63.1228C33.3509 62.972 33.2757 62.8212 33.1251 62.7458H32.9745C32.824 62.7458 32.7487 62.8212 32.5981 62.972C32.5981 63.0474 32.5228 63.1229 32.5228 63.1983V64.2541C32.5228 64.3295 32.5228 64.4803 32.5981 64.5557C32.6734 64.6311 32.824 64.7066 33.0498 64.7066C33.2004 64.7066 33.3509 64.782 33.4262 64.9328C33.5015 65.0836 33.5768 65.159 33.5768 65.3099V66.3657C33.5768 66.5919 33.4262 66.8182 33.2004 66.969C33.1251 67.0444 33.0498 67.0444 32.8992 67.0444C32.5981 67.0444 32.4475 66.8936 32.297 66.5919C32.297 66.5165 32.2217 66.4411 32.2217 66.3657V66.2903H32.4475V66.3657C32.4475 66.5165 32.5228 66.6673 32.7487 66.7428H32.8992C33.0498 66.7428 33.2004 66.6673 33.2757 66.4411V66.2903V65.3099C33.2757 65.0836 33.2004 64.9328 33.0498 64.8574C32.8992 64.8574 32.7487 64.782 32.7487 64.782C32.6734 64.782 32.5228 64.7066 32.4475 64.5557C32.3722 64.4049 32.297 64.2541 32.297 64.0278V63.1983C32.297 62.8966 32.3722 62.7458 32.4475 62.6704C32.5228 62.5949 32.6734 62.5195 32.8992 62.5195Z" fill="black"/>
<path id="Vector_11" d="M32.8989 67.121C32.6731 67.121 32.2967 67.0456 32.1461 66.5931C32.0708 66.5177 32.0708 66.4423 32.0708 66.2915V66.2161C32.0708 66.1406 32.1461 65.9898 32.2967 65.9898H32.5225C32.5978 65.9898 32.7484 66.0652 32.7484 66.2161V66.3669C32.7484 66.4423 32.7484 66.5177 32.8989 66.5931H32.9742C33.0495 66.5931 33.1248 66.5931 33.2001 66.4423V66.3669V65.3865C33.2001 65.1602 33.1248 65.1602 33.0495 65.1602C32.8989 65.1602 32.8236 65.0848 32.7484 65.0848C32.5978 65.0848 32.4472 64.934 32.2967 64.7832C32.1461 64.6323 32.0708 64.4061 32.0708 64.1798V63.3503C32.0708 62.9732 32.1461 62.747 32.2967 62.6716C32.4472 62.5207 32.5978 62.4453 32.8989 62.4453C33.1248 62.4453 33.4259 62.5207 33.6518 62.9732C33.7271 63.0486 33.7271 63.1995 33.7271 63.2749V63.3503C33.7271 63.4257 33.6518 63.5765 33.5012 63.5765H33.2753C33.2001 63.5765 33.0495 63.5011 33.0495 63.3503V63.2749C33.0495 63.1995 33.0495 63.124 32.8989 63.0486H32.8236C32.7484 63.0486 32.6731 63.0486 32.5978 63.1995V63.2749V64.3307L32.6731 64.4815C32.7484 64.5569 32.8236 64.5569 32.9742 64.5569C33.2001 64.5569 33.3506 64.7078 33.5012 64.8586C33.6518 65.0094 33.6518 65.2357 33.6518 65.3865V66.3669C33.6518 66.6685 33.5012 66.8948 33.2001 67.121C33.1248 67.121 32.9742 67.121 32.8989 67.121Z" fill="black"/>
<path id="Vector_12" d="M37.0396 62.5195V62.7458H36.5126V66.969H36.2868V62.7458H35.7598V62.5195H37.0396Z" fill="black"/>
<path id="Vector_13" d="M36.5129 67.1207H36.287C36.2117 67.1207 36.0612 67.0453 36.0612 66.8945V62.8975H35.76C35.6847 62.8975 35.5342 62.8221 35.5342 62.6712V62.445C35.5342 62.3696 35.6095 62.2188 35.76 62.2188H37.0399C37.1151 62.2188 37.2657 62.2942 37.2657 62.445V62.6712C37.2657 62.7467 37.1904 62.8975 37.0399 62.8975H36.7387V66.8945C36.7387 67.0453 36.6634 67.1207 36.5129 67.1207Z" fill="black"/>
<path id="Vector_14" d="M39.8253 62.5207C40.1265 62.5207 40.277 62.5961 40.3523 62.6716C40.5029 62.8224 40.5782 62.9732 40.5782 63.124V66.2915C40.5782 66.5931 40.4276 66.744 40.1265 66.8948C40.0512 66.8948 39.9759 66.8948 39.9006 66.8948H39.2983V62.4453H39.8253V62.5207ZM39.5242 62.747V66.6685H39.9759C40.1265 66.6685 40.2017 66.5931 40.3523 66.4423V66.2915V63.0486C40.3523 62.8978 40.277 62.8224 40.1265 62.6716C40.0512 62.6716 39.9759 62.6716 39.9006 62.6716H39.5242V62.747Z" fill="black"/>
<path id="Vector_15" d="M39.9004 67.1207H39.2981C39.2228 67.1207 39.0723 67.0453 39.0723 66.8945V62.445C39.0723 62.3696 39.1475 62.2188 39.2981 62.2188H39.8251C40.1262 62.2188 40.3521 62.2942 40.5027 62.445C40.6532 62.5958 40.8038 62.8221 40.8038 63.0483V66.2157C40.8038 66.442 40.7285 66.8191 40.2768 66.9699C40.1262 67.1207 40.051 67.1207 39.9004 67.1207ZM39.7498 66.5174H39.9757C39.9757 66.5174 40.051 66.5174 40.1262 66.3666V66.2911V63.0483C40.1262 63.0483 40.1262 62.9729 39.9757 62.8975C39.9757 62.8975 39.9757 62.8975 39.8251 62.8975H39.6745V66.5174H39.7498Z" fill="black"/>
<path id="Vector_16" d="M66.6264 62.5195V66.969H66.4005V63.1983C66.3252 63.2737 66.1747 63.2737 65.8735 63.2737V63.0474H65.9488C66.0994 63.0474 66.1747 62.972 66.3252 62.8212L66.4005 62.6704V62.5195H66.6264Z" fill="black"/>
<path id="Vector_17" d="M66.6264 67.1192H66.4005C66.3253 67.1192 66.1747 67.0438 66.1747 66.8929V63.3485C66.0994 63.3485 65.9488 63.3485 65.8736 63.3485C65.7983 63.3485 65.6477 63.273 65.6477 63.1222V62.896C65.6477 62.8206 65.723 62.6697 65.8736 62.6697H65.9488C66.0241 62.6697 66.0994 62.6697 66.1747 62.5189V62.4435V62.2926C66.1747 62.2172 66.25 62.0664 66.4005 62.0664H66.6264C66.7017 62.0664 66.8523 62.1418 66.8523 62.2926V66.7421C66.8523 67.0438 66.7017 67.1192 66.6264 67.1192Z" fill="black"/>
<path id="Vector_18" d="M69.487 62.5195C69.7129 62.5195 69.8635 62.5949 70.014 62.7458C70.0893 62.8966 70.1646 63.0474 70.1646 63.1228V66.3657C70.1646 66.5165 70.0893 66.7428 69.8635 66.8182C69.7882 66.8936 69.6376 66.969 69.487 66.969C69.1859 66.969 69.0353 66.8182 68.8848 66.5165V66.3657V66.2903H69.1106C69.1106 66.5165 69.1859 66.6673 69.3365 66.7428H69.487H69.5623C69.7129 66.7428 69.8635 66.6673 69.9387 66.5165C69.9387 66.4411 69.9387 66.3657 69.9387 66.2903V64.8574H69.5623C69.2612 64.8574 69.0353 64.7066 68.96 64.4049C68.96 64.3295 68.96 64.2541 68.96 64.1032V63.2737C68.96 62.972 69.0353 62.8212 69.1106 62.6704C69.1859 62.5949 69.3365 62.5195 69.487 62.5195ZM69.1106 63.2737V64.1032C69.1106 64.3295 69.1859 64.4803 69.2612 64.5557C69.3365 64.6311 69.4118 64.6311 69.487 64.6311H69.8635V63.2737C69.8635 62.972 69.7129 62.8212 69.487 62.8212C69.3365 62.8212 69.2612 62.8966 69.1106 63.0474C69.1106 63.0474 69.1106 63.1228 69.1106 63.2737Z" fill="black"/>
<path id="Vector_19" d="M69.487 67.1207C69.1859 67.1207 68.8847 67.0453 68.6589 66.5174C68.6589 66.442 68.5836 66.3666 68.5836 66.2911V66.2157C68.5836 66.1403 68.6589 65.9895 68.8094 65.9895H69.0353C69.1106 65.9895 69.2611 66.0649 69.2611 66.2157C69.2611 66.442 69.3364 66.5174 69.4117 66.5174H69.487C69.487 66.5174 69.5623 66.5174 69.6376 66.3666C69.6376 66.3666 69.6376 66.3666 69.6376 66.2157V65.0091H69.4117C69.1859 65.0091 68.8094 64.9337 68.5836 64.4058C68.5836 64.255 68.5083 64.1795 68.5083 64.0287V63.1991C68.5083 62.8221 68.5836 62.5958 68.7342 62.445C68.8847 62.2942 69.0353 62.2188 69.3364 62.2188C69.6376 62.2188 69.7881 62.2942 69.9387 62.5204C70.0893 62.6712 70.0893 62.8221 70.1645 63.0483V66.3666C70.1645 66.5928 70.014 66.8191 69.7881 66.9699C69.8634 67.1207 69.7128 67.1207 69.487 67.1207ZM69.487 62.9729C69.4117 62.9729 69.4117 62.9729 69.3364 63.1237C69.3364 63.1237 69.3364 63.1991 69.3364 63.2746V64.1041C69.3364 64.1795 69.3364 64.3304 69.4117 64.3304L69.5623 64.4058H69.7881V63.1991C69.7128 62.9729 69.5623 62.9729 69.487 62.9729Z" fill="black"/>
<path id="Vector_20" d="M73.0256 62.5195C73.2515 62.5195 73.402 62.5949 73.5526 62.7458C73.6279 62.8966 73.7032 63.0474 73.7032 63.1228V66.3657C73.7032 66.5165 73.6279 66.7428 73.402 66.8182C73.3268 66.8936 73.1762 66.969 73.0256 66.969C72.7245 66.969 72.5739 66.8182 72.4233 66.5165V66.3657V66.2903H72.6492C72.6492 66.5165 72.7245 66.6673 72.875 66.7428H73.0256C73.1762 66.7428 73.3268 66.6673 73.402 66.5165C73.402 66.4411 73.402 66.3657 73.402 66.2903V64.8574H73.0256C72.7245 64.8574 72.4986 64.7066 72.4233 64.4049C72.4233 64.3295 72.4233 64.2541 72.4233 64.1032V63.2737C72.4233 62.972 72.4986 62.8212 72.5739 62.6704C72.7245 62.5949 72.875 62.5195 73.0256 62.5195ZM72.6492 63.2737V64.1032C72.6492 64.3295 72.7245 64.4803 72.7998 64.5557C72.875 64.6311 72.9503 64.6311 73.0256 64.6311H73.402V63.2737C73.402 62.972 73.2515 62.8212 73.0256 62.8212C72.875 62.8212 72.7998 62.8966 72.6492 63.0474C72.6492 63.0474 72.6492 63.1228 72.6492 63.2737Z" fill="black"/>
<path id="Vector_21" d="M73.0255 67.1207C72.7243 67.1207 72.4232 67.0453 72.1974 66.5174C72.1974 66.442 72.1221 66.3666 72.1221 66.2911V66.2157C72.1221 66.1403 72.1974 65.9895 72.3479 65.9895H72.5738C72.6491 65.9895 72.7996 66.0649 72.7996 66.2157C72.7996 66.442 72.8749 66.5174 72.9502 66.5174H73.0255C73.0255 66.5174 73.1008 66.5174 73.176 66.3666C73.176 66.3666 73.176 66.3666 73.176 66.2157V65.0091H73.0255C72.7996 65.0091 72.4232 64.9337 72.1974 64.4058C72.1974 64.255 72.1221 64.1795 72.1221 64.0287V63.1991C72.1221 62.8221 72.1974 62.5958 72.3479 62.445C72.4985 62.2942 72.6491 62.2188 72.9502 62.2188C73.2513 62.2188 73.4019 62.2942 73.5525 62.5204C73.703 62.6712 73.703 62.8221 73.7783 63.0483V66.3666C73.7783 66.5928 73.6277 66.8191 73.4019 66.9699C73.4019 67.1207 73.176 67.1207 73.0255 67.1207ZM73.0255 62.9729C72.9502 62.9729 72.9502 62.9729 72.8749 63.1237C72.8749 63.1237 72.8749 63.1991 72.8749 63.2746V64.1041C72.8749 64.1795 72.8749 64.3304 72.9502 64.3304L73.1008 64.4058H73.3266V63.1991C73.2513 62.9729 73.1008 62.9729 73.0255 62.9729Z" fill="black"/>
<path id="Vector_22" d="M75.9615 62.5195H77.2413L76.7144 64.6311H77.0155V64.8574H76.6391L76.1121 66.969H75.8862L76.4132 64.8574H76.1121V64.6311H76.4885L76.9402 62.7458H75.9615V62.5195Z" fill="black"/>
<path id="Vector_23" d="M76.1123 67.118H75.8864L75.7358 67.0426V66.8918L76.1875 65.0064H76.1123C76.037 65.0064 75.8864 64.931 75.8864 64.7801V64.5539C75.8864 64.4785 75.9617 64.3277 76.1123 64.3277H76.3381L76.7145 62.8194H75.9617C75.8864 62.8194 75.7358 62.7439 75.7358 62.5931V62.3669C75.7358 62.2915 75.8111 62.1406 75.9617 62.1406H77.2415L77.3921 62.216V62.3669L76.9404 64.2522H77.0157C77.091 64.2522 77.2415 64.3277 77.2415 64.4785V64.8556C77.2415 64.931 77.1662 65.0818 77.0157 65.0818H76.7898L76.3381 67.0426C76.3381 67.118 76.2628 67.118 76.1123 67.118Z" fill="black"/>
<path id="Vector_24" d="M28.9089 81.75C29.2101 81.75 29.3606 81.8254 29.4359 81.9008C29.5865 82.0517 29.6618 82.2025 29.6618 82.4287V83.56C29.6618 83.8616 29.5865 84.0124 29.4359 84.0879C29.4359 84.0879 29.5112 84.1633 29.5865 84.3141C29.6618 84.3895 29.6618 84.5403 29.6618 84.6158V85.747C29.6618 85.9732 29.5112 86.1995 29.2853 86.3503C29.2101 86.4257 29.0595 86.4257 28.9842 86.4257H28.3066V81.75H28.9089ZM28.6078 81.9762V83.937H28.9842C29.2101 83.937 29.3606 83.8616 29.4359 83.6354V83.4845V82.4287C29.4359 82.2025 29.3606 82.0517 29.1348 81.9762H28.9842H28.6078ZM28.6078 84.1633V86.1241H29.0595C29.21 86.1241 29.3606 86.0486 29.4359 85.8224V85.6716V84.6158C29.4359 84.3895 29.3606 84.2387 29.1348 84.1633C29.0595 84.1633 28.9842 84.1633 28.9089 84.1633H28.6078Z" fill="black"/>
<path id="Vector_25" d="M28.9845 86.5774H28.3069L28.1563 86.502L28.0811 86.3512V81.6755C28.0811 81.6001 28.1563 81.4492 28.3069 81.4492H28.8339C29.135 81.4492 29.3609 81.5246 29.5115 81.6755C29.7373 81.8263 29.8126 82.0525 29.8126 82.3542V83.4854C29.8126 83.7871 29.7373 83.9379 29.662 84.0133L29.7373 84.1641C29.8126 84.315 29.8126 84.4658 29.8126 84.5412V85.6724C29.8126 85.9741 29.662 86.2758 29.3609 86.4266C29.2856 86.5774 29.135 86.5774 28.9845 86.5774ZM28.7586 85.9741H29.0597C29.135 85.9741 29.2103 85.9741 29.2856 85.8233V85.7479V84.6921C29.2856 84.5412 29.2103 84.4658 29.135 84.4658C29.135 84.4658 29.0597 84.4658 28.9845 84.4658H28.8339V85.9741H28.7586ZM28.7586 83.7871H28.9845C29.135 83.7871 29.2103 83.7117 29.2103 83.5608V83.4854V82.4296C29.2103 82.2788 29.135 82.2034 28.9845 82.2034H28.9092H28.7586V83.7871Z" fill="black"/>
<path id="Vector_26" d="M32.3723 81.7512H32.5982V85.6728C32.5982 85.899 32.6735 86.0498 32.824 86.1252H32.9746C33.1252 86.1252 33.2757 86.0498 33.351 85.8236V85.6728V81.6758H33.5769V85.5973C33.5769 85.9744 33.4263 86.2007 33.0499 86.2761C32.9746 86.2761 32.8993 86.2761 32.824 86.2761C32.5229 86.2761 32.3723 86.1253 32.2218 85.8236C32.2218 85.7482 32.1465 85.6728 32.1465 85.5973V81.7512H32.3723Z" fill="black"/>
<path id="Vector_27" d="M33.0498 86.5762C32.824 86.5762 32.5228 86.5008 32.297 86.0483C32.2217 85.8975 32.2217 85.8221 32.2217 85.7467V81.7497C32.2217 81.6743 32.297 81.5234 32.4475 81.5234H32.6734C32.7487 81.5234 32.8992 81.5989 32.8992 81.7497V85.6713C32.8992 85.8975 32.9745 85.9729 33.0498 85.9729H33.1251C33.2004 85.9729 33.3509 85.9729 33.4262 85.8221V85.7467V81.7497C33.4262 81.6743 33.5015 81.5234 33.6521 81.5234H33.8779C33.9532 81.5234 34.1038 81.5989 34.1038 81.7497V85.6713C34.1038 86.1237 33.8779 86.4254 33.5015 86.5762C33.2004 86.5762 33.1251 86.5762 33.0498 86.5762Z" fill="black"/>
<path id="Vector_28" d="M37.0398 81.75C37.3409 81.75 37.5668 81.9008 37.7173 82.2025C37.7173 82.2779 37.7926 82.3533 37.7926 82.4287V82.5041H37.5668V82.4287C37.5668 82.2779 37.4915 82.1271 37.2656 82.0517H37.1151C36.9645 82.0517 36.8139 82.1271 36.7386 82.2779C36.7386 82.3533 36.6634 82.4287 36.6634 82.5041V83.56C36.6634 83.6354 36.7386 83.7862 36.8139 83.8616C36.8892 83.937 37.0398 84.0124 37.2656 84.0124C37.4162 84.0124 37.5668 84.0879 37.7173 84.2387C37.7926 84.3895 37.8679 84.5403 37.8679 84.6158V85.747C37.8679 85.9732 37.7173 86.1995 37.4915 86.3503C37.4162 86.4257 37.2656 86.4257 37.1903 86.4257C36.8892 86.4257 36.6633 86.2749 36.5881 85.9732C36.5881 85.8978 36.5128 85.8224 36.5128 85.747V85.5962H36.7386V85.6716C36.7386 85.8224 36.8139 85.9732 37.0398 86.0486H37.1903H37.2656C37.4162 86.0486 37.5668 85.9732 37.642 85.747V85.5962V84.6158C37.642 84.3895 37.5668 84.2387 37.3409 84.1633C37.1903 84.1633 37.0398 84.0879 36.9645 84.0879C36.8892 84.0879 36.7386 84.0124 36.5881 83.8616C36.5128 83.7108 36.4375 83.56 36.4375 83.3337V82.4287C36.4375 82.1271 36.5128 81.9762 36.5881 81.8254C36.6633 81.8254 36.8139 81.75 37.0398 81.75Z" fill="black"/>
<path id="Vector_29" d="M37.0396 86.5747C36.8138 86.5747 36.4374 86.4993 36.2115 86.0468C36.1362 85.9714 36.1362 85.8206 36.1362 85.7451V85.5943C36.1362 85.5189 36.2115 85.3681 36.3621 85.3681H36.5879C36.6632 85.3681 36.8138 85.4435 36.8138 85.5943V85.6697C36.8138 85.7451 36.8138 85.8206 36.9644 85.896H37.0396C37.1149 85.896 37.1902 85.896 37.2655 85.7451V85.6697V84.6893C37.2655 84.4631 37.1902 84.4631 37.1149 84.3877C36.9644 84.3877 36.8138 84.3123 36.8138 84.3123C36.6632 84.2369 36.5127 84.1614 36.3621 84.0106C36.2115 83.8598 36.1362 83.6335 36.1362 83.3319V82.4269C36.1362 82.0498 36.2115 81.8236 36.3621 81.6728C36.5127 81.5219 36.7385 81.3711 36.9644 81.3711C37.1902 81.3711 37.5666 81.4465 37.7172 81.899C37.7925 81.9744 37.7925 82.1252 37.7925 82.2007V82.2761C37.7925 82.3515 37.7172 82.5023 37.5666 82.5023H37.3408C37.2655 82.5023 37.1149 82.4269 37.1149 82.2761V82.2007C37.1149 82.1252 37.1149 82.0498 36.9644 81.9744H36.8891C36.8138 81.9744 36.7385 81.9744 36.6632 82.1252V82.2761V83.3319L36.8891 83.709C36.9644 83.7844 37.0396 83.7844 37.1902 83.7844C37.4161 83.7844 37.5666 83.9352 37.7172 84.086C37.8678 84.2369 37.8678 84.4631 37.8678 84.6139V85.7451C37.8678 86.0468 37.7172 86.3485 37.4161 86.4993C37.3408 86.5747 37.1902 86.5747 37.0396 86.5747Z" fill="black"/>
<path id="Vector_30" d="M45.547 81.75V81.9762H44.9447V86.4257H44.7189V81.9762H44.1919V81.75H45.547Z" fill="black"/>
<path id="Vector_31" d="M44.9446 86.5762H44.7188C44.6435 86.5762 44.4929 86.5008 44.4929 86.35V82.2022H44.1165C44.0412 82.2022 43.8906 82.1268 43.8906 81.9759V81.7497C43.8906 81.6743 43.9659 81.5234 44.1165 81.5234H45.4716C45.5469 81.5234 45.6974 81.5989 45.6974 81.7497V81.9759C45.6974 82.0513 45.6222 82.2022 45.4716 82.2022H45.1705V86.4254C45.1705 86.5008 45.0952 86.5762 44.9446 86.5762Z" fill="black"/>
<path id="Vector_32" d="M48.8592 81.75C49.1603 81.75 49.3862 81.9008 49.5368 82.2025V82.4287V85.747C49.5368 86.0486 49.3862 86.2749 49.085 86.4257C49.0098 86.4257 48.9345 86.4257 48.8592 86.4257C48.5581 86.4257 48.4075 86.2749 48.2569 86.0486C48.1816 85.9732 48.1816 85.8224 48.1816 85.6716V82.655C48.1816 82.3533 48.2569 82.2025 48.3322 82.0517C48.4828 81.8254 48.6333 81.75 48.8592 81.75ZM48.4075 82.4287V85.747C48.4075 85.9732 48.4828 86.1241 48.7086 86.1995H48.7839C48.9345 86.1995 49.0851 86.1241 49.1603 85.8978V85.747V82.3533C49.1603 82.2025 49.085 82.1271 49.0098 82.0517C48.9345 81.9762 48.8592 81.9762 48.7839 81.9762C48.6333 81.9762 48.4828 82.0517 48.4075 82.2025C48.4828 82.2779 48.4075 82.3533 48.4075 82.4287Z" fill="black"/>
<path id="Vector_33" d="M48.8594 86.5774C48.483 86.5774 48.2571 86.4266 48.1065 86.0495C48.0313 85.9741 48.0312 85.8233 48.0312 85.5216V82.505C48.0312 82.128 48.1065 81.9017 48.2571 81.7509C48.4077 81.6 48.6335 81.4492 48.8594 81.4492H48.9347C49.1605 81.4492 49.5369 81.5246 49.7628 82.0525V82.128V82.3542V85.7479C49.7628 86.0495 49.6875 86.3512 49.1605 86.5774C49.0099 86.5774 48.9347 86.5774 48.8594 86.5774ZM48.8594 82.128C48.7841 82.128 48.7088 82.128 48.6335 82.2788V82.4296V85.7479C48.6335 85.8233 48.6335 85.8987 48.8594 85.9741H48.9347C48.9347 85.9741 49.0852 85.9741 49.1605 85.8233V85.7479V82.4296C49.1605 82.3542 49.0852 82.2788 49.0099 82.2788L48.8594 82.128Z" fill="black"/>
<path id="Vector_34" d="M56.6135 81.75C56.9146 81.75 57.1405 81.9008 57.2911 82.2025C57.2911 82.2779 57.3663 82.3533 57.3663 82.4287V82.5041H57.1405V82.4287C57.1405 82.2779 57.0652 82.1271 56.8394 82.0517H56.6888C56.5382 82.0517 56.3877 82.1271 56.3124 82.2779C56.3124 82.3533 56.2371 82.4287 56.2371 82.5041V83.56C56.2371 83.6354 56.3124 83.7862 56.3877 83.8616C56.4629 83.937 56.6135 84.0124 56.8394 84.0124C56.9899 84.0124 57.1405 84.0879 57.2911 84.2387C57.3663 84.3895 57.4416 84.5403 57.4416 84.6158V85.747C57.4416 85.9732 57.2911 86.1995 57.0652 86.3503C56.9899 86.4257 56.8394 86.4257 56.7641 86.4257C56.4629 86.4257 56.2371 86.2749 56.1618 85.9732C56.1618 85.8978 56.0865 85.8224 56.0865 85.747V85.5962H56.3124V85.6716C56.3124 85.8224 56.3876 85.9732 56.6135 86.0486H56.7641H56.8394C56.9899 86.0486 57.1405 85.9732 57.2158 85.747V85.5962V84.6158C57.2158 84.3895 57.1405 84.2387 56.9146 84.1633C56.7641 84.1633 56.6135 84.0879 56.5382 84.0879C56.4629 84.0879 56.3124 84.0124 56.1618 83.8616C56.0865 83.7108 56.0112 83.56 56.0112 83.3337V82.4287C56.0112 82.1271 56.0865 81.9762 56.1618 81.8254C56.3124 81.8254 56.4629 81.75 56.6135 81.75Z" fill="black"/>
<path id="Vector_35" d="M56.6891 86.5747C56.4632 86.5747 56.0868 86.4993 55.8609 86.0468C55.7856 85.9714 55.7856 85.8206 55.7856 85.7451V85.5943C55.7856 85.5189 55.8609 85.3681 56.0115 85.3681H56.2373C56.3126 85.3681 56.4632 85.4435 56.4632 85.5943V85.6697C56.4632 85.7451 56.4632 85.8206 56.6138 85.896H56.6891C56.7643 85.896 56.8396 85.896 56.9149 85.7451V85.6697V84.6893C56.9149 84.4631 56.8396 84.4631 56.7643 84.3877C56.6138 84.3877 56.4632 84.3123 56.4632 84.3123C56.3126 84.2369 56.1621 84.1614 56.0115 84.0106C55.8609 83.8598 55.7856 83.6335 55.7856 83.3319V82.4269C55.7856 82.0498 55.8609 81.8236 56.0115 81.6728C56.1621 81.5219 56.3879 81.3711 56.6138 81.3711C56.8396 81.3711 57.216 81.4465 57.3666 81.899C57.4419 81.9744 57.4419 82.1252 57.4419 82.2007V82.2761C57.4419 82.3515 57.3666 82.5023 57.216 82.5023H56.9902C56.9149 82.5023 56.7643 82.4269 56.7643 82.2761V82.2007C56.7643 82.1252 56.7643 82.0498 56.6138 81.9744H56.5385C56.4632 81.9744 56.3879 81.9744 56.3126 82.1252V82.2761V83.3319L56.4632 83.709C56.5385 83.7844 56.6138 83.7844 56.7643 83.7844C56.9902 83.7844 57.1408 83.9352 57.2913 84.086C57.4419 84.2369 57.4419 84.4631 57.4419 84.6139V85.7451C57.4419 86.0468 57.2913 86.3485 56.9902 86.4993C56.9149 86.5747 56.7643 86.5747 56.6891 86.5747Z" fill="black"/>
<path id="Vector_36" d="M60.679 81.75C60.9802 81.75 61.206 81.9008 61.3566 82.2025C61.3566 82.2779 61.4319 82.3533 61.4319 82.4287V82.5041H61.206V82.4287C61.206 82.2779 61.1307 82.1271 60.9049 82.0517H60.7543C60.6037 82.0517 60.4532 82.1271 60.3779 82.2779C60.3779 82.3533 60.3026 82.4287 60.3026 82.5041V85.8224C60.3026 86.0486 60.3779 86.1995 60.6037 86.2749H60.679H60.7543C60.9049 86.2749 61.0554 86.1995 61.1307 85.9732C61.1307 85.8978 61.1307 85.8224 61.1307 85.747H61.3566V85.8224C61.3566 86.0486 61.206 86.2749 60.9802 86.4257C60.9049 86.5011 60.7543 86.5011 60.679 86.5011C60.3779 86.5011 60.2273 86.3503 60.0768 86.1241C60.0015 86.0486 60.0015 85.8978 60.0015 85.747V82.7304C60.0015 82.4287 60.0768 82.2779 60.152 82.1271C60.3026 81.8254 60.4532 81.75 60.679 81.75Z" fill="black"/>
<path id="Vector_37" d="M60.679 86.5762C60.3025 86.5762 60.0767 86.4254 59.9261 86.0483C59.8508 85.9729 59.8508 85.8221 59.8508 85.5958V82.5792C59.8508 82.2022 59.9261 81.9759 60.0767 81.8251C60.2273 81.6743 60.4531 81.5234 60.679 81.5234C60.9048 81.5234 61.2812 81.5989 61.4318 82.0513C61.5071 82.1268 61.5071 82.2776 61.5071 82.353V82.4284C61.5071 82.5038 61.4318 82.6547 61.2812 82.6547H61.0554C60.9801 82.6547 60.8295 82.5792 60.8295 82.4284V82.353C60.8295 82.2776 60.8295 82.2022 60.679 82.1268H60.6037C60.5284 82.1268 60.4531 82.1268 60.3778 82.2776V82.4284V85.7467C60.3778 85.8221 60.3778 85.8975 60.6037 85.9729H60.679C60.679 85.9729 60.8295 85.9729 60.9048 85.8221C60.9048 85.8221 60.9048 85.7467 60.9048 85.6713C60.9048 85.5958 60.9801 85.445 61.1307 85.445H61.3565C61.4318 85.445 61.5824 85.5204 61.5824 85.6713V85.7467C61.5824 86.0483 61.4318 86.35 61.1307 86.5008C60.9048 86.5762 60.8295 86.5762 60.679 86.5762Z" fill="black"/>
<path id="Vector_38" d="M64.2928 81.75V83.937H65.121V81.75H65.4221V86.4257H65.121V84.1633H64.2928V86.4257H63.9917V81.75H64.2928Z" fill="black"/>
<path id="Vector_39" d="M65.4219 86.5774H65.196C65.1207 86.5774 64.9702 86.502 64.9702 86.3512V84.315H64.5185V86.3512C64.5185 86.4266 64.4432 86.5774 64.2926 86.5774H63.9915C63.9162 86.5774 63.7656 86.502 63.7656 86.3512V81.6755C63.7656 81.6001 63.8409 81.4492 63.9915 81.4492H64.2173C64.2926 81.4492 64.4432 81.5246 64.4432 81.6755V83.7117H64.8949V81.6755C64.8949 81.6001 64.9702 81.4492 65.1207 81.4492H65.3466C65.4219 81.4492 65.5724 81.5246 65.5724 81.6755V86.3512C65.5724 86.502 65.4972 86.5774 65.4219 86.5774Z" fill="black"/>
<path id="Vector_40" d="M68.7342 81.75C69.0353 81.75 69.2612 81.9008 69.4118 82.2025V82.4287V85.747C69.4118 86.0486 69.2612 86.2749 68.96 86.4257C68.8848 86.4257 68.8095 86.4257 68.7342 86.4257C68.4331 86.4257 68.2825 86.2749 68.1319 86.0486C68.0566 85.9732 68.0566 85.8224 68.0566 85.6716V82.655C68.0566 82.3533 68.1319 82.2025 68.2072 82.0517C68.3578 81.8254 68.5083 81.75 68.7342 81.75ZM68.2825 82.4287V85.747C68.2825 85.9732 68.3578 86.1241 68.5836 86.1995H68.6589C68.8095 86.1995 68.96 86.1241 69.0353 85.8978V85.747V82.3533C69.0353 82.2025 68.96 82.1271 68.8848 82.0517C68.8095 81.9762 68.7342 81.9762 68.6589 81.9762C68.5083 81.9762 68.3578 82.0517 68.2825 82.2025C68.2825 82.2779 68.2825 82.3533 68.2825 82.4287Z" fill="black"/>
<path id="Vector_41" d="M68.7344 86.5774C68.358 86.5774 68.1321 86.4266 67.9815 86.0495C67.9063 85.9741 67.9062 85.8233 67.9062 85.5216V82.505C67.9062 82.128 67.9815 81.9017 68.1321 81.7509C68.2827 81.6 68.5085 81.4492 68.7344 81.4492C68.9602 81.4492 69.3367 81.5246 69.5625 82.0525V82.128V82.3542V85.7479C69.5625 86.0495 69.4872 86.3512 68.9602 86.5774C68.8849 86.5774 68.8097 86.5774 68.7344 86.5774ZM68.7344 82.128C68.6591 82.128 68.5838 82.128 68.5085 82.2788V82.4296V85.7479C68.5085 85.8233 68.5085 85.8987 68.7344 85.9741H68.8097C68.8097 85.9741 68.9602 85.9741 69.0355 85.8233V85.7479V82.4296C69.0355 82.3542 68.9602 82.3542 68.8849 82.2788L68.7344 82.128Z" fill="black"/>
<path id="Vector_42" d="M72.7244 81.75C73.0256 81.75 73.2514 81.9008 73.402 82.2025V82.4287V85.747C73.402 86.0486 73.2514 86.2749 72.9503 86.4257C72.875 86.4257 72.7997 86.4257 72.7244 86.4257C72.4233 86.4257 72.2727 86.2749 72.1222 86.0486C72.0469 85.9732 72.0469 85.8224 72.0469 85.6716V82.655C72.0469 82.3533 72.1222 82.2025 72.1974 82.0517C72.348 81.8254 72.4986 81.75 72.7244 81.75ZM72.348 82.4287V85.747C72.348 85.9732 72.4233 86.1241 72.6492 86.1995H72.7244C72.875 86.1995 73.0256 86.1241 73.1009 85.8978V85.747V82.3533C73.1009 82.2025 73.0256 82.1271 72.9503 82.0517C72.875 81.9762 72.7997 81.9762 72.7244 81.9762C72.5739 81.9762 72.4233 82.0517 72.348 82.2025C72.348 82.2779 72.348 82.3533 72.348 82.4287Z" fill="black"/>
<path id="Vector_43" d="M72.7246 86.5774C72.3482 86.5774 72.1223 86.4266 71.9718 86.0495C71.8965 85.9741 71.8965 85.8233 71.8965 85.5216V82.505C71.8965 82.128 71.9718 81.9017 72.1223 81.7509C72.2729 81.6 72.4988 81.4492 72.7246 81.4492C72.9505 81.4492 73.3269 81.5246 73.5527 82.0525V82.128V82.3542V85.7479C73.5527 86.0495 73.4775 86.3512 72.9505 86.5774C72.8752 86.5774 72.7999 86.5774 72.7246 86.5774ZM72.7246 82.128C72.6493 82.128 72.574 82.128 72.4988 82.2788V82.4296V85.7479C72.4988 85.8233 72.4988 85.8987 72.7246 85.9741H72.7999C72.7999 85.9741 72.9505 85.9741 73.0257 85.8233V85.7479V82.4296C73.0257 82.3542 72.9505 82.3542 72.8752 82.2788L72.7246 82.128Z" fill="black"/>
<path id="Vector_44" d="M76.1876 81.75H76.2629L76.3382 81.8254V86.1241H77.3168L77.3921 86.1995V86.3503L77.3168 86.4257H76.1123V81.8254L76.1876 81.75Z" fill="black"/>
<path id="Vector_45" d="M77.3167 86.5774H76.0369C75.9616 86.5774 75.811 86.502 75.811 86.3512V81.7509L75.8863 81.6L75.9616 81.5246L76.1122 81.4492H76.1875L76.338 81.5246L76.4133 81.6L76.4886 81.7509V85.8987H77.3167L77.4673 85.9741L77.5426 86.0495L77.6179 86.2004V86.2758L77.5426 86.4266L77.4673 86.502L77.3167 86.5774Z" fill="black"/>
<path id="Vector_46" d="M24.4675 20.7388H22.5854C22.1337 20.7388 21.8325 20.4371 21.8325 19.9846C21.8325 19.5321 22.1337 19.2305 22.5854 19.2305H24.4675C24.9192 19.2305 25.2203 19.5321 25.2203 19.9846C25.2203 20.3617 24.9192 20.7388 24.4675 20.7388Z" fill="black"/>
<path id="Vector_47" d="M77.5428 20.7388H73.7786C73.3269 20.7388 73.0258 20.4371 73.0258 19.9846C73.0258 19.5321 73.3269 19.2305 73.7786 19.2305H77.5428C77.9945 19.2305 78.2957 19.5321 78.2957 19.9846C78.2957 20.3617 77.9945 20.7388 77.5428 20.7388ZM70.0144 20.7388H66.2502C65.7985 20.7388 65.4974 20.4371 65.4974 19.9846C65.4974 19.5321 65.7985 19.2305 66.2502 19.2305H70.0144C70.4661 19.2305 70.7673 19.5321 70.7673 19.9846C70.7673 20.3617 70.3908 20.7388 70.0144 20.7388ZM62.4107 20.7388H58.6465C58.1948 20.7388 57.8937 20.4371 57.8937 19.9846C57.8937 19.5321 58.1948 19.2305 58.6465 19.2305H62.4107C62.8624 19.2305 63.1636 19.5321 63.1636 19.9846C63.1636 20.3617 62.7872 20.7388 62.4107 20.7388ZM54.807 20.7388H51.0428C50.5911 20.7388 50.29 20.4371 50.29 19.9846C50.29 19.5321 50.5911 19.2305 51.0428 19.2305H54.807C55.2587 19.2305 55.5599 19.5321 55.5599 19.9846C55.5599 20.3617 55.2587 20.7388 54.807 20.7388ZM47.2033 20.7388H43.4391C42.9874 20.7388 42.6863 20.4371 42.6863 19.9846C42.6863 19.5321 42.9874 19.2305 43.4391 19.2305H47.2033C47.6551 19.2305 47.9562 19.5321 47.9562 19.9846C47.9562 20.3617 47.6551 20.7388 47.2033 20.7388ZM39.6749 20.7388H35.9107C35.459 20.7388 35.1579 20.4371 35.1579 19.9846C35.1579 19.5321 35.459 19.2305 35.9107 19.2305H39.6749C40.1266 19.2305 40.4278 19.5321 40.4278 19.9846C40.4278 20.3617 40.0514 20.7388 39.6749 20.7388ZM32.0712 20.7388H28.307C27.8553 20.7388 27.5542 20.4371 27.5542 19.9846C27.5542 19.5321 27.8553 19.2305 28.307 19.2305H32.0712C32.5229 19.2305 32.8241 19.5321 32.8241 19.9846C32.8241 20.3617 32.4477 20.7388 32.0712 20.7388Z" fill="black"/>
<path id="Vector_48" d="M83.2643 20.7388H81.3822C80.9305 20.7388 80.6294 20.4371 80.6294 19.9846C80.6294 19.5321 80.9305 19.2305 81.3822 19.2305H83.2643C83.716 19.2305 84.0172 19.5321 84.0172 19.9846C84.0172 20.3617 83.6408 20.7388 83.2643 20.7388Z" fill="black"/>
<path id="Vector_49" d="M101.709 93.06H4.21595C2.71027 93.06 1.27987 92.2305 0.527033 90.9484C-0.225808 89.591 -0.225808 88.0073 0.527033 86.7252L17.3154 57.6151C17.6165 57.0872 18.2941 56.861 18.8211 57.238C19.3481 57.5397 19.5739 58.2184 19.1975 58.7463L2.5597 87.8564C2.18328 88.4597 2.18328 89.2139 2.5597 89.8172C2.93612 90.4205 3.5384 90.7976 4.29124 90.7976H101.784C102.462 90.7976 103.139 90.4205 103.516 89.8172C103.892 89.2139 103.892 88.4597 103.516 87.8564L86.7273 58.8217C86.4262 58.2938 86.5767 57.6151 87.1037 57.3134C87.6307 57.0118 88.3083 57.1626 88.6094 57.6905L105.398 86.7252C106.151 88.0827 106.151 89.6664 105.398 90.9484C104.645 92.2305 103.29 93.06 101.709 93.06Z" fill="black"/>
<path id="Vector_50" d="M24.4675 76.5474H22.5854C22.1337 76.5474 21.8325 76.2457 21.8325 75.7932C21.8325 75.3407 22.1337 75.0391 22.5854 75.0391H24.4675C24.9192 75.0391 25.2203 75.3407 25.2203 75.7932C25.2203 76.1703 24.9192 76.5474 24.4675 76.5474Z" fill="black"/>
<path id="Vector_51" d="M77.5428 76.5474H73.7786C73.3269 76.5474 73.0258 76.2457 73.0258 75.7932C73.0258 75.3407 73.3269 75.0391 73.7786 75.0391H77.5428C77.9945 75.0391 78.2957 75.3407 78.2957 75.7932C78.2957 76.1703 77.9945 76.5474 77.5428 76.5474ZM70.0144 76.5474H66.2502C65.7985 76.5474 65.4974 76.2457 65.4974 75.7932C65.4974 75.3407 65.7985 75.0391 66.2502 75.0391H70.0144C70.4661 75.0391 70.7673 75.3407 70.7673 75.7932C70.7673 76.1703 70.3908 76.5474 70.0144 76.5474ZM62.4107 76.5474H58.6465C58.1948 76.5474 57.8937 76.2457 57.8937 75.7932C57.8937 75.3407 58.1948 75.0391 58.6465 75.0391H62.4107C62.8624 75.0391 63.1636 75.3407 63.1636 75.7932C63.1636 76.1703 62.7872 76.5474 62.4107 76.5474ZM54.807 76.5474H51.0428C50.5911 76.5474 50.29 76.2457 50.29 75.7932C50.29 75.3407 50.5911 75.0391 51.0428 75.0391H54.807C55.2587 75.0391 55.5599 75.3407 55.5599 75.7932C55.5599 76.1703 55.2587 76.5474 54.807 76.5474ZM47.2033 76.5474H43.4391C42.9874 76.5474 42.6863 76.2457 42.6863 75.7932C42.6863 75.3407 42.9874 75.0391 43.4391 75.0391H47.2033C47.6551 75.0391 47.9562 75.3407 47.9562 75.7932C47.9562 76.1703 47.6551 76.5474 47.2033 76.5474ZM39.6749 76.5474H35.9107C35.459 76.5474 35.1579 76.2457 35.1579 75.7932C35.1579 75.3407 35.459 75.0391 35.9107 75.0391H39.6749C40.1266 75.0391 40.4278 75.3407 40.4278 75.7932C40.4278 76.1703 40.0514 76.5474 39.6749 76.5474ZM32.0712 76.5474H28.307C27.8553 76.5474 27.5542 76.2457 27.5542 75.7932C27.5542 75.3407 27.8553 75.0391 28.307 75.0391H32.0712C32.5229 75.0391 32.8241 75.3407 32.8241 75.7932C32.8241 76.1703 32.4477 76.5474 32.0712 76.5474Z" fill="black"/>
<path id="Vector_52" d="M83.2643 76.5474H81.3822C80.9305 76.5474 80.6294 76.2457 80.6294 75.7932C80.6294 75.3407 80.9305 75.0391 81.3822 75.0391H83.2643C83.716 75.0391 84.0172 75.3407 84.0172 75.7932C84.0172 76.1703 83.6408 76.5474 83.2643 76.5474Z" fill="black"/>
<path id="Vector_53" d="M48.8593 55.8828C48.4829 55.8828 48.1064 56.1845 48.1064 56.637C48.1064 57.014 48.4076 57.3911 48.8593 57.3911C49.2357 57.3911 49.6121 57.0894 49.6121 56.637C49.6121 56.1845 49.2357 55.8828 48.8593 55.8828ZM48.8593 56.8632C48.7087 56.8632 48.5581 56.7124 48.5581 56.5615C48.5581 56.4107 48.7087 56.2599 48.8593 56.2599C49.0099 56.2599 49.1604 56.4107 49.1604 56.5615C49.1604 56.7878 49.0099 56.8632 48.8593 56.8632Z" fill="black"/>
<path id="Vector_54" d="M50.5155 55.8828C50.1391 55.8828 49.7627 56.1845 49.7627 56.637C49.7627 57.014 50.0638 57.3911 50.5155 57.3911C50.892 57.3911 51.2684 57.0894 51.2684 56.637C51.1931 56.1845 50.892 55.8828 50.5155 55.8828ZM50.5155 56.8632C50.365 56.8632 50.2144 56.7124 50.2144 56.5615C50.2144 56.4107 50.365 56.2599 50.5155 56.2599C50.6661 56.2599 50.8167 56.4107 50.8167 56.5615C50.7414 56.7878 50.6661 56.8632 50.5155 56.8632Z" fill="black"/>
<path id="Vector_55" d="M55.4843 55.8828C55.1079 55.8828 54.7314 56.1845 54.7314 56.637C54.7314 57.014 55.0326 57.3911 55.4843 57.3911C55.8607 57.3911 56.2371 57.0894 56.2371 56.637C56.2371 56.1845 55.8607 55.8828 55.4843 55.8828ZM55.4843 56.8632C55.3337 56.8632 55.1832 56.7124 55.1832 56.5615C55.1832 56.4107 55.3337 56.2599 55.4843 56.2599C55.6349 56.2599 55.7854 56.4107 55.7854 56.5615C55.7854 56.7878 55.6349 56.8632 55.4843 56.8632Z" fill="black"/>
<path id="Vector_56" d="M57.1405 55.8828C56.7641 55.8828 56.3877 56.1845 56.3877 56.637C56.3877 57.014 56.6888 57.3911 57.1405 57.3911C57.517 57.3911 57.8934 57.0894 57.8934 56.637C57.8181 56.1845 57.517 55.8828 57.1405 55.8828ZM57.1405 56.8632C56.99 56.8632 56.8394 56.7124 56.8394 56.5615C56.8394 56.4107 56.99 56.2599 57.1405 56.2599C57.2911 56.2599 57.4417 56.4107 57.4417 56.5615C57.3664 56.7878 57.2911 56.8632 57.1405 56.8632Z" fill="black"/>
<path id="Vector_57" d="M48.3324 63.6484C47.7301 63.6484 47.2031 64.1763 47.2031 64.7797C47.2031 65.383 47.7301 65.9109 48.3324 65.9109C48.9347 65.9109 49.4616 65.383 49.4616 64.7797C49.4616 64.1763 48.9347 63.6484 48.3324 63.6484ZM48.3324 65.383C47.956 65.383 47.6548 65.0813 47.6548 64.7042C47.6548 64.3272 47.956 64.0255 48.3324 64.0255C48.7088 64.0255 49.0099 64.3272 49.0099 64.7042C49.0099 65.1567 48.7088 65.383 48.3324 65.383Z" fill="black"/>
<path id="Vector_58" d="M57.6678 65.9109C58.2701 65.9109 58.7971 65.383 58.7971 64.7797C58.7971 64.1763 58.2701 63.6484 57.6678 63.6484C57.0656 63.6484 56.5386 64.1763 56.5386 64.7797C56.5386 65.383 56.9903 65.9109 57.6678 65.9109ZM57.6678 64.1009C58.0443 64.1009 58.3454 64.4026 58.3454 64.7797C58.3454 65.1567 58.0443 65.4584 57.6678 65.4584C57.2914 65.4584 56.9903 65.1567 56.9903 64.7797C56.9903 64.4026 57.2914 64.1009 57.6678 64.1009Z" fill="black"/>
<path id="Vector_59" d="M45.3964 62.2912H45.6976V68.5506V69.0031V70.7376C45.6976 71.7934 46.5257 72.623 47.5797 72.623C48.6337 72.623 49.4618 71.7934 49.4618 70.7376V69.4556H56.6138V70.7376C56.6138 71.7934 57.4419 72.623 58.4959 72.623C59.5499 72.623 60.378 71.7934 60.378 70.7376V69.0031V68.5506V62.2912H60.6791C61.5072 62.2912 62.1848 61.6124 62.1848 60.7829V58.9729C62.1848 58.1433 61.5072 57.4646 60.6791 57.4646H60.2274C59.7004 55.7301 58.1195 54.5234 56.3126 54.5234H49.9135C48.0314 54.5234 46.4504 55.8055 45.9987 57.4646H45.547C44.7189 57.4646 44.0413 58.1433 44.0413 58.9729V60.7829C43.8155 61.6124 44.493 62.2912 45.3964 62.2912ZM60.6038 58.445C60.905 58.445 61.2061 58.7467 61.2061 59.0483V60.8583C61.2061 61.1599 60.905 61.4616 60.6038 61.4616H60.3027V58.6713C60.3027 58.5958 60.3027 58.5204 60.3027 58.445H60.6038ZM59.3993 70.7376C59.3993 71.2655 58.9476 71.718 58.4206 71.718C57.8936 71.718 57.4419 71.2655 57.4419 70.7376V69.4556H59.324V70.7376H59.3993ZM59.3993 58.5958V61.6124H53.226V58.1433H59.324C59.324 58.2942 59.3993 58.445 59.3993 58.5958ZM47.5044 56.3334C48.1067 55.7301 48.8595 55.4284 49.7629 55.4284H56.1621C57.0655 55.4284 57.8183 55.8055 58.4206 56.3334C58.797 56.7105 59.0981 57.163 59.2487 57.6909H46.7516C46.9021 57.2384 47.2033 56.7105 47.5044 56.3334ZM46.601 58.5958C46.601 58.445 46.601 58.2942 46.601 58.1433H52.699V61.6124H46.5257V58.5958H46.601ZM46.601 62.0649H59.3993V66.2127H55.9362V64.1011C55.9362 63.2715 55.2587 62.6682 54.5058 62.6682H51.5697C50.7416 62.6682 50.1393 63.347 50.1393 64.1011V66.2127H46.6763V62.0649H46.601ZM55.4845 64.1765V66.2881H50.591V64.1765C50.591 63.6486 51.0428 63.1961 51.5697 63.1961H54.5058C55.0328 63.1961 55.4845 63.6486 55.4845 64.1765ZM46.601 68.0981V67.1931H59.3993V68.0981V68.5506H56.6138H49.4618H46.6763V68.0981H46.601ZM46.601 69.4556H48.4831V70.7376C48.4831 71.2655 48.0314 71.718 47.5044 71.718C46.9774 71.718 46.5257 71.2655 46.5257 70.7376V69.4556H46.601ZM44.7942 58.9729C44.7942 58.6712 45.0953 58.3696 45.3964 58.3696H45.6976C45.6976 58.445 45.6976 58.5204 45.6976 58.5958V61.3862H45.3964C45.0953 61.3862 44.7942 61.0845 44.7942 60.7829V58.9729Z" fill="black"/>
<path id="Vector_60" d="M69.3366 27.5264C68.9602 27.5264 68.5838 27.3001 68.3579 26.9231L54.7315 3.24284C54.3551 2.63952 53.6775 2.26244 53 2.26244C52.3224 2.26244 51.6449 2.63952 51.2684 3.24284L37.642 26.9231C37.3409 27.451 36.6633 27.6772 36.1363 27.3001C35.6094 26.9985 35.3835 26.3198 35.7599 25.7919L49.3111 2.11161C50.0639 0.754148 51.419 0 53 0C54.5057 0 55.9361 0.829562 56.6889 2.11161L70.3153 25.7919C70.6165 26.3198 70.4659 26.9985 69.9389 27.3001C69.713 27.451 69.4872 27.5264 69.3366 27.5264Z" fill="black"/>
</g>
<defs>
<clipPath id="clip0_5594_1695">
<rect width="106" height="100" fill="white"/>
</clipPath>
</defs>
</svg>
